<svg width="24" height="24" viewBox="0 0 24 24" fill="none" xmlns="http://www.w3.org/2000/svg">
<path fill-rule="evenodd" clip-rule="evenodd" d="M12.2396 7.8206C12.2396 6.48149 13.3251 5.39594 14.6643 5.39594C16.0034 5.39594 17.0889 6.48149 17.0889 7.8206C17.0889 9.1597 16.0034 10.2453 14.6643 10.2453C13.3251 10.2453 12.2396 9.1597 12.2396 7.8206ZM14.6643 4.39594C12.7729 4.39594 11.2396 5.92921 11.2396 7.8206C11.2396 9.71199 12.7729 11.2453 14.6643 11.2453C16.5556 11.2453 18.0889 9.71199 18.0889 7.8206C18.0889 5.92921 16.5556 4.39594 14.6643 4.39594ZM19.5168 11.18C20.2714 10.7265 21.1962 10.9981 21.6824 11.6357C21.9527 11.9902 22.042 12.4543 21.9819 12.8732C21.9211 13.297 21.6971 13.7373 21.2633 13.9981C21.0587 14.121 20.3334 14.5557 19.4824 15.0657L19.4774 15.0687L19.4746 15.0704L19.4733 15.0712L19.472 15.0719C17.9892 15.9606 16.1305 17.0746 15.9775 17.168C15.9547 17.1819 15.9283 17.1992 15.8982 17.2188C15.6851 17.3579 15.2912 17.615 14.7672 17.615C14.4506 17.615 10.6255 17.5782 8.34977 17.5559L8.33233 19.1097C8.32924 19.3858 8.10288 19.6071 7.82676 19.604C7.55063 19.6009 7.3293 19.3746 7.3324 19.0984L7.35543 17.0454L7.36104 16.5461L7.86033 16.551C10.0262 16.5724 14.4326 16.615 14.7672 16.615C14.9761 16.615 15.1084 16.532 15.3277 16.3944L15.3278 16.3943L15.328 16.3943C15.3676 16.3694 15.4101 16.3427 15.4564 16.3145C15.612 16.2195 17.4796 15.1002 18.9645 14.2102L18.9661 14.2093L18.9778 14.2023L18.982 14.1998L18.985 14.1979L19.0007 14.1885C19.8389 13.6862 20.5486 13.2609 20.7482 13.1409C20.8724 13.0663 20.9645 12.923 20.9921 12.7312C21.0203 12.5344 20.9701 12.3508 20.8871 12.242C20.6667 11.9529 20.2911 11.8814 20.032 12.0372C19.6375 12.2742 17.2726 13.6611 16.0232 14.393C15.9802 14.4895 15.9277 14.584 15.8647 14.6739C15.6003 15.0515 15.1626 15.329 14.5581 15.329H14.5541H14.55H14.5458H14.5416H14.5373H14.5331H14.5287H14.5243H14.5199H14.5154H14.5109H14.5063H14.5017H14.4971H14.4924H14.4877H14.4829H14.478H14.4732H14.4683H14.4633H14.4583H14.4533H14.4482H14.4431H14.4379H14.4327H14.4274H14.4221H14.4168H14.4114H14.406H14.4005H14.395H14.3895H14.3839H14.3783H14.3726H14.3669H14.3612H14.3554H14.3496H14.3437H14.3378H14.3319H14.3259H14.3199H14.3138H14.3077H14.3016H14.2954H14.2892H14.2829H14.2767H14.2703H14.264H14.2576H14.2511H14.2446H14.2381H14.2316H14.225H14.2184H14.2117H14.205H14.1983H14.1915H14.1847H14.1779H14.171H14.1641H14.1571H14.1502H14.1431H14.1361H14.129H14.1219H14.1147H14.1076H14.1003H14.0931H14.0858H14.0785H14.0711H14.0637H14.0563H14.0488H14.0414H14.0338H14.0263H14.0187H14.0111H14.0034H13.9958H13.988H13.9803H13.9725H13.9647H13.9569H13.949H13.9411H13.9332H13.9252H13.9172H13.9092H13.9012H13.8931H13.885H13.8769H13.8687H13.8605H13.8523H13.844H13.8357H13.8274H13.8191H13.8107H13.8023H13.7939H13.7854H13.777H13.7685H13.7599H13.7514H13.7428H13.7342H13.7255H13.7169H13.7082H13.6994H13.6907H13.6819H13.6731H13.6643H13.6554H13.6466H13.6377H13.6287H13.6198H13.6108H13.6018H13.5928H13.5838H13.5747H13.5656H13.5565H13.5473H13.5382H13.529H13.5198H13.5105H13.5013H13.492H13.4827H13.4734H13.464H13.4546H13.4453H13.4358H13.4264H13.4169H13.4075H13.398H13.3885H13.3789H13.3694H13.3598H13.3502H13.3405H13.3309H13.3212H13.3116H13.3019H13.2921H13.2824H13.2726H13.2629H13.2531H13.2433H13.2334H13.2236H13.2137H13.2038H13.1939H13.184H13.174H13.1641H13.1541H13.1441H13.1341H13.1241H13.114H13.104H13.0939H13.0838H13.0737H13.0636H13.0534H13.0433H13.0331H13.0229H13.0127H13.0025H12.9923H12.982H12.9718H12.9615H12.9512H12.9409H12.9306H12.9202H12.9099H12.8995H12.8892H12.8788H12.8684H12.858H12.8476H12.8371H12.8267H12.8162H12.8058H12.7953H12.7848H12.7743H12.7638H12.7532H12.7427H12.7321H12.7216H12.711H12.7004H12.6898H12.6792H12.6686H12.658H12.6474H12.6367H12.6261H12.6154H12.6047H12.5941H12.5834H12.5727H12.562H12.5513H12.5405H12.5298H12.5191H12.5083H12.4976H12.4868H12.4761H12.4653H12.4545H12.4437H12.4329H12.4221H12.4113H12.4005H12.3897H12.3789H12.368H12.3572H12.3464H12.3355H12.3247H12.3138H12.3029H12.2921H12.2812H12.2703H12.2595H12.2486H12.2377H12.2268H12.2159H12.205H12.1941H12.1832H12.1723H12.1614H12.1505H12.1396H12.1287H12.1177H12.1068H12.0959H12.085H12.0741H12.0631H12.0522H12.0413H12.0303H12.0194H12.0085H11.9976H11.9866H11.9757H11.9648H11.9538H11.9429H11.932H11.921H11.9101H11.8992H11.8883H11.8773H11.8664H11.8555H11.8446H11.8337H11.8227H11.8118H11.8009H11.79H11.7791H11.7682H11.7573H11.7464H11.7355H11.7246H11.7137H11.7028H11.692H11.6811H11.6702H11.6593H11.6485H11.6376H11.6268H11.6159H11.6051H11.5942H11.5834H11.5726H11.5618H11.5509H11.5401H11.5293H11.5185H11.5077H11.497H11.4862H11.4754H11.4647H11.4539H11.4432H11.4324H11.4217H11.411H11.4002H11.3895H11.3788H11.3681H11.3575H11.3468H11.3361H11.3255H11.3148H11.3042H11.2936H11.2829H11.2723H11.2617H11.2512H11.2406H11.23H11.2195H11.2089H11.1984H11.1879H11.1773H11.1669H11.1564H11.1459H11.1354H11.125H11.1145H11.1041H11.0937H11.0833H11.0729H11.0625H11.0522H11.0418H11.0315H11.0212H11.0108H11.0005H10.9903H10.98H10.9697H10.9595H10.9493H10.9391H10.9289H10.9187H10.9085H10.8984H10.8883H10.8782H10.8681H10.858H10.8479H10.8379H10.8278H10.8178H10.8078H10.7978H10.7879H10.7779H10.768H10.7581H10.7482H10.7383H10.7284H10.7186H10.7088H10.699H10.6892H10.6794H10.6697H10.6599H10.6502H10.6405H10.6309H10.6212H10.6116H10.602H10.5924H10.5828H10.5733H10.5637H10.5542H10.5447H10.5353H10.5258H10.5164H10.507H10.4976H10.4883H10.4789H10.4696H10.4603H10.4511H10.4418H10.4326H10.4234H10.4142H10.4051H10.3959H10.3868H10.3777H10.3687H10.3597H10.3506H10.3417H10.3327H10.3238H10.3149H10.306H10.2971H10.2883H10.2795H10.2707H10.2619H10.2532H10.2445H10.2358H10.2272H10.2185H10.2099H10.2014H10.1928H10.1843H10.1758H10.1673H10.1589H10.1505H10.1421H10.1338H10.1254H10.1171H10.1089H10.1006H10.0924H10.0842H10.0761H10.068H10.0599H10.0518H10.0438H10.0358H10.0278H10.0199H10.012H10.0041H9.99623H9.98841H9.98063H9.97287H9.96514H9.95745H9.94979H9.94216H9.93456H9.92699H9.91946H9.91196H9.90449H9.89706C9.62091 15.329 9.39706 15.1052 9.39706 14.829C9.39706 14.5529 9.62091 14.329 9.89706 14.329H9.90449H9.91196H9.91946H9.92699H9.93456H9.94216H9.94979H9.95745H9.96514H9.97287H9.98063H9.98841H9.99623H10.0041H10.012H10.0199H10.0278H10.0358H10.0438H10.0518H10.0599H10.068H10.0761H10.0842H10.0924H10.1006H10.1089H10.1171H10.1254H10.1338H10.1421H10.1505H10.1589H10.1673H10.1758H10.1843H10.1928H10.2014H10.2099H10.2185H10.2272H10.2358H10.2445H10.2532H10.2619H10.2707H10.2795H10.2883H10.2971H10.306H10.3149H10.3238H10.3327H10.3417H10.3506H10.3597H10.3687H10.3777H10.3868H10.3959H10.4051H10.4142H10.4234H10.4326H10.4418H10.4511H10.4603H10.4696H10.4789H10.4883H10.4976H10.507H10.5164H10.5258H10.5353H10.5447H10.5542H10.5637H10.5733H10.5828H10.5924H10.602H10.6116H10.6212H10.6309H10.6405H10.6502H10.6599H10.6697H10.6794H10.6892H10.699H10.7088H10.7186H10.7284H10.7383H10.7482H10.7581H10.768H10.7779H10.7879H10.7978H10.8078H10.8178H10.8278H10.8379H10.8479H10.858H10.8681H10.8782H10.8883H10.8984H10.9085H10.9187H10.9289H10.9391H10.9493H10.9595H10.9697H10.98H10.9903H11.0005H11.0108H11.0212H11.0315H11.0418H11.0522H11.0625H11.0729H11.0833H11.0937H11.1041H11.1145H11.125H11.1354H11.1459H11.1564H11.1669H11.1773H11.1879H11.1984H11.2089H11.2195H11.23H11.2406H11.2512H11.2617H11.2723H11.2829H11.2936H11.3042H11.3148H11.3255H11.3361H11.3468H11.3575H11.3681H11.3788H11.3895H11.4002H11.411H11.4217H11.4324H11.4432H11.4539H11.4647H11.4754H11.4862H11.497H11.5077H11.5185H11.5293H11.5401H11.5509H11.5618H11.5726H11.5834H11.5942H11.6051H11.6159H11.6268H11.6376H11.6485H11.6593H11.6702H11.6811H11.692H11.7028H11.7137H11.7246H11.7355H11.7464H11.7573H11.7682H11.7791H11.79H11.8009H11.8118H11.8227H11.8337H11.8446H11.8555H11.8664H11.8773H11.8883H11.8992H11.9101H11.921H11.932H11.9429H11.9538H11.9648H11.9757H11.9866H11.9976H12.0085H12.0194H12.0303H12.0413H12.0522H12.0631H12.0741H12.085H12.0959H12.1068H12.1177H12.1287H12.1396H12.1505H12.1614H12.1723H12.1832H12.1941H12.205H12.2159H12.2268H12.2377H12.2486H12.2595H12.2703H12.2812H12.2921H12.3029H12.3138H12.3247H12.3355H12.3464H12.3572H12.368H12.3789H12.3897H12.4005H12.4113H12.4221H12.4329H12.4437H12.4545H12.4653H12.4761H12.4868H12.4976H12.5083H12.5191H12.5298H12.5405H12.5513H12.562H12.5727H12.5834H12.5941H12.6047H12.6154H12.6261H12.6367H12.6474H12.658H12.6686H12.6792H12.6898H12.7004H12.711H12.7216H12.7321H12.7427H12.7532H12.7638H12.7743H12.7848H12.7953H12.8058H12.8162H12.8267H12.8371H12.8476H12.858H12.8684H12.8788H12.8892H12.8995H12.9099H12.9202H12.9306H12.9409H12.9512H12.9615H12.9718H12.982H12.9923H13.0025H13.0127H13.0229H13.0331H13.0433H13.0534H13.0636H13.0737H13.0838H13.0939H13.104H13.114H13.1241H13.1341H13.1441H13.1541H13.1641H13.174H13.184H13.1939H13.2038H13.2137H13.2236H13.2334H13.2433H13.2531H13.2629H13.2726H13.2824H13.2921H13.3019H13.3116H13.3212H13.3309H13.3405H13.3502H13.3598H13.3694H13.3789H13.3885H13.398H13.4075H13.4169H13.4264H13.4358H13.4453H13.4546H13.464H13.4734H13.4827H13.492H13.5013H13.5105H13.5198H13.529H13.5382H13.5473H13.5565H13.5656H13.5747H13.5838H13.5928H13.6018H13.6108H13.6198H13.6287H13.6377H13.6466H13.6554H13.6643H13.6731H13.6819H13.6907H13.6994H13.7082H13.7169H13.7255H13.7342H13.7428H13.7514H13.7599H13.7685H13.777H13.7854H13.7939H13.8023H13.8107H13.8191H13.8274H13.8357H13.844H13.8523H13.8605H13.8687H13.8769H13.885H13.8931H13.9012H13.9092H13.9172H13.9252H13.9332H13.9411H13.949H13.9569H13.9647H13.9725H13.9803H13.988H13.9958H14.0034H14.0111H14.0187H14.0263H14.0338H14.0414H14.0488H14.0563H14.0637H14.0711H14.0785H14.0858H14.0931H14.1003H14.1076H14.1147H14.1219H14.129H14.1361H14.1431H14.1502H14.1571H14.1641H14.171H14.1779H14.1847H14.1915H14.1983H14.205H14.2117H14.2184H14.225H14.2316H14.2381H14.2446H14.2511H14.2576H14.264H14.2703H14.2767H14.2829H14.2892H14.2954H14.3016H14.3077H14.3138H14.3199H14.3259H14.3319H14.3378H14.3437H14.3496H14.3554H14.3612H14.3669H14.3726H14.3783H14.3839H14.3895H14.395H14.4005H14.406H14.4114H14.4168H14.4221H14.4274H14.4327H14.4379H14.4431H14.4482H14.4533H14.4583H14.4633H14.4683H14.4732H14.478H14.4829H14.4877H14.4924H14.4971H14.5017H14.5063H14.5109H14.5154H14.5199H14.5243H14.5287H14.5331H14.5373H14.5416H14.5458H14.55H14.5541H14.5581C14.8203 14.329 14.9589 14.2241 15.0457 14.1002C15.1481 13.9539 15.1881 13.7604 15.1784 13.6232C15.1686 13.4842 15.1094 13.3243 15.0054 13.207C14.9116 13.1012 14.7743 13.0195 14.5581 13.0195C14.1321 13.0195 11.9585 12.9985 9.83762 12.9775L8.93265 12.9686L8.9324 12.9686C7.15545 12.951 5.60581 12.9356 5.40549 12.9356C5.25574 12.9356 5.15737 12.9553 5.00904 13.0644C4.82693 13.1984 4.57465 13.4667 4.17732 14.0178C3.90421 14.3967 3.64432 15.0261 3.42916 15.7029C3.21803 16.3669 3.06591 17.0244 2.99152 17.4209C2.9406 17.6923 2.6793 17.8711 2.4079 17.8202C2.13649 17.7692 1.95775 17.5079 2.00866 17.2365C2.08975 16.8043 2.25138 16.1069 2.47616 15.3999C2.69691 14.7055 2.9951 13.9477 3.36614 13.4331C3.774 12.8673 4.10149 12.4907 4.4164 12.259C4.76509 12.0024 5.081 11.9356 5.40549 11.9356C5.61124 11.9356 7.16551 11.951 8.93846 11.9686L8.93989 11.9686L9.8475 11.9776C11.973 11.9986 14.1386 12.0195 14.5581 12.0195C15.4403 12.0195 15.9322 12.6146 16.1063 13.1853C17.3974 12.4285 19.1833 11.3805 19.5168 11.18ZM14.6651 6.03363C14.9413 6.03363 15.1651 6.25749 15.1651 6.53363V7.31598H15.9472C16.2234 7.31598 16.4472 7.53984 16.4472 7.81598C16.4472 8.09212 16.2234 8.31598 15.9472 8.31598H15.1651V9.09843C15.1651 9.37457 14.9413 9.59843 14.6651 9.59843C14.389 9.59843 14.1651 9.37457 14.1651 9.09843V8.31598H13.3824C13.1063 8.31598 12.8824 8.09212 12.8824 7.81598C12.8824 7.53984 13.1063 7.31598 13.3824 7.31598H14.1651V6.53363C14.1651 6.25749 14.389 6.03363 14.6651 6.03363Z" fill="#141414"/>
</svg>
