<svg width="48" height="49" viewBox="0 0 48 49" fill="none" xmlns="http://www.w3.org/2000/svg">
<path fill-rule="evenodd" clip-rule="evenodd" d="M15.8497 16.0088C15.8497 11.4524 19.5434 7.75879 24.0997 7.75879C28.6561 7.75879 32.3497 11.4524 32.3497 16.0088C32.3497 20.5651 28.6561 24.2588 24.0997 24.2588C19.5434 24.2588 15.8497 20.5651 15.8497 16.0088ZM24.0997 6.25879C18.7149 6.25879 14.3497 10.624 14.3497 16.0088C14.3497 19.6723 16.3703 22.8639 19.3577 24.53C13.7851 25.2476 10.8702 27.3384 9.44945 30.1841C8.58777 31.91 8.32539 33.828 8.26626 35.684C8.23661 36.6147 8.25794 37.5449 8.28583 38.4385C8.29119 38.61 8.29676 38.7798 8.30229 38.948C8.3258 39.6635 8.34832 40.3492 8.34832 41.0088C8.34832 41.423 8.68411 41.7588 9.09832 41.7588C9.51254 41.7588 9.84832 41.423 9.84832 41.0088C9.84832 40.3221 9.82475 39.6056 9.80116 38.8883L9.80116 38.8882L9.80115 38.8881L9.80115 38.888C9.79571 38.7225 9.79026 38.5569 9.7851 38.3917C9.75735 37.5026 9.73745 36.6123 9.7655 35.7318C9.82177 33.9654 10.0705 32.2983 10.7915 30.8541C12.1845 28.064 15.5386 25.7588 24.0022 25.7588C25.5094 25.7588 26.8546 25.8319 28.0555 25.9678C28.7031 25.4882 29.4106 25.0849 30.1648 24.7713C29.7302 24.688 29.277 24.6144 28.8043 24.5507C31.8123 22.8905 33.8497 19.6876 33.8497 16.0088C33.8497 10.624 29.4845 6.25879 24.0997 6.25879ZM34.7175 27.2874C34.6204 26.9731 34.3299 26.7588 34.001 26.7588C33.6721 26.7588 33.3815 26.9731 33.2844 27.2874L32.0313 31.3424H28.001C27.6794 31.3424 27.3936 31.5474 27.2905 31.8521C27.1875 32.1567 27.2901 32.4932 27.5457 32.6884L30.8382 35.2036L29.5762 39.2874C29.4799 39.5991 29.5961 39.9373 29.8637 40.1239C30.1313 40.3106 30.4888 40.3028 30.7481 40.1048L34.001 37.6198L37.2539 40.1048C37.5131 40.3028 37.8707 40.3106 38.1383 40.1239C38.4058 39.9373 38.5221 39.5991 38.4257 39.2874L37.1638 35.2036L40.4563 32.6884C40.7118 32.4932 40.8145 32.1567 40.7114 31.8521C40.6084 31.5474 40.3226 31.3424 40.001 31.3424H35.9706L34.7175 27.2874ZM33.3011 32.3138L34.001 30.0491L34.7008 32.3138C34.7979 32.6281 35.0885 32.8424 35.4174 32.8424H37.7838L35.8375 34.3292C35.5877 34.52 35.4834 34.8463 35.5762 35.1466L36.2998 37.4884L34.4563 36.08C34.1875 35.8747 33.8145 35.8747 33.5457 36.08L31.7021 37.4884L32.4257 35.1466C32.5185 34.8463 32.4142 34.52 32.1645 34.3292L30.2182 32.8424H32.5846C32.9135 32.8424 33.204 32.6281 33.3011 32.3138Z" fill="#141414"/>
</svg>
