<svg width="12" height="15" viewBox="0 0 12 15" fill="none" xmlns="http://www.w3.org/2000/svg">
<path fill-rule="evenodd" clip-rule="evenodd" d="M5.33199 0.501343H5.38996C6.31044 0.501343 7.05663 1.24753 7.05663 2.16801C7.05663 2.22426 7.05384 2.27986 7.0484 2.33468H7.33199C7.60813 2.33468 7.83199 2.55853 7.83199 2.83468V3.00134H9.66532C9.94147 3.00134 10.1653 3.2252 10.1653 3.50134V5.3708C10.1653 5.64695 9.94147 5.8708 9.66532 5.8708C9.38918 5.8708 9.16532 5.64695 9.16532 5.3708V4.00134H7.83199V4.16801C7.83199 4.44415 7.60813 4.66801 7.33199 4.66801H3.33199C3.05585 4.66801 2.83199 4.44415 2.83199 4.16801V4.00134H1.49866V13.3347H9.16532V10.6309C9.16532 10.3547 9.38918 10.1309 9.66532 10.1309C9.94147 10.1309 10.1653 10.3547 10.1653 10.6309V13.8347C10.1653 14.1108 9.94147 14.3347 9.66532 14.3347H0.998657C0.722515 14.3347 0.498657 14.1108 0.498657 13.8347V3.50134C0.498657 3.2252 0.722515 3.00134 0.998657 3.00134H2.83199V2.83468C2.83199 2.55853 3.05585 2.33468 3.33199 2.33468H3.67355C3.66811 2.27986 3.66532 2.22426 3.66532 2.16801C3.66532 1.24754 4.41152 0.501343 5.33199 0.501343ZM6.05663 2.16801C6.05663 2.22556 6.04934 2.28141 6.03563 2.33468H4.68633C4.67262 2.28141 4.66532 2.22556 4.66532 2.16801C4.66532 1.79982 4.9638 1.50134 5.33199 1.50134H5.38996C5.75815 1.50134 6.05663 1.79982 6.05663 2.16801ZM2.66565 6.66822C2.38951 6.66822 2.16565 6.89208 2.16565 7.16822C2.16565 7.44436 2.38951 7.66822 2.66565 7.66822H7.72614C8.00229 7.66822 8.22614 7.44436 8.22614 7.16822C8.22614 6.89208 8.00229 6.66822 7.72614 6.66822H2.66565ZM2.66565 8.66834C2.38951 8.66834 2.16565 8.89219 2.16565 9.16834C2.16565 9.44448 2.38951 9.66834 2.66565 9.66834H5.66684C5.94298 9.66834 6.16684 9.44448 6.16684 9.16834C6.16684 8.89219 5.94298 8.66834 5.66684 8.66834H2.66565ZM2.16565 11.1683C2.16565 10.8922 2.38951 10.6683 2.66565 10.6683H4.37242C4.64856 10.6683 4.87242 10.8922 4.87242 11.1683C4.87242 11.4445 4.64856 11.6683 4.37242 11.6683H2.66565C2.38951 11.6683 2.16565 11.4445 2.16565 11.1683ZM3.66565 3.16768H6.99898V3.83435H3.66565V3.16768ZM9.03671 9.38112L8.96647 9.45346C8.95177 9.46863 8.93201 9.47774 8.91167 9.47871C8.89133 9.47968 8.87201 9.47237 8.8582 9.45855L6.80138 11.5154C6.72195 11.5948 6.60251 11.6674 6.47528 11.7309C6.3464 11.7953 6.20253 11.8537 6.06888 11.9029C5.93501 11.9521 5.81013 11.9925 5.71878 12.0205C5.67307 12.0345 5.63566 12.0455 5.60962 12.053L5.57943 12.0615L5.57143 12.0638L5.56932 12.0643L5.5686 12.0645C5.54355 12.0714 5.51766 12.0654 5.49981 12.0486C5.48196 12.0318 5.47448 12.0064 5.4799 11.9811L5.48007 11.9803L5.48054 11.9782L5.48233 11.9701L5.48931 11.9398C5.49545 11.9136 5.50456 11.8761 5.51653 11.8303C5.54045 11.7387 5.57588 11.6135 5.62194 11.4791C5.66791 11.345 5.72501 11.2001 5.79257 11.0699C5.85795 10.944 5.93642 10.8252 6.02913 10.7446C6.25894 10.4635 6.77312 9.92389 7.22821 9.45607C7.45801 9.21983 7.67375 9.00088 7.83202 8.841C7.91117 8.76105 7.97595 8.69586 8.02096 8.65065L8.03561 8.63596C8.0221 8.62232 8.01496 8.60345 8.01574 8.58345C8.01653 8.56334 8.02555 8.54346 8.04032 8.52869L10.1526 6.41642C10.32 6.24901 10.5067 6.17582 10.6829 6.17658C10.8574 6.17733 11.0155 6.25058 11.1297 6.36479C11.1952 6.43026 11.2472 6.51014 11.2798 6.59927C11.4382 6.87388 11.4697 7.17871 11.4603 7.42033C11.454 7.58114 11.4294 7.72251 11.4065 7.82377C11.395 7.87467 11.3837 7.91617 11.3751 7.9458L11.3589 7.99723C11.3445 8.03867 11.3205 8.07697 11.2889 8.10849L9.62115 9.77628C9.51346 9.88398 9.34544 9.89056 9.24586 9.79098C9.14629 9.69141 9.15287 9.52338 9.26056 9.41569L10.8753 7.80093C10.8795 7.78523 10.8841 7.76673 10.8888 7.7458C10.9043 7.67731 10.9206 7.58519 10.9274 7.48154C10.652 7.74251 10.2231 8.17223 9.83536 8.56531C9.60258 8.8013 9.38534 9.02336 9.22628 9.18643L9.03671 9.38112Z" fill="#888B8D"/>
</svg>
