<svg width="20" height="19" viewBox="0 0 20 19" fill="none" xmlns="http://www.w3.org/2000/svg">
<path fill-rule="evenodd" clip-rule="evenodd" d="M10.2275 3.76008C10.1108 3.50981 10.2191 3.21232 10.4694 3.09561L15.9072 0.559905C16.1575 0.443202 16.455 0.55148 16.5717 0.80175L19.1074 6.2396C19.2241 6.48987 19.1158 6.78736 18.8655 6.90406L13.4277 9.43977C13.1774 9.55647 12.8799 9.44819 12.7632 9.19792L10.2275 3.76008ZM11.3451 3.79061L13.4582 8.32215L17.9898 6.20906L15.8767 1.67752L11.3451 3.79061ZM1.16699 0.99994C0.89085 0.99994 0.666992 1.2238 0.666992 1.49994V8.49994C0.666992 8.77608 0.89085 8.99994 1.16699 8.99994H8.16699C8.44313 8.99994 8.66699 8.77608 8.66699 8.49994V1.49994C8.66699 1.2238 8.44313 0.99994 8.16699 0.99994H1.16699ZM1.66699 7.99994V1.99994H7.66699V7.99994H1.66699ZM1.16699 10.9999C0.89085 10.9999 0.666992 11.2238 0.666992 11.4999V18.4999C0.666992 18.7761 0.89085 18.9999 1.16699 18.9999H8.16699C8.44313 18.9999 8.66699 18.7761 8.66699 18.4999V11.4999C8.66699 11.2238 8.44313 10.9999 8.16699 10.9999H1.16699ZM1.66699 17.9999V11.9999H7.66699V17.9999H1.66699ZM11.167 10.9999C10.8909 10.9999 10.667 11.2238 10.667 11.4999V18.4999C10.667 18.7761 10.8909 18.9999 11.167 18.9999H18.167C18.4431 18.9999 18.667 18.7761 18.667 18.4999V11.4999C18.667 11.2238 18.4431 10.9999 18.167 10.9999H11.167ZM11.667 17.9999V11.9999H17.667V17.9999H11.667Z" fill=""/>
</svg>
