<svg width="21" height="14" viewBox="0 0 21 14" fill="none" xmlns="http://www.w3.org/2000/svg">
<path fill-rule="evenodd" clip-rule="evenodd" d="M10.667 0.5C7.92502 0.5 5.43356 2.09905 3.67178 3.62171C2.78191 4.39079 2.05739 5.15851 1.55533 5.7337C1.30399 6.02165 1.10763 6.26224 0.973362 6.43184C0.906212 6.51666 0.854542 6.58379 0.819246 6.63028C0.801596 6.65353 0.788035 6.67162 0.778674 6.6842L0.767795 6.69887L0.764743 6.70302L0.763819 6.70428L0.763507 6.7047C0.763394 6.70486 0.763297 6.70499 1.16699 7L0.763297 6.70499C0.634891 6.8807 0.634891 7.1193 0.763297 7.29501L1.16699 7C0.763297 7.29501 0.763394 7.29514 0.763507 7.2953L0.763819 7.29572L0.764743 7.29698L0.767795 7.30113L0.778674 7.3158C0.788035 7.32838 0.801596 7.34647 0.819246 7.36972C0.854542 7.41621 0.906212 7.48334 0.973362 7.56816C1.10763 7.73776 1.30399 7.97835 1.55533 8.2663C2.05739 8.84149 2.78191 9.60921 3.67178 10.3783C5.43356 11.9009 7.92502 13.5 10.667 13.5C13.409 13.5 15.9004 11.9009 17.6622 10.3783C18.5521 9.60921 19.2766 8.84149 19.7787 8.2663C20.03 7.97835 20.2264 7.73776 20.3606 7.56816C20.4278 7.48334 20.4794 7.41621 20.5147 7.36972C20.5324 7.34647 20.5459 7.32838 20.5553 7.3158L20.5662 7.30113L20.5692 7.29698L20.5702 7.29572L20.5705 7.2953C20.5706 7.29514 20.5707 7.29501 20.167 7L20.5707 7.29501C20.6991 7.1193 20.6991 6.8807 20.5707 6.70499L20.167 7C20.5707 6.70499 20.5706 6.70486 20.5705 6.7047L20.5702 6.70428L20.5692 6.70302L20.5662 6.69887L20.5553 6.6842C20.5459 6.67162 20.5324 6.65353 20.5147 6.63028C20.4794 6.58379 20.4278 6.51666 20.3606 6.43184C20.2264 6.26224 20.03 6.02165 19.7787 5.7337C19.2766 5.15851 18.5521 4.39079 17.6622 3.62171C15.9004 2.09905 13.409 0.5 10.667 0.5ZM2.3087 7.6087C2.09437 7.36315 1.92283 7.15471 1.7992 7C1.92283 6.84529 2.09437 6.63685 2.3087 6.3913C2.78861 5.84149 3.47996 5.10921 4.32567 4.37829C6.03504 2.90095 8.29358 1.5 10.667 1.5C13.0404 1.5 15.2989 2.90095 17.0083 4.37829C17.854 5.10921 18.5454 5.84149 19.0253 6.3913C19.2396 6.63685 19.4112 6.84529 19.5348 7C19.4112 7.1547 19.2396 7.36315 19.0253 7.6087C18.5454 8.15851 17.854 8.89079 17.0083 9.62171C15.2989 11.0991 13.0404 12.5 10.667 12.5C8.29358 12.5 6.03504 11.0991 4.32567 9.62171C3.47996 8.89079 2.78861 8.15851 2.3087 7.6087ZM7.66699 6.99994C7.66699 5.34308 9.01014 3.99994 10.667 3.99994C12.3238 3.99994 13.667 5.34308 13.667 6.99994C13.667 8.65679 12.3238 9.99994 10.667 9.99994C9.01014 9.99994 7.66699 8.65679 7.66699 6.99994ZM10.667 2.99994C8.45786 2.99994 6.66699 4.7908 6.66699 6.99994C6.66699 9.20908 8.45786 10.9999 10.667 10.9999C12.8761 10.9999 14.667 9.20908 14.667 6.99994C14.667 4.7908 12.8761 2.99994 10.667 2.99994Z" fill=""/>
</svg>
