<svg width="16" height="16" viewBox="0 0 16 16" fill="none" xmlns="http://www.w3.org/2000/svg">
<path fill-rule="evenodd" clip-rule="evenodd" d="M7.00391 2.33325C7.00391 1.78097 7.45162 1.33325 8.00391 1.33325C8.55619 1.33325 9.00391 1.78097 9.00391 2.33325V3.13829C10.5423 3.57404 11.6693 4.9888 11.6693 6.66669V9.41656C11.6693 9.55365 11.7193 9.81067 11.8135 10.1521C11.9045 10.482 12.0269 10.8572 12.1508 11.2133C12.2744 11.5687 12.3982 11.9014 12.4912 12.1456C12.5376 12.2675 12.5763 12.3671 12.6034 12.4361L12.6346 12.5156L12.6428 12.5361L12.6453 12.5424C12.6864 12.6451 12.674 12.7618 12.612 12.8534C12.5499 12.945 12.4465 12.9999 12.3359 12.9999H3.66927C3.54793 12.9999 3.43618 12.934 3.3775 12.8278C3.31887 12.7216 3.32249 12.592 3.38695 12.4893L3.38864 12.4866L3.39564 12.4752C3.40205 12.4646 3.41184 12.4483 3.42455 12.4266C3.44996 12.3832 3.48696 12.3183 3.53169 12.2348C3.62125 12.0675 3.74122 11.827 3.8612 11.5367C4.10307 10.9513 4.33594 10.1849 4.33594 9.41656V6.66654C4.33594 4.98769 5.46424 3.5724 7.00391 3.13755V2.33325ZM8.00258 14.6666C7.31915 14.6666 6.7318 14.2552 6.47461 13.6666H9.53054C9.27335 14.2552 8.686 14.6666 8.00258 14.6666Z" fill="#FFA000"/>
</svg>
