<svg width="16" height="16" viewBox="0 0 16 16" fill="none" xmlns="http://www.w3.org/2000/svg">
<path fill-rule="evenodd" clip-rule="evenodd" d="M6.93262 2.33327C6.93262 1.74416 7.41019 1.2666 7.99929 1.2666C8.58839 1.2666 9.06596 1.74416 9.06596 2.33327V3.08794C10.6079 3.54704 11.7323 4.97561 11.7323 6.66668V6.67395V6.68121V6.68846V6.69572V6.70298V6.71023V6.71748V6.72474V6.73199V6.73923V6.74648V6.75373V6.76097V6.76821V6.77545V6.78269V6.78993V6.79716V6.80439V6.81162V6.81885V6.82608V6.8333V6.84053V6.84775V6.85497V6.86218V6.8694V6.87661V6.88382V6.89103V6.89823V6.90543V6.91263V6.91983V6.92703V6.93422V6.94141V6.9486V6.95578V6.96296V6.97014V6.97732V6.98449V6.99166V6.99883V7.006V7.01316V7.02032V7.02748V7.03463V7.04178V7.04893V7.05607V7.06321V7.07035V7.07749V7.08462V7.09175V7.09887V7.10599V7.11311V7.12022V7.12733V7.13444V7.14155V7.14865V7.15574V7.16283V7.16992V7.17701V7.18409V7.19117V7.19824V7.20531V7.21238V7.21944V7.2265V7.23355V7.2406V7.24765V7.25469V7.26173V7.26876V7.27579V7.28281V7.28983V7.29685V7.30386V7.31087V7.31787V7.32487V7.33186V7.33885V7.34583V7.35281V7.35979V7.36676V7.37373V7.38069V7.38764V7.39459V7.40154V7.40848V7.41542V7.42235V7.42927V7.43619V7.44311V7.45002V7.45693V7.46383V7.47072V7.47761V7.4845V7.49137V7.49825V7.50512V7.51198V7.51884V7.52569V7.53253V7.53937V7.54621V7.55304V7.55986V7.56668V7.57349V7.5803V7.5871V7.59389V7.60068V7.60746V7.61424V7.62101V7.62777V7.63453V7.64128V7.64802V7.65476V7.6615V7.66822V7.67494V7.68166V7.68836V7.69506V7.70176V7.70845V7.71513V7.7218V7.72847V7.73513V7.74179V7.74843V7.75507V7.76171V7.76834V7.77496V7.78157V7.78818V7.79478V7.80137V7.80796V7.81453V7.8211V7.82767V7.83423V7.84078V7.84732V7.85385V7.86038V7.8669V7.87341V7.87992V7.88642V7.89291V7.89939V7.90586V7.91233V7.91879V7.92524V7.93169V7.93812V7.94455V7.95097V7.95739V7.96379V7.97019V7.97658V7.98296V7.98933V7.9957V8.00205V8.0084V8.01474V8.02107V8.0274V8.03371V8.04002V8.04632V8.05261V8.05889V8.06516V8.07143V8.07768V8.08393V8.09017V8.0964V8.10262V8.10883V8.11503V8.12123V8.12741V8.13359V8.13976V8.14592V8.15207V8.15821V8.16434V8.17046V8.17658V8.18268V8.18878V8.19486V8.20094V8.20701V8.21306V8.21911V8.22515V8.23118V8.2372V8.24321V8.24921V8.2552V8.26119V8.26716V8.27312V8.27907V8.28501V8.29095V8.29687V8.30278V8.30868V8.31458V8.32046V8.32633V8.33219V8.33805V8.34389V8.34972V8.35554V8.36135V8.36716V8.37295V8.37873V8.3845V8.39026V8.39601V8.40174V8.40747V8.41319V8.4189V8.42459V8.43028V8.43595V8.44162V8.44727V8.45291V8.45854V8.46416V8.46977V8.47537V8.48096V8.48653V8.4921V8.49765V8.5032V8.50873V8.51425V8.51976V8.52525V8.53074V8.53622V8.54168V8.54713V8.55257V8.558V8.56342V8.56882V8.57422V8.5796V8.58497V8.59033V8.59568V8.60101V8.60633V8.61165V8.61695V8.62223V8.62751V8.63277V8.63802V8.64326V8.64849V8.6537V8.65891V8.6641V8.66928V8.67444V8.67959V8.68474V8.68986V8.69498V8.70008V8.70517V8.71025V8.71532V8.72037V8.72541V8.73044V8.73546V8.74046V8.74545V8.75042V8.75539V8.76034V8.76527V8.7702V8.77511V8.78001V8.78489V8.78977V8.79462V8.79947V8.8043V8.80912V8.81393V8.81872V8.8235V8.82826V8.83301V8.83775V8.84248V8.84719V8.85189V8.85657V8.86124V8.8659V8.87054V8.87517V8.87978V8.88438V8.88897V8.89354V8.8981V8.90265V8.90718V8.9117V8.9162V8.92069V8.92516V8.92962V8.93407V8.9385V8.94292V8.94732V8.95171V8.95608V8.96044V8.96479V8.96912V8.97343V8.97773V8.98202V8.98629V8.99055V8.99479V8.99902V9.00323V9.00743V9.01161V9.01578V9.01993V9.02407V9.02819V9.0323V9.03639V9.04047V9.04453V9.04857V9.05261V9.05662V9.06062V9.06461V9.06858V9.07253V9.07647V9.08039V9.0843V9.08819V9.09207V9.09593V9.09977V9.1036V9.10742V9.11121V9.115V9.11876V9.12251V9.12624V9.12996V9.13366V9.13735V9.14102V9.14467V9.14831V9.15193V9.15553V9.15912V9.16269V9.16625V9.16979V9.17331V9.17682V9.18031V9.18378V9.18724V9.19068V9.1941V9.19751V9.2009V9.20427V9.20763V9.21097V9.21429V9.21759V9.22088V9.22415V9.22741V9.23065V9.23387V9.23707V9.24025V9.24342V9.24658V9.24971V9.25283V9.25593V9.25901V9.26207V9.26512V9.26815V9.27116V9.27416V9.27714V9.28009V9.28304V9.28596V9.28887V9.29176V9.29463V9.29748V9.30031V9.30313V9.30593V9.30871V9.31147V9.31422V9.31695V9.31966V9.32235V9.32502V9.32767V9.33031V9.33293V9.33553V9.33811V9.34067V9.34321V9.34574V9.34824V9.35073V9.3532V9.35565V9.35809V9.3605V9.36289V9.36527V9.36763V9.36996V9.37228V9.37458V9.37687V9.37913V9.38137V9.3836V9.3858V9.38799V9.39015V9.3923V9.39443V9.39654V9.39863V9.4007V9.40275V9.40478V9.40679V9.40879V9.41076V9.41271V9.41465V9.41656C11.7323 9.54357 11.7799 9.79261 11.8741 10.1344C11.9646 10.4623 12.0864 10.8359 12.2101 11.1914C12.3334 11.546 12.457 11.8781 12.5498 12.1218C12.5962 12.2436 12.6348 12.343 12.6618 12.4118L12.693 12.491L12.7011 12.5114L12.7031 12.5165L12.7036 12.5177L12.7037 12.518L12.7037 12.518L12.7037 12.518C12.753 12.6412 12.7379 12.7809 12.6635 12.8908C12.5891 13.0007 12.465 13.0666 12.3323 13.0666H9.78107C9.74603 14.0206 8.96156 14.7833 7.99896 14.7833C7.03636 14.7833 6.25189 14.0206 6.21685 13.0666H3.66563C3.52002 13.0666 3.38591 12.9874 3.3155 12.86C3.24512 12.7326 3.2495 12.577 3.32692 12.4538L3.32695 12.4537L3.32701 12.4536L3.32829 12.4516L3.33502 12.4406C3.34125 12.4303 3.35085 12.4143 3.36336 12.393C3.38839 12.3502 3.42497 12.286 3.46927 12.2033C3.558 12.0376 3.67696 11.7991 3.79594 11.5112C4.03619 10.9298 4.26563 10.1726 4.26563 9.41656V9.4128V9.40902V9.40524V9.40144V9.39764V9.39383V9.39V9.38617V9.38233V9.37848V9.37462V9.37075V9.36687V9.36299V9.35909V9.35519V9.35127V9.34735V9.34342V9.33947V9.33552V9.33156V9.32759V9.32361V9.31963V9.31563V9.31163V9.30761V9.30359V9.29956V9.29552V9.29147V9.28741V9.28334V9.27926V9.27518V9.27108V9.26698V9.26287V9.25875V9.25462V9.25048V9.24634V9.24218V9.23802V9.23385V9.22967V9.22548V9.22128V9.21707V9.21286V9.20863V9.2044V9.20016V9.19591V9.19165V9.18739V9.18311V9.17883V9.17454V9.17024V9.16593V9.16162V9.15729V9.15296V9.14862V9.14427V9.13991V9.13555V9.13117V9.12679V9.1224V9.118V9.1136V9.10918V9.10476V9.10033V9.09589V9.09144V9.08699V9.08253V9.07806V9.07358V9.06909V9.0646V9.0601V9.05559V9.05107V9.04654V9.04201V9.03747V9.03292V9.02836V9.0238V9.01923V9.01465V9.01006V9.00547V9.00086V8.99625V8.99163V8.98701V8.98237V8.97773V8.97309V8.96843V8.96377V8.9591V8.95442V8.94973V8.94504V8.94034V8.93563V8.93092V8.92619V8.92146V8.91673V8.91198V8.90723V8.90247V8.89771V8.89293V8.88815V8.88336V8.87857V8.87377V8.86896V8.86414V8.85932V8.85449V8.84965V8.84481V8.83995V8.8351V8.83023V8.82536V8.82048V8.81559V8.8107V8.8058V8.80089V8.79598V8.79106V8.78613V8.7812V8.77626V8.77131V8.76635V8.76139V8.75642V8.75145V8.74647V8.74148V8.73649V8.73149V8.72648V8.72146V8.71644V8.71142V8.70638V8.70134V8.6963V8.69124V8.68618V8.68112V8.67604V8.67097V8.66588V8.66079V8.65569V8.65059V8.64548V8.64036V8.63524V8.63011V8.62497V8.61983V8.61468V8.60953V8.60437V8.59921V8.59403V8.58885V8.58367V8.57848V8.57328V8.56808V8.56287V8.55766V8.55244V8.54721V8.54198V8.53674V8.5315V8.52625V8.52099V8.51573V8.51046V8.50519V8.49991V8.49463V8.48934V8.48404V8.47874V8.47343V8.46812V8.4628V8.45748V8.45215V8.44681V8.44147V8.43613V8.43077V8.42542V8.42005V8.41469V8.40931V8.40393V8.39855V8.39316V8.38776V8.38236V8.37696V8.37154V8.36613V8.3607V8.35528V8.34984V8.34441V8.33896V8.33352V8.32806V8.3226V8.31714V8.31167V8.3062V8.30072V8.29524V8.28975V8.28425V8.27875V8.27325V8.26774V8.26223V8.25671V8.25118V8.24566V8.24012V8.23458V8.22904V8.22349V8.21794V8.21238V8.20682V8.20125V8.19568V8.1901V8.18452V8.17894V8.17335V8.16775V8.16215V8.15655V8.15094V8.14533V8.13971V8.13408V8.12846V8.12283V8.11719V8.11155V8.10591V8.10026V8.0946V8.08894V8.08328V8.07762V8.07194V8.06627V8.06059V8.05491V8.04922V8.04353V8.03783V8.03213V8.02642V8.02071V8.015V8.00928V8.00356V7.99784V7.99211V7.98637V7.98064V7.9749V7.96915V7.9634V7.95765V7.95189V7.94613V7.94036V7.9346V7.92882V7.92305V7.91727V7.91148V7.90569V7.8999V7.89411V7.88831V7.8825V7.8767V7.87089V7.86507V7.85926V7.85344V7.84761V7.84178V7.83595V7.83011V7.82428V7.81843V7.81259V7.80674V7.80089V7.79503V7.78917V7.78331V7.77744V7.77157V7.7657V7.75982V7.75394V7.74806V7.74217V7.73628V7.73039V7.7245V7.7186V7.71269V7.70679V7.70088V7.69497V7.68905V7.68314V7.67722V7.67129V7.66537V7.65944V7.6535V7.64757V7.64163V7.63569V7.62974V7.6238V7.61785V7.61189V7.60594V7.59998V7.59402V7.58805V7.58209V7.57612V7.57014V7.56417V7.55819V7.55221V7.54623V7.54024V7.53425V7.52826V7.52227V7.51627V7.51027V7.50427V7.49827V7.49226V7.48626V7.48025V7.47423V7.46822V7.4622V7.45618V7.45015V7.44413V7.4381V7.43207V7.42604V7.42001V7.41397V7.40793V7.40189V7.39585V7.3898V7.38375V7.37771V7.37165V7.3656V7.35954V7.35349V7.34743V7.34136V7.3353V7.32924V7.32317V7.3171V7.31103V7.30495V7.29888V7.2928V7.28672V7.28064V7.27456V7.26847V7.26239V7.2563V7.25021V7.24412V7.23802V7.23193V7.22583V7.21974V7.21364V7.20753V7.20143V7.19533V7.18922V7.18311V7.177V7.17089V7.16478V7.15867V7.15255V7.14644V7.14032V7.1342V7.12808V7.12196V7.11584V7.10971V7.10359V7.09746V7.09133V7.0852V7.07907V7.07294V7.06681V7.06067V7.05454V7.0484V7.04226V7.03612V7.02998V7.02384V7.0177V7.01156V7.00542V6.99927V6.99313V6.98698V6.98083V6.97468V6.96853V6.96238V6.95623V6.95008V6.94393V6.93778V6.93162V6.92547V6.91931V6.91315V6.907V6.90084V6.89468V6.88852V6.88236V6.8762V6.87004V6.86388V6.85772V6.85156V6.84539V6.83923V6.83307V6.8269V6.82074V6.81457V6.80841V6.80224V6.79608V6.78991V6.78374V6.77758V6.77141V6.76524V6.75907V6.7529V6.74674V6.74057V6.7344V6.72823V6.72206V6.71589V6.70972V6.70355V6.69738V6.69122V6.68505V6.67888V6.67271V6.66654C4.26563 4.9752 5.39033 3.54658 6.93262 3.08773V2.33327ZM7.99929 2.0666C7.85201 2.0666 7.73262 2.18599 7.73262 2.33327V2.7666H8.26596V2.33327C8.26596 2.18599 8.14657 2.0666 7.99929 2.0666ZM7.99896 13.8833C7.53352 13.8833 7.15216 13.5233 7.1181 13.0666H8.87982C8.84576 13.5233 8.4644 13.8833 7.99896 13.8833ZM4.33419 12.2666H11.7492C11.6629 12.0372 11.5587 11.754 11.4545 11.4542C11.3281 11.091 11.2 10.6989 11.1029 10.3472C11.0097 10.0093 10.9323 9.66455 10.9323 9.41656V9.41465V9.41271V9.41076V9.40879V9.40679V9.40478V9.40275V9.4007V9.39863V9.39654V9.39443V9.3923V9.39015V9.38799V9.3858V9.3836V9.38137V9.37913V9.37687V9.37458V9.37228V9.36996V9.36763V9.36527V9.36289V9.3605V9.35809V9.35565V9.3532V9.35073V9.34824V9.34574V9.34321V9.34067V9.33811V9.33553V9.33293V9.33031V9.32767V9.32502V9.32235V9.31966V9.31695V9.31422V9.31147V9.30871V9.30593V9.30313V9.30031V9.29748V9.29463V9.29176V9.28887V9.28596V9.28304V9.28009V9.27714V9.27416V9.27116V9.26815V9.26512V9.26207V9.25901V9.25593V9.25283V9.24971V9.24658V9.24342V9.24025V9.23707V9.23387V9.23065V9.22741V9.22415V9.22088V9.21759V9.21429V9.21097V9.20763V9.20427V9.2009V9.19751V9.1941V9.19068V9.18724V9.18378V9.18031V9.17682V9.17331V9.16979V9.16625V9.16269V9.15912V9.15553V9.15193V9.14831V9.14467V9.14102V9.13735V9.13366V9.12996V9.12624V9.12251V9.11876V9.115V9.11121V9.10742V9.1036V9.09977V9.09593V9.09207V9.08819V9.0843V9.08039V9.07647V9.07253V9.06858V9.06461V9.06062V9.05662V9.05261V9.04857V9.04453V9.04047V9.03639V9.0323V9.02819V9.02407V9.01993V9.01578V9.01161V9.00743V9.00323V8.99902V8.99479V8.99055V8.98629V8.98202V8.97773V8.97343V8.96912V8.96479V8.96044V8.95608V8.95171V8.94732V8.94292V8.9385V8.93407V8.92962V8.92516V8.92069V8.9162V8.9117V8.90718V8.90265V8.8981V8.89354V8.88897V8.88438V8.87978V8.87517V8.87054V8.8659V8.86124V8.85657V8.85189V8.84719V8.84248V8.83775V8.83301V8.82826V8.8235V8.81872V8.81393V8.80912V8.8043V8.79947V8.79462V8.78977V8.78489V8.78001V8.77511V8.7702V8.76527V8.76034V8.75539V8.75042V8.74545V8.74046V8.73546V8.73044V8.72541V8.72037V8.71532V8.71025V8.70517V8.70008V8.69498V8.68986V8.68474V8.67959V8.67444V8.66928V8.6641V8.65891V8.6537V8.64849V8.64326V8.63802V8.63277V8.62751V8.62223V8.61695V8.61165V8.60633V8.60101V8.59568V8.59033V8.58497V8.5796V8.57422V8.56882V8.56342V8.558V8.55257V8.54713V8.54168V8.53622V8.53074V8.52525V8.51976V8.51425V8.50873V8.5032V8.49765V8.4921V8.48653V8.48096V8.47537V8.46977V8.46416V8.45854V8.45291V8.44727V8.44162V8.43595V8.43028V8.42459V8.4189V8.41319V8.40747V8.40174V8.39601V8.39026V8.3845V8.37873V8.37295V8.36716V8.36135V8.35554V8.34972V8.34389V8.33805V8.33219V8.32633V8.32046V8.31458V8.30868V8.30278V8.29687V8.29095V8.28501V8.27907V8.27312V8.26716V8.26119V8.2552V8.24921V8.24321V8.2372V8.23118V8.22515V8.21911V8.21306V8.20701V8.20094V8.19486V8.18878V8.18268V8.17658V8.17046V8.16434V8.15821V8.15207V8.14592V8.13976V8.13359V8.12741V8.12123V8.11503V8.10883V8.10262V8.0964V8.09017V8.08393V8.07768V8.07143V8.06516V8.05889V8.05261V8.04632V8.04002V8.03371V8.0274V8.02107V8.01474V8.0084V8.00205V7.9957V7.98933V7.98296V7.97658V7.97019V7.96379V7.95739V7.95097V7.94455V7.93812V7.93169V7.92524V7.91879V7.91233V7.90586V7.89939V7.89291V7.88642V7.87992V7.87341V7.8669V7.86038V7.85385V7.84732V7.84078V7.83423V7.82767V7.8211V7.81453V7.80796V7.80137V7.79478V7.78818V7.78157V7.77496V7.76834V7.76171V7.75507V7.74843V7.74179V7.73513V7.72847V7.7218V7.71513V7.70845V7.70176V7.69506V7.68836V7.68166V7.67494V7.66822V7.6615V7.65476V7.64802V7.64128V7.63453V7.62777V7.62101V7.61424V7.60746V7.60068V7.59389V7.5871V7.5803V7.57349V7.56668V7.55986V7.55304V7.54621V7.53937V7.53253V7.52569V7.51884V7.51198V7.50512V7.49825V7.49137V7.4845V7.47761V7.47072V7.46383V7.45693V7.45002V7.44311V7.43619V7.42927V7.42235V7.41542V7.40848V7.40154V7.39459V7.38764V7.38069V7.37373V7.36676V7.35979V7.35281V7.34583V7.33885V7.33186V7.32487V7.31787V7.31087V7.30386V7.29685V7.28983V7.28281V7.27579V7.26876V7.26173V7.25469V7.24765V7.2406V7.23355V7.2265V7.21944V7.21238V7.20531V7.19824V7.19117V7.18409V7.17701V7.16992V7.16283V7.15574V7.14865V7.14155V7.13444V7.12733V7.12022V7.11311V7.10599V7.09887V7.09175V7.08462V7.07749V7.07035V7.06321V7.05607V7.04893V7.04178V7.03463V7.02748V7.02032V7.01316V7.006V6.99883V6.99166V6.98449V6.97732V6.97014V6.96296V6.95578V6.9486V6.94141V6.93422V6.92703V6.91983V6.91263V6.90543V6.89823V6.89103V6.88382V6.87661V6.8694V6.86218V6.85497V6.84775V6.84053V6.8333V6.82608V6.81885V6.81162V6.80439V6.79716V6.78993V6.78269V6.77545V6.76821V6.76097V6.75373V6.74648V6.73923V6.73199V6.72474V6.71748V6.71023V6.70298V6.69572V6.68846V6.68121V6.67395V6.66668C10.9323 5.04663 9.61897 3.73323 7.99896 3.73323C6.37892 3.73323 5.06563 5.04651 5.06563 6.66654V6.67271V6.67888V6.68505V6.69122V6.69738V6.70355V6.70972V6.71589V6.72206V6.72823V6.7344V6.74057V6.74674V6.7529V6.75907V6.76524V6.77141V6.77758V6.78374V6.78991V6.79608V6.80224V6.80841V6.81457V6.82074V6.8269V6.83307V6.83923V6.84539V6.85156V6.85772V6.86388V6.87004V6.8762V6.88236V6.88852V6.89468V6.90084V6.907V6.91315V6.91931V6.92547V6.93162V6.93778V6.94393V6.95008V6.95623V6.96238V6.96853V6.97468V6.98083V6.98698V6.99313V6.99927V7.00542V7.01156V7.0177V7.02384V7.02998V7.03612V7.04226V7.0484V7.05454V7.06067V7.06681V7.07294V7.07907V7.0852V7.09133V7.09746V7.10359V7.10971V7.11584V7.12196V7.12808V7.1342V7.14032V7.14644V7.15255V7.15867V7.16478V7.17089V7.177V7.18311V7.18922V7.19533V7.20143V7.20753V7.21364V7.21974V7.22583V7.23193V7.23802V7.24412V7.25021V7.2563V7.26239V7.26847V7.27456V7.28064V7.28672V7.2928V7.29888V7.30495V7.31103V7.3171V7.32317V7.32924V7.3353V7.34136V7.34743V7.35349V7.35954V7.3656V7.37165V7.37771V7.38375V7.3898V7.39585V7.40189V7.40793V7.41397V7.42001V7.42604V7.43207V7.4381V7.44413V7.45015V7.45618V7.4622V7.46822V7.47423V7.48025V7.48626V7.49226V7.49827V7.50427V7.51027V7.51627V7.52227V7.52826V7.53425V7.54024V7.54623V7.55221V7.55819V7.56417V7.57014V7.57612V7.58209V7.58805V7.59402V7.59998V7.60594V7.61189V7.61785V7.6238V7.62974V7.63569V7.64163V7.64757V7.6535V7.65944V7.66537V7.67129V7.67722V7.68314V7.68905V7.69497V7.70088V7.70679V7.71269V7.7186V7.7245V7.73039V7.73628V7.74217V7.74806V7.75394V7.75982V7.7657V7.77157V7.77744V7.78331V7.78917V7.79503V7.80089V7.80674V7.81259V7.81843V7.82428V7.83011V7.83595V7.84178V7.84761V7.85344V7.85926V7.86507V7.87089V7.8767V7.8825V7.88831V7.89411V7.8999V7.90569V7.91148V7.91727V7.92305V7.92882V7.9346V7.94036V7.94613V7.95189V7.95765V7.9634V7.96915V7.9749V7.98064V7.98637V7.99211V7.99784V8.00356V8.00928V8.015V8.02071V8.02642V8.03213V8.03783V8.04353V8.04922V8.05491V8.06059V8.06627V8.07194V8.07762V8.08328V8.08894V8.0946V8.10026V8.10591V8.11155V8.11719V8.12283V8.12846V8.13408V8.13971V8.14533V8.15094V8.15655V8.16215V8.16775V8.17335V8.17894V8.18452V8.1901V8.19568V8.20125V8.20682V8.21238V8.21794V8.22349V8.22904V8.23458V8.24012V8.24566V8.25118V8.25671V8.26223V8.26774V8.27325V8.27875V8.28425V8.28975V8.29524V8.30072V8.3062V8.31167V8.31714V8.3226V8.32806V8.33352V8.33896V8.34441V8.34984V8.35528V8.3607V8.36613V8.37154V8.37696V8.38236V8.38776V8.39316V8.39855V8.40393V8.40931V8.41469V8.42005V8.42542V8.43077V8.43613V8.44147V8.44681V8.45215V8.45748V8.4628V8.46812V8.47343V8.47874V8.48404V8.48934V8.49463V8.49991V8.50519V8.51046V8.51573V8.52099V8.52625V8.5315V8.53674V8.54198V8.54721V8.55244V8.55766V8.56287V8.56808V8.57328V8.57848V8.58367V8.58885V8.59403V8.59921V8.60437V8.60953V8.61468V8.61983V8.62497V8.63011V8.63524V8.64036V8.64548V8.65059V8.65569V8.66079V8.66588V8.67097V8.67604V8.68112V8.68618V8.69124V8.6963V8.70134V8.70638V8.71142V8.71644V8.72146V8.72648V8.73149V8.73649V8.74148V8.74647V8.75145V8.75642V8.76139V8.76635V8.77131V8.77626V8.7812V8.78613V8.79106V8.79598V8.80089V8.8058V8.8107V8.81559V8.82048V8.82536V8.83023V8.8351V8.83995V8.84481V8.84965V8.85449V8.85932V8.86414V8.86896V8.87377V8.87857V8.88336V8.88815V8.89293V8.89771V8.90247V8.90723V8.91198V8.91673V8.92146V8.92619V8.93092V8.93563V8.94034V8.94504V8.94973V8.95442V8.9591V8.96377V8.96843V8.97309V8.97773V8.98237V8.98701V8.99163V8.99625V9.00086V9.00547V9.01006V9.01465V9.01923V9.0238V9.02836V9.03292V9.03747V9.04201V9.04654V9.05107V9.05559V9.0601V9.0646V9.06909V9.07358V9.07806V9.08253V9.08699V9.09144V9.09589V9.10033V9.10476V9.10918V9.1136V9.118V9.1224V9.12679V9.13117V9.13555V9.13991V9.14427V9.14862V9.15296V9.15729V9.16162V9.16593V9.17024V9.17454V9.17883V9.18311V9.18739V9.19165V9.19591V9.20016V9.2044V9.20863V9.21286V9.21707V9.22128V9.22548V9.22967V9.23385V9.23802V9.24218V9.24634V9.25048V9.25462V9.25875V9.26287V9.26698V9.27108V9.27518V9.27926V9.28334V9.28741V9.29147V9.29552V9.29956V9.30359V9.30761V9.31163V9.31563V9.31963V9.32361V9.32759V9.33156V9.33552V9.33947V9.34342V9.34735V9.35127V9.35519V9.35909V9.36299V9.36687V9.37075V9.37462V9.37848V9.38233V9.38617V9.39V9.39383V9.39764V9.40144V9.40524V9.40902V9.4128V9.41656C5.06563 10.3203 4.79506 11.1881 4.53531 11.8167C4.46673 11.9827 4.39814 12.1338 4.33419 12.2666Z" fill="#53565A"/>
</svg>
