<svg width="24" height="24" viewBox="0 0 24 24" fill="none" xmlns="http://www.w3.org/2000/svg">
<path fill-rule="evenodd" clip-rule="evenodd" d="M8.1636 6.07239H8.1626H8.15768H8.15275H8.14781H8.14287H8.1379H8.13293H8.12795H8.12295H8.11795H8.11293H8.10791H8.10287H8.09782H8.09276H8.08769H8.08261H8.07752H8.07242H8.06731H8.06219H8.05706H8.05192H8.04677H8.04161H8.03644H8.03126H8.02607H8.02087H8.01566H8.01045H8.00522H7.99998H7.99474H7.98948H7.98422H7.97895H7.97367H7.96838H7.96308H7.95778H7.95246H7.94714H7.94181H7.93647H7.93112H7.92576H7.9204H7.91503H7.90965H7.90426H7.89887H7.89346H7.88805H7.88264H7.87721H7.87178H7.86634H7.86089H7.85544H7.84998H7.84451H7.83903H7.83355H7.82806H7.82257H7.81707H7.81156H7.80605H7.80053H7.795H7.78947H7.78393H7.77839H7.77283H7.76728H7.76172H7.75615H7.75058H7.745H7.73941H7.73382H7.72823H7.72263H7.71702H7.71141H7.7058H7.70018H7.69455H7.68892H7.68329H7.67765H7.67201H7.66636H7.66071H7.65505H7.64939H7.64373H7.63806H7.63238H7.62671H7.62103H7.61534H7.60966H7.60396H7.59827H7.59257H7.58687H7.58117H7.57546H7.56975H7.56403H7.55832H7.5526H7.54687H7.54115H7.53542H7.52969H7.52396H7.51822H7.51248H7.50674H7.501H7.49526H7.48951H7.48376H7.47801H7.47226H7.46651H7.46075H7.455H7.44924H7.44348H7.43772H7.43196H7.42619H7.42043H7.41466H7.4089H7.40313H7.39736H7.39159H7.38583H7.38006H7.37429H7.36852H7.36274H7.35697H7.3512H7.34543H7.33966H7.33389H7.32812H7.32235H7.31658H7.31081H7.30504H7.29927H7.2935H7.28773H7.28197H7.2762H7.27044H7.26467H7.25891H7.25315H7.24739H7.24163H7.23587H7.23012H7.22436H7.21861H7.21286H7.20711H7.20136H7.19562H7.18987H7.18413H7.17839H7.17266H7.16692H7.16119H7.15546H7.14973H7.14401H7.13829H7.13257H7.12685H7.12114H7.11543H7.10972H7.10402H7.09832H7.09262H7.08693H7.08124H7.07555H7.06987H7.06419H7.05852H7.05285H7.04718H7.04152H7.03586H7.0302H7.02455H7.01891H7.01326H7.00763H7.00199H6.99637H6.99074H6.98512H6.97951H6.9739H6.9683H6.9627H6.95711H6.95152H6.94594H6.94036H6.93479H6.92923H6.92367H6.91811H6.91256H6.90702H6.90149H6.89596H6.89043H6.88491H6.8794H6.8739H6.8684H6.86291H6.85742H6.85194H6.84647H6.841H6.83555H6.8301H6.82465H6.81921H6.81379H6.80836H6.80295H6.79754H6.79214H6.78675H6.78136H6.77599H6.77062H6.76526H6.7599H6.75456H6.74922H6.7439H6.73857H6.73326H6.72796H6.72267H6.71738H6.7121H6.70683H6.70158H6.69633H6.69108H6.68585H6.68063H6.67541H6.67021H6.66502H6.65983H6.65465H6.64949H6.64433H6.63918H6.63405H6.62892H6.6238H6.6187H6.6136H6.60851H6.60344H6.59837H6.59332H6.58827H6.58324H6.57822H6.57321H6.5682H6.56321H6.55824H6.55327H6.54831H6.54337H6.53843H6.53351H6.5286H6.5237H6.51881H6.51393H6.50907H6.50422H6.49938H6.49455H6.48973H6.48493H6.48014H6.47536H6.47059H6.46584H6.4611H6.45637H6.45165H6.44695H6.44226H6.43758H6.43292H6.42827H6.42363H6.419H6.41439H6.4098H6.40521H6.40064H6.39609H6.39154H6.38701H6.3825H6.378H6.37351H6.36904H6.36458H6.36014H6.35571H6.35129H6.34689H6.3425H6.33813H6.33378H6.32943H6.32511H6.3208H6.3165H6.31222H6.30795H6.3037H6.29947H6.29525H6.29104H6.28685H6.28268H6.27852H6.27438H6.27026H6.26615H6.26205H6.25798H6.25392H6.24987H6.24584H6.24183H6.23784H6.23386H6.2299H6.22595H6.22203H6.21812H6.21422H6.21035H6.20649H6.20264H6.19882H6.19501H6.19122H6.18745H6.1837H6.17996H6.17624H6.17254H6.16886H6.16519H6.16155H6.15792H6.15431H6.15072H6.14714H6.14359H6.14005H6.13653H6.13303H6.12955H6.12609H6.12265H6.11923H6.11583H6.11244H6.10908H6.10573H6.1024H6.0991H6.09581H6.09254H6.08929H6.08607H6.08286H6.07967H6.0765H6.07335H6.07023H6.06712H6.06403H6.06097H6.05792H6.0549H6.05189H6.04891H6.04595H6.043H6.04008H6.03718H6.03431H6.03145H6.02861H6.0258H6.02301H6.02023H6.01748H6.01476H6.01205H6.00937H6.0067H6.00406H6.00144H5.99885H5.99627H5.99372C5.56698 6.07239 5.15936 6.27655 4.86624 6.55741C4.56973 6.84154 4.33707 7.25553 4.33707 7.73434C4.33707 8.57538 4.95145 9.49264 6.05327 9.49264C6.32941 9.49264 6.55327 9.26879 6.55327 8.99264C6.55327 8.7165 6.32941 8.49264 6.05327 8.49264C5.61937 8.49264 5.33707 8.1463 5.33707 7.73434C5.33707 7.58664 5.41177 7.41966 5.55811 7.27944C5.70784 7.13596 5.87854 7.07239 5.99372 7.07239H5.99627H5.99885H6.00144H6.00406H6.0067H6.00937H6.01205H6.01476H6.01748H6.02023H6.02301H6.0258H6.02861H6.03145H6.03431H6.03718H6.04008H6.043H6.04595H6.04891H6.05189H6.0549H6.05792H6.06097H6.06403H6.06712H6.07023H6.07335H6.0765H6.07967H6.08286H6.08607H6.08929H6.09254H6.09581H6.0991H6.1024H6.10573H6.10908H6.11244H6.11583H6.11923H6.12265H6.12609H6.12955H6.13303H6.13653H6.14005H6.14359H6.14714H6.15072H6.15431H6.15792H6.16155H6.16519H6.16886H6.17254H6.17624H6.17996H6.1837H6.18745H6.19122H6.19501H6.19882H6.20264H6.20649H6.21035H6.21422H6.21812H6.22203H6.22595H6.2299H6.23386H6.23784H6.24183H6.24584H6.24987H6.25392H6.25798H6.26205H6.26615H6.27026H6.27438H6.27852H6.28268H6.28685H6.29104H6.29525H6.29947H6.3037H6.30795H6.31222H6.3165H6.3208H6.32511H6.32943H6.33378H6.33813H6.3425H6.34689H6.35129H6.35571H6.36014H6.36458H6.36904H6.37351H6.378H6.3825H6.38701H6.39154H6.39609H6.40064H6.40521H6.4098H6.41439H6.419H6.42363H6.42827H6.43292H6.43758H6.44226H6.44695H6.45165H6.45637H6.4611H6.46584H6.47059H6.47536H6.48014H6.48493H6.48973H6.49455H6.49938H6.50422H6.50907H6.51393H6.51881H6.5237H6.5286H6.53351H6.53843H6.54337H6.54831H6.55327H6.55824H6.56321H6.5682H6.57321H6.57822H6.58324H6.58827H6.59332H6.59837H6.60344H6.60851H6.6136H6.6187H6.6238H6.62892H6.63405H6.63918H6.64433H6.64949H6.65465H6.65983H6.66502H6.67021H6.67541H6.68063H6.68585H6.69108H6.69633H6.70158H6.70683H6.7121H6.71738H6.72267H6.72796H6.73326H6.73857H6.7439H6.74922H6.75456H6.7599H6.76526H6.77062H6.77599H6.78136H6.78675H6.79214H6.79754H6.80295H6.80836H6.81379H6.81921H6.82465H6.8301H6.83555H6.841H6.84647H6.85194H6.85742H6.86291H6.8684H6.8739H6.8794H6.88491H6.89043H6.89596H6.90149H6.90702H6.91256H6.91811H6.92367H6.92923H6.93479H6.94036H6.94594H6.95152H6.95711H6.9627H6.9683H6.9739H6.97951H6.98512H6.99074H6.99637H7.00199H7.00763H7.01326H7.01891H7.02455H7.0302H7.03586H7.04152H7.04718H7.05285H7.05852H7.06419H7.06987H7.07555H7.08124H7.08693H7.09262H7.09832H7.10402H7.10972H7.11543H7.12114H7.12685H7.13257H7.13829H7.14401H7.14973H7.15546H7.16119H7.16692H7.17266H7.17839H7.18413H7.18987H7.19562H7.20136H7.20711H7.21286H7.21861H7.22436H7.23012H7.23587H7.24163H7.24739H7.25315H7.25891H7.26467H7.27044H7.2762H7.28197H7.28773H7.2935H7.29927H7.30504H7.31081H7.31658H7.32235H7.32812H7.33389H7.33966H7.34543H7.3512H7.35697H7.36274H7.36852H7.37429H7.38006H7.38583H7.39159H7.39736H7.40313H7.4089H7.41466H7.42043H7.42619H7.43196H7.43772H7.44348H7.44924H7.455H7.46075H7.46651H7.47226H7.47801H7.48376H7.48951H7.49526H7.501H7.50674H7.51248H7.5157L7.05642 8.71101C6.81316 8.74604 6.62688 8.95603 6.62833 9.20873C6.62921 9.36277 6.69965 9.50014 6.80971 9.59123L6.67097 10.0862C6.48392 10.0601 6.29282 10.0465 6.09856 10.0465C3.83607 10.0465 2.00195 11.8807 2.00195 14.1432C2.00195 16.4057 3.83607 18.2398 6.09856 18.2398C8.36106 18.2398 10.1952 16.4057 10.1952 14.1432C10.1952 12.4247 9.13712 10.9534 7.63692 10.3452L7.81722 9.70195L7.98847 9.70097L10.8598 13.2752C10.7035 13.5212 10.6129 13.8131 10.6129 14.1262C10.6129 14.517 10.754 14.8749 10.9881 15.1516L10.8792 15.3292C10.7349 15.5646 10.8087 15.8725 11.0441 16.0168C11.2795 16.1612 11.5874 16.0873 11.7317 15.8519L11.8409 15.6738C11.9568 15.7008 12.0776 15.715 12.2017 15.715C12.8969 15.715 13.4878 15.2685 13.7033 14.6467H13.8363C14.0845 16.6716 15.8103 18.2398 17.9023 18.2398C20.1648 18.2398 21.9989 16.4057 21.9989 14.1432C21.9989 11.8807 20.1648 10.0465 17.9023 10.0465C17.4224 10.0465 16.9618 10.1291 16.5339 10.2807L15.9648 9.15026L16.9011 7.66402H17.801C18.0772 7.66402 18.301 7.44016 18.301 7.16402C18.301 6.88788 18.0772 6.66402 17.801 6.66402H15.2521C14.976 6.66402 14.7521 6.88788 14.7521 7.16402C14.7521 7.44016 14.976 7.66402 15.2521 7.66402H15.7192L15.0915 8.66034L8.09795 8.70032L8.55532 7.06852C8.80195 7.03775 8.99279 6.82736 8.99279 6.57239C8.99279 6.29625 8.76893 6.07239 8.49279 6.07239H8.48896H8.48511H8.48124H8.47736H8.47346H8.46954H8.46561H8.46166H8.45769H8.45371H8.44971H8.44569H8.44165H8.4376H8.43354H8.42945H8.42535H8.42124H8.41711H8.41296H8.4088H8.40462H8.40042H8.39621H8.39199H8.38775H8.38349H8.37922H8.37493H8.37063H8.36631H8.36198H8.35763H8.35327H8.34889H8.3445H8.34009H8.33567H8.33124H8.32679H8.32232H8.31785H8.31335H8.30885H8.30433H8.29979H8.29524H8.29068H8.28611H8.28152H8.27691H8.2723H8.26767H8.26303H8.25837H8.2537H8.24902H8.24432H8.23962H8.23489H8.23016H8.22541H8.22066H8.21588H8.2111H8.2063H8.2015H8.19668H8.19184H8.187H8.18609C8.17857 6.07222 8.17107 6.07222 8.1636 6.07239ZM13.7169 13.6467H13.8355C13.9826 12.4285 14.6645 11.375 15.6394 10.7277L15.3425 10.138L13.4495 13.1425C13.567 13.2913 13.6584 13.4617 13.7169 13.6467ZM12.4932 13.6144C12.508 13.6263 12.5237 13.6375 12.5401 13.6479C12.5481 13.6529 12.5561 13.6576 12.5643 13.6622C12.702 13.7699 12.7906 13.9377 12.7906 14.1262C12.7906 14.3557 12.6592 14.5545 12.4676 14.6517L12.6162 14.4093C12.7606 14.1739 12.6868 13.866 12.4513 13.7217C12.2159 13.5774 11.9081 13.6512 11.7637 13.8866L11.6129 14.1325C11.6129 14.1304 11.6129 14.1283 11.6129 14.1262C11.6129 13.9673 11.6759 13.8231 11.7782 13.7171C11.7952 13.7065 11.8119 13.6948 11.8279 13.6819C11.8473 13.6663 11.8653 13.6496 11.8817 13.6318C11.9738 13.5721 12.0837 13.5373 12.2017 13.5373C12.3078 13.5373 12.4073 13.5654 12.4932 13.6144ZM12.6147 12.5915L14.4592 9.66398L9.26533 9.69367L11.6338 12.6419C11.8101 12.5743 12.0016 12.5373 12.2017 12.5373C12.3446 12.5373 12.483 12.5562 12.6147 12.5915ZM6.09856 11.0465C6.19951 11.0465 6.29933 11.0514 6.39781 11.0608L5.57175 14.008C5.49723 14.2739 5.65236 14.5499 5.91826 14.6244C6.18415 14.6989 6.46012 14.5438 6.53465 14.2779L7.36471 11.3164C8.44367 11.8004 9.19518 12.884 9.19518 14.1432C9.19518 15.8534 7.80878 17.2398 6.09856 17.2398C4.38835 17.2398 3.00195 15.8534 3.00195 14.1432C3.00195 12.4329 4.38835 11.0465 6.09856 11.0465ZM14.8453 13.6467C14.9788 12.8184 15.4408 12.1 16.0934 11.6295L17.1091 13.6467H14.8453ZM17.9023 17.2398C16.3635 17.2398 15.0869 16.1174 14.8464 14.6467H17.9206C18.0942 14.6467 18.2553 14.5567 18.3463 14.409C18.4374 14.2612 18.4453 14.0768 18.3672 13.9218L16.9885 11.1836C17.2774 11.0945 17.5842 11.0465 17.9023 11.0465C19.6125 11.0465 20.9989 12.4329 20.9989 14.1432C20.9989 15.8534 19.6125 17.2398 17.9023 17.2398Z" fill="#53565A"/>
</svg>
