<svg width="33" height="33" viewBox="0 0 33 33" fill="none" xmlns="http://www.w3.org/2000/svg">
<path fill-rule="evenodd" clip-rule="evenodd" d="M4.6722 5.50195C4.39606 5.50195 4.1722 5.72581 4.1722 6.00195V18.002C4.1722 18.2781 4.39606 18.502 4.6722 18.502H28.6722C28.9483 18.502 29.1722 18.2781 29.1722 18.002V6.00195C29.1722 5.72581 28.9483 5.50195 28.6722 5.50195H4.6722ZM5.1722 17.502V6.50195H28.1722V17.502H5.1722ZM3.33887 20.1686C3.06272 20.1686 2.83887 20.3925 2.83887 20.6686C2.83887 20.9448 3.06272 21.1686 3.33887 21.1686H28.6722C28.9483 21.1686 29.1722 20.9448 29.1722 20.6686C29.1722 20.3925 28.9483 20.1686 28.6722 20.1686H3.33887ZM14.6722 23.8353C13.4756 23.8353 12.5055 24.8053 12.5055 26.002C12.5055 27.1986 13.4756 28.1686 14.6722 28.1686C15.8688 28.1686 16.8389 27.1986 16.8389 26.002C16.8389 24.8053 15.8688 23.8353 14.6722 23.8353ZM11.5055 26.002C11.5055 24.2531 12.9233 22.8353 14.6722 22.8353C16.4211 22.8353 17.8389 24.2531 17.8389 26.002C17.8389 27.7509 16.4211 29.1686 14.6722 29.1686C12.9233 29.1686 11.5055 27.7509 11.5055 26.002ZM22.6722 23.8353C21.4756 23.8353 20.5055 24.8053 20.5055 26.002C20.5055 27.1986 21.4756 28.1686 22.6722 28.1686C23.8688 28.1686 24.8389 27.1986 24.8389 26.002C24.8389 24.8053 23.8688 23.8353 22.6722 23.8353ZM19.5055 26.002C19.5055 24.2531 20.9233 22.8353 22.6722 22.8353C24.4211 22.8353 25.8389 24.2531 25.8389 26.002C25.8389 27.7509 24.4211 29.1686 22.6722 29.1686C20.9233 29.1686 19.5055 27.7509 19.5055 26.002ZM5.50553 23.3353V21.3353H6.50553V23.3353C6.50553 23.6114 6.28168 23.8353 6.00553 23.8353C5.72939 23.8353 5.50553 23.6114 5.50553 23.3353Z" fill="#141414"/>
</svg>
