<svg width="32" height="33" viewBox="0 0 32 33" fill="none" xmlns="http://www.w3.org/2000/svg">
<path fill-rule="evenodd" clip-rule="evenodd" d="M8 3.83154C6.61929 3.83154 5.5 4.95083 5.5 6.33155V25.6649V26.3315V27.6649C5.5 29.0456 6.61929 30.1649 8 30.1649H26C26.2761 30.1649 26.5 29.941 26.5 29.6649V24.3315V4.33154C26.5 4.0554 26.2761 3.83154 26 3.83154H8ZM25.5 23.8315V4.83154H9.83333V23.8315H25.5ZM8.83333 23.8315V4.83154H8C7.17157 4.83154 6.5 5.50312 6.5 6.33155V24.3314C6.91783 24.0175 7.4372 23.8315 8 23.8315H8.83333ZM6.5 26.3315V27.6649C6.5 28.4933 7.17157 29.1649 8 29.1649H25.5V24.8315H8C7.17157 24.8315 6.5 25.5031 6.5 26.3315ZM11.3333 8.99821C11.3333 8.63002 11.6318 8.33154 12 8.33154H22.6667C23.0349 8.33154 23.3333 8.63002 23.3333 8.99821V10.3315C23.3333 10.6997 23.0349 10.9982 22.6667 10.9982H12C11.6318 10.9982 11.3333 10.6997 11.3333 10.3315V8.99821Z" fill="#141414"/>
</svg>
