<svg width="24" height="24" viewBox="0 0 24 24" fill="none" xmlns="http://www.w3.org/2000/svg">
<path fill-rule="evenodd" clip-rule="evenodd" d="M7 3.5C7 3.22386 7.22386 3 7.5 3H16.5C16.7761 3 17 3.22386 17 3.5V9.48333C17 9.75947 16.7761 9.98333 16.5 9.98333C16.2239 9.98333 16 9.75947 16 9.48333V4H8V9.48333C8 9.75947 7.77614 9.98333 7.5 9.98333C7.22386 9.98333 7 9.75947 7 9.48333V3.5ZM3.5 11C3.22386 11 3 11.2239 3 11.5V20.5C3 20.7761 3.22386 21 3.5 21H9.53338C9.80952 21 10.0334 20.7761 10.0334 20.5C10.0334 20.2239 9.80952 20 9.53338 20H4V12H9.53338C9.80952 12 10.0334 11.7761 10.0334 11.5C10.0334 11.2239 9.80952 11 9.53338 11H3.5ZM6 14.5C6 14.2239 6.22386 14 6.5 14H9.5C9.77614 14 10 14.2239 10 14.5C10 14.7761 9.77614 15 9.5 15H6.5C6.22386 15 6 14.7761 6 14.5ZM11.1464 11.1464C11.2402 11.0527 11.3674 11 11.5 11H20.5C20.7761 11 21 11.2239 21 11.5V20.5C21 20.7761 20.7761 21 20.5 21H11.5C11.2239 21 11 20.7761 11 20.5V11.5C11 11.3674 11.0527 11.2402 11.1464 11.1464ZM12 12V20H20V12H12ZM14 14.5C14 14.2239 14.2239 14 14.5 14H17.5C17.7761 14 18 14.2239 18 14.5C18 14.7761 17.7761 15 17.5 15H14.5C14.2239 15 14 14.7761 14 14.5ZM10.5 6C10.2239 6 10 6.22386 10 6.5C10 6.77614 10.2239 7 10.5 7H13.5C13.7761 7 14 6.77614 14 6.5C14 6.22386 13.7761 6 13.5 6H10.5Z" fill="#141414"/>
</svg>
