<svg width="21" height="16" viewBox="0 0 21 16" fill="none" xmlns="http://www.w3.org/2000/svg">
<path fill-rule="evenodd" clip-rule="evenodd" d="M13.7886 0.269948H6.8819C6.33386 0.260946 5.79326 0.397989 5.31566 0.66704C4.83669 0.936856 4.43844 1.32965 4.16205 1.80485L4.16129 1.80615L2.96719 3.87339L2.82681 3.31187C2.75984 3.04398 2.48837 2.8811 2.22047 2.94807L0.698068 3.32867C0.475485 3.38432 0.319336 3.58431 0.319336 3.81374V4.57495C0.319336 4.81329 0.487566 5.01849 0.721278 5.06524L2.11745 5.34447L1.52934 6.36263C1.23528 6.85836 1.08013 7.42415 1.08022 8.00058V8.00067V12.9479C1.08022 12.9568 1.08046 12.9657 1.08093 12.9746V14.8464C1.07937 14.9619 1.10077 15.0767 1.1439 15.1839C1.18781 15.2931 1.25333 15.3923 1.33654 15.4755C1.41975 15.5587 1.51892 15.6242 1.62809 15.6681C1.73533 15.7112 1.85006 15.7326 1.9656 15.7311H3.87976V15.7312L3.88985 15.731C4.00451 15.7287 4.11758 15.7038 4.22261 15.6577C4.32764 15.6117 4.42257 15.5455 4.50199 15.4627C4.5814 15.38 4.64374 15.2825 4.68544 15.1756C4.72639 15.0707 4.74665 14.9589 4.74513 14.8464V13.4479H15.9219V14.8505H15.9218L15.922 14.8606C15.9266 15.086 16.0181 15.3008 16.1775 15.4602C16.3369 15.6196 16.5518 15.7112 16.7772 15.7157L16.7772 15.7158H16.7873H18.7014C18.814 15.7174 18.9258 15.6971 19.0307 15.6562C19.1375 15.6145 19.2351 15.5521 19.3178 15.4727C19.4005 15.3933 19.4668 15.2984 19.5128 15.1933C19.5588 15.0883 19.5837 14.9752 19.586 14.8606L19.5861 14.8606V14.8505V12.9475L19.586 12.9348V8.00067V8.00058C19.5861 7.42343 19.4305 6.85695 19.1357 6.36077L19.1352 6.35982L18.539 5.34649L19.9453 5.06524C20.179 5.01849 20.3472 4.81329 20.3472 4.57495V3.81374C20.3472 3.58431 20.1911 3.38432 19.9685 3.32867L18.4461 2.94807C18.1782 2.8811 17.9067 3.04398 17.8397 3.31187L17.6913 3.90564L16.45 1.79569L16.4498 1.79546C16.1777 1.33146 15.789 0.946616 15.3223 0.67904C14.8556 0.41142 14.327 0.270399 13.789 0.269948H13.7886ZM16.4219 12.4475L16.4291 12.4475L16.4417 12.4479H18.586V8.00058V8.00049C18.586 7.60288 18.4788 7.21263 18.2756 6.87087L18.2745 6.86888L15.5877 2.30217L15.5873 2.30157C15.4033 1.98777 15.1405 1.7275 14.8249 1.54655C14.5094 1.36564 14.1521 1.27029 13.7884 1.26995H6.87761H6.86864L6.86864 1.26987C6.497 1.2632 6.13032 1.35587 5.80647 1.5383C5.48281 1.72063 5.21367 1.986 5.0268 2.30705L5.02646 2.30763L2.39374 6.86543L2.39059 6.87089L2.39056 6.87087C2.18736 7.21263 2.08015 7.60288 2.08022 8.00049V8.00058V12.4479H4.2253C4.23188 12.4476 4.23849 12.4475 4.24513 12.4475C4.25178 12.4475 4.25839 12.4476 4.26497 12.4479H16.4021C16.4087 12.4476 16.4153 12.4475 16.4219 12.4475ZM16.9219 14.7158V13.4479H18.5861V14.7158H16.9219ZM3.74513 13.4479V14.7311H2.08093V13.4479H3.74513ZM18.6886 4.03948L19.2604 4.18242L18.6209 4.31031L18.6886 4.03948ZM1.4062 4.18242L2.04564 4.31031L1.97794 4.03948L1.4062 4.18242ZM6.90791 7.50062C6.63177 7.50062 6.40791 7.72447 6.40791 8.00062L6.40791 9.30989L6.40792 9.31233C6.40932 9.59859 6.51563 9.8744 6.70672 10.0875C6.89782 10.3007 7.16043 10.4364 7.44484 10.4689L7.44644 10.4691L9.09063 10.6518L9.09311 10.652C9.91761 10.7395 10.749 10.7395 11.5735 10.652L11.576 10.6518L13.2202 10.4691L13.2218 10.4689C13.5062 10.4364 13.7688 10.3007 13.9599 10.0875C14.151 9.8744 14.2573 9.59859 14.2587 9.31233V9.30989V8.00062C14.2587 7.72447 14.0349 7.50062 13.7587 7.50062H6.90791ZM7.40791 9.30826V8.50062H13.2587V9.30828C13.2583 9.34955 13.2429 9.38926 13.2154 9.42C13.1877 9.45081 13.1498 9.47048 13.1087 9.47531L13.1082 9.47537L11.4681 9.65761L11.4668 9.65774C10.7133 9.73758 9.95338 9.73758 9.19983 9.65774L7.55846 9.47537L7.55793 9.47531C7.51684 9.47048 7.47892 9.45081 7.45129 9.42C7.42373 9.38925 7.40831 9.34953 7.40791 9.30826ZM17.5642 7.12024C17.8403 7.12024 18.0642 7.3441 18.0642 7.62024V8.37448V8.38856V9.14265C18.0642 9.41879 17.8403 9.64265 17.5642 9.64265C17.288 9.64265 17.0642 9.41879 17.0642 9.14265V8.99088L15.7592 9.25188C15.4884 9.30604 15.225 9.13043 15.1708 8.85965C15.1167 8.58887 15.2923 8.32546 15.563 8.2713L17.0642 7.97108V7.62024C17.0642 7.3441 17.288 7.12024 17.5642 7.12024ZM3.60246 7.62024C3.60246 7.3441 3.37861 7.12024 3.10246 7.12024C2.82632 7.12024 2.60246 7.3441 2.60246 7.62024V8.37173C2.60234 8.37827 2.60234 8.38481 2.60246 8.39132V9.14265C2.60246 9.41879 2.82632 9.64265 3.10246 9.64265C3.37861 9.64265 3.60246 9.41879 3.60246 9.14265V8.99089L4.90741 9.25188C5.17819 9.30604 5.44161 9.13043 5.49576 8.85965C5.54992 8.58887 5.37431 8.32546 5.10353 8.2713L3.60246 7.97109V7.62024Z" fill=""/>
</svg>
