<svg width="16" height="16" viewBox="0 0 16 16" fill="none" xmlns="http://www.w3.org/2000/svg">
<path fill-rule="evenodd" clip-rule="evenodd" d="M11.4624 3.6196C11.325 3.50723 11.1299 3.49893 10.9834 3.5992C10.724 3.7767 10.2486 4.05253 9.69366 4.28266C9.13436 4.51463 8.52825 4.68587 7.99717 4.68587C7.46619 4.68587 6.86162 4.5147 6.30391 4.28283C5.75062 4.05279 5.27651 3.77699 5.01681 3.59926C4.8703 3.499 4.67523 3.5073 4.53777 3.61964L4.52217 3.6324C4.38694 3.74295 4.26038 3.84683 4.14143 3.94446C3.5039 4.46775 3.08478 4.81176 2.719 5.04459C2.31334 5.30281 1.9933 5.41034 1.52133 5.44343C1.30095 5.45888 1.13483 5.65006 1.15028 5.87043C1.16573 6.0908 1.35691 6.25692 1.57728 6.24147C1.99258 6.21236 2.33301 6.13248 2.67083 5.98065V8.04961H1.49961C1.2787 8.04961 1.09961 8.22869 1.09961 8.44961C1.09961 8.67052 1.2787 8.84961 1.49961 8.84961H3.07083H4.37535V10.1732C4.37535 10.3941 4.55443 10.5732 4.77535 10.5732C4.99626 10.5732 5.17535 10.3941 5.17535 10.1732V8.84961H6.84055H7.99717H7.99719L9.15962 8.84954H9.15964H10.8248V10.1732C10.8248 10.3941 11.0039 10.5732 11.2248 10.5732C11.4457 10.5732 11.6248 10.3941 11.6248 10.1732V8.84954H12.9293H14.5006C14.7215 8.84954 14.9006 8.67046 14.9006 8.44954C14.9006 8.22863 14.7215 8.04954 14.5006 8.04954H13.3293V5.98059C13.6672 6.13242 14.0076 6.21229 14.4229 6.24141C14.6433 6.25686 14.8344 6.09074 14.8499 5.87037C14.8653 5.64999 14.6992 5.45882 14.4788 5.44337C14.0069 5.41028 13.6868 5.30274 13.2812 5.04453C12.9154 4.8117 12.4963 4.46769 11.8587 3.94441L11.8587 3.94437C11.7398 3.84674 11.6132 3.74288 11.478 3.63233L11.478 3.63231L11.4624 3.6196ZM3.47083 8.04961V5.49886C3.73498 5.30709 4.02856 5.07117 4.37535 4.78744V8.04961H3.47083ZM5.17535 8.04961V4.62819C5.41783 4.75996 5.69712 4.89694 5.99679 5.02153C6.13891 5.08062 6.28749 5.13771 6.44055 5.19046V8.04961H5.17535ZM7.24055 8.04961V5.40829C7.49249 5.45708 7.74717 5.48587 7.99717 5.48587C8.24892 5.48587 8.50562 5.45667 8.75962 5.40725V8.04957L7.99717 8.04961H7.99715H7.24055ZM9.55962 8.04954V5.18909C9.7115 5.13675 9.859 5.08017 10.0001 5.02163C10.301 4.89686 10.5814 4.75964 10.8248 4.62763V8.04954H9.55962ZM11.6248 8.04954V4.78737C11.9716 5.07111 12.2652 5.30703 12.5293 5.4988V8.04954H11.6248ZM4.11138 11.2603C4.04275 11.1358 3.91319 11.0571 3.77107 11.0535C3.62895 11.05 3.49562 11.1221 3.42086 11.243C3.23919 11.5368 3.00223 11.6646 2.69805 11.6646C2.47714 11.6646 2.29805 11.8436 2.29805 12.0646C2.29805 12.2855 2.47714 12.4646 2.69805 12.4646C3.11312 12.4646 3.47578 12.3268 3.76571 12.0684C4.01203 12.2791 4.36676 12.4653 4.82278 12.4653C5.27922 12.4653 5.63256 12.2788 5.87723 12.0675C6.12319 12.2792 6.47894 12.4653 6.93965 12.4653C7.39989 12.4653 7.75521 12.2795 8.00097 12.0681C8.24588 12.2794 8.60027 12.4653 9.06071 12.4653C9.52142 12.4653 9.87717 12.2792 10.1231 12.0675C10.3678 12.2788 10.7211 12.4653 11.1776 12.4653C11.6336 12.4653 11.9883 12.2791 12.2347 12.0684C12.5246 12.3268 12.8872 12.4646 13.3023 12.4646C13.5232 12.4646 13.7023 12.2855 13.7023 12.0646C13.7023 11.8436 13.5232 11.6646 13.3023 11.6646C12.9981 11.6646 12.7612 11.5368 12.5795 11.243C12.5047 11.1221 12.3714 11.05 12.2293 11.0535C12.0872 11.0571 11.9576 11.1358 11.889 11.2603C11.8195 11.3863 11.5622 11.6653 11.1776 11.6653C10.7941 11.6653 10.5424 11.3878 10.4754 11.2636C10.4055 11.1339 10.27 11.0532 10.1228 11.0534C9.97553 11.0536 9.84028 11.1346 9.77073 11.2644C9.70576 11.3857 9.4542 11.6653 9.06071 11.6653C8.66823 11.6653 8.41942 11.3868 8.35418 11.2648C8.2846 11.1346 8.149 11.0534 8.00142 11.0534C7.85384 11.0534 7.71825 11.1346 7.64867 11.2648C7.58397 11.3858 7.33301 11.6653 6.93965 11.6653C6.54616 11.6653 6.2946 11.3857 6.22964 11.2644C6.16008 11.1346 6.02483 11.0536 5.87758 11.0534C5.73032 11.0532 5.59487 11.1339 5.52499 11.2636C5.458 11.3878 5.20622 11.6653 4.82278 11.6653C4.43813 11.6653 4.18088 11.3863 4.11138 11.2603Z" fill="#53565A"/>
</svg>
