<svg width="21" height="16" viewBox="0 0 21 16" fill="none" xmlns="http://www.w3.org/2000/svg">
<path fill-rule="evenodd" clip-rule="evenodd" d="M13.5942 0.269948H6.68756C6.13952 0.260946 5.59893 0.397989 5.12132 0.66704C4.64236 0.936856 4.24411 1.32965 3.96771 1.80485L3.96696 1.80615L2.77286 3.87339L2.63248 3.31187C2.5655 3.04398 2.29403 2.8811 2.02614 2.94807L0.503732 3.32867C0.281149 3.38432 0.125 3.58431 0.125 3.81374V4.57495C0.125 4.81329 0.29323 5.01849 0.526942 5.06524L1.92312 5.34447L1.335 6.36263C1.04094 6.85836 0.885797 7.42415 0.885887 8.00058V8.00067V12.9479C0.885887 12.9568 0.886123 12.9657 0.88659 12.9746V14.8464C0.885033 14.9619 0.906429 15.0767 0.949561 15.1839C0.99347 15.2931 1.059 15.3923 1.1422 15.4755C1.22541 15.5587 1.32458 15.6242 1.43376 15.6681C1.541 15.7112 1.65572 15.7326 1.77127 15.7311H3.68542V15.7312L3.69552 15.731C3.81017 15.7287 3.92324 15.7038 4.02827 15.6577C4.1333 15.6117 4.22824 15.5455 4.30765 15.4627C4.38706 15.38 4.4494 15.2825 4.49111 15.1756C4.53205 15.0707 4.55231 14.9589 4.5508 14.8464V13.4479H15.7276V14.8505H15.7275L15.7277 14.8606C15.7322 15.086 15.8238 15.3008 15.9832 15.4602C16.1426 15.6196 16.3575 15.7112 16.5828 15.7157L16.5828 15.7158H16.593H18.5071C18.6196 15.7174 18.7314 15.6971 18.8363 15.6562C18.9432 15.6145 19.0407 15.5521 19.1234 15.4727C19.2062 15.3933 19.2724 15.2984 19.3185 15.1933C19.3645 15.0883 19.3894 14.9752 19.3917 14.8606L19.3918 14.8606V14.8505V12.9475L19.3916 12.9348V8.00067V8.00058C19.3917 7.42343 19.2362 6.85695 18.9414 6.36077L18.9408 6.35982L18.3447 5.34649L19.7509 5.06524C19.9847 5.01849 20.1529 4.81329 20.1529 4.57495V3.81374C20.1529 3.58431 19.9967 3.38432 19.7742 3.32867L18.2517 2.94807C17.9839 2.8811 17.7124 3.04398 17.6454 3.31187L17.497 3.90564L16.2556 1.79569L16.2555 1.79546C15.9833 1.33146 15.5946 0.946616 15.128 0.67904C14.6612 0.41142 14.1327 0.270399 13.5947 0.269948H13.5942ZM16.2276 12.4475L16.2348 12.4475L16.2474 12.4479H18.3916V8.00058V8.00049C18.3917 7.60288 18.2845 7.21263 18.0813 6.87087L18.0801 6.86888L15.3934 2.30217L15.393 2.30157C15.209 1.98777 14.9462 1.7275 14.6306 1.54655C14.315 1.36564 13.9577 1.27029 13.594 1.26995H6.68328H6.6743L6.67431 1.26987C6.30267 1.2632 5.93598 1.35587 5.61213 1.5383C5.28848 1.72063 5.01933 1.986 4.83246 2.30705L4.83213 2.30763L2.19941 6.86543L2.19626 6.87089L2.19622 6.87087C1.99303 7.21263 1.88581 7.60288 1.88589 8.00049V8.00058V12.4479H4.03096C4.03754 12.4476 4.04416 12.4475 4.0508 12.4475C4.05744 12.4475 4.06405 12.4476 4.07063 12.4479H16.2077C16.2143 12.4476 16.2209 12.4475 16.2276 12.4475ZM16.7276 14.7158V13.4479H18.3918V14.7158H16.7276ZM3.5508 13.4479V14.7311H1.88659V13.4479H3.5508ZM18.4943 4.03948L19.066 4.18242L18.4266 4.31031L18.4943 4.03948ZM1.21186 4.18242L1.85131 4.31031L1.7836 4.03948L1.21186 4.18242ZM6.71358 7.50062C6.43744 7.50062 6.21358 7.72447 6.21358 8.00062L6.21357 9.30989L6.21358 9.31233C6.21498 9.59859 6.32129 9.8744 6.51239 10.0875C6.70348 10.3007 6.96609 10.4364 7.2505 10.4689L7.2521 10.4691L8.8963 10.6518L8.89877 10.652C9.72327 10.7395 10.5547 10.7395 11.3792 10.652L11.3817 10.6518L13.0259 10.4691L13.0275 10.4689C13.3119 10.4364 13.5745 10.3007 13.7656 10.0875C13.9567 9.8744 14.063 9.59859 14.0644 9.31233V9.30989V8.00062C14.0644 7.72447 13.8405 7.50062 13.5644 7.50062H6.71358ZM7.21358 9.30826V8.50062H13.0644V9.30828C13.064 9.34955 13.0486 9.38926 13.021 9.42C12.9934 9.45081 12.9555 9.47048 12.9144 9.47531L12.9138 9.47537L11.2737 9.65761L11.2725 9.65774C10.5189 9.73758 9.75905 9.73758 9.00549 9.65774L7.36413 9.47537L7.36359 9.47531C7.3225 9.47048 7.28458 9.45081 7.25696 9.42C7.22939 9.38925 7.21398 9.34953 7.21358 9.30826ZM17.3698 7.12024C17.646 7.12024 17.8698 7.3441 17.8698 7.62024V8.37448V8.38856V9.14265C17.8698 9.41879 17.646 9.64265 17.3698 9.64265C17.0937 9.64265 16.8698 9.41879 16.8698 9.14265V8.99088L15.5648 9.25188C15.294 9.30604 15.0306 9.13043 14.9765 8.85965C14.9223 8.58887 15.0979 8.32546 15.3687 8.2713L16.8698 7.97108V7.62024C16.8698 7.3441 17.0937 7.12024 17.3698 7.12024ZM3.40813 7.62024C3.40813 7.3441 3.18427 7.12024 2.90813 7.12024C2.63199 7.12024 2.40813 7.3441 2.40813 7.62024V8.37173C2.408 8.37827 2.408 8.38481 2.40813 8.39132V9.14265C2.40813 9.41879 2.63199 9.64265 2.90813 9.64265C3.18427 9.64265 3.40813 9.41879 3.40813 9.14265V8.99089L4.71308 9.25188C4.98386 9.30604 5.24727 9.13043 5.30142 8.85965C5.35558 8.58887 5.17997 8.32546 4.90919 8.2713L3.40813 7.97109V7.62024Z" fill="#53565A"/>
</svg>
