<svg width="32" height="33" viewBox="0 0 32 33" fill="none" xmlns="http://www.w3.org/2000/svg">
<path fill-rule="evenodd" clip-rule="evenodd" d="M20.5697 5.98688H11.4354C10.7388 5.97521 10.0517 6.14927 9.44471 6.49122C8.83635 6.83393 8.33052 7.33283 7.97946 7.9364L7.9787 7.9377L6.20023 11.0166L5.91813 9.88821C5.85115 9.62031 5.57969 9.45743 5.31179 9.52441L3.29865 10.0277C3.07607 10.0833 2.91992 10.2833 2.91992 10.5128V11.5193C2.91992 11.7577 3.08815 11.9629 3.32186 12.0096L5.38796 12.4228L4.49789 13.9637C4.1235 14.5946 3.92597 15.3146 3.92609 16.0482V16.0483V22.5902C3.92609 22.6004 3.92639 22.6105 3.92699 22.6205V25.1019C3.92508 25.2337 3.94942 25.3646 3.99862 25.4869C4.04858 25.6111 4.12313 25.724 4.21779 25.8186C4.31246 25.9133 4.42529 25.9879 4.5495 26.0378C4.67183 26.087 4.80273 26.1114 4.93454 26.1094H7.46683V26.1095L7.47692 26.1093C7.60737 26.1067 7.73601 26.0784 7.8555 26.026C7.975 25.9737 8.08301 25.8983 8.17336 25.8042C8.26371 25.71 8.33464 25.599 8.38208 25.4775C8.42879 25.3579 8.45184 25.2303 8.44998 25.1019V23.0902H23.5518V25.1062H23.5517L23.5519 25.1163C23.5571 25.3727 23.6613 25.6171 23.8426 25.7985C24.024 25.9799 24.2685 26.084 24.5249 26.0892L24.5249 26.0893H24.535H27.0673C27.1957 26.0912 27.3232 26.0681 27.4429 26.0214C27.5644 25.974 27.6754 25.903 27.7695 25.8127C27.8636 25.7223 27.939 25.6143 27.9914 25.4948C28.0438 25.3753 28.0721 25.2467 28.0747 25.1163L28.0748 25.1163V25.1062V22.5897L28.0746 22.5759V16.0483V16.0482C28.0747 15.3139 27.8768 14.5932 27.5017 13.9619L27.5012 13.961L26.598 12.4259L28.6793 12.0096C28.913 11.9629 29.0813 11.7577 29.0813 11.5193V10.5128C29.0813 10.2833 28.9251 10.0833 28.7025 10.0277L26.6894 9.52441C26.4215 9.45743 26.15 9.62031 26.083 9.88821L25.7914 11.0548L23.9499 7.92479L23.9498 7.92456C23.6041 7.33519 23.1104 6.84636 22.5176 6.50648C21.9248 6.16657 21.2535 5.98745 20.5701 5.98688H20.5697ZM24.066 22.0899L24.0737 22.0902H27.0746V16.0482V16.0481C27.0747 15.4934 26.9251 14.9489 26.6416 14.472L26.6404 14.47L23.0876 8.43127L23.0873 8.43067C22.8297 7.9915 22.4619 7.62724 22.0202 7.374C21.5786 7.12079 21.0785 6.98734 20.5695 6.98688H11.431H11.4221L11.4221 6.9868C10.9019 6.97747 10.3888 7.10716 9.93552 7.36249C9.4825 7.61769 9.10579 7.98914 8.84426 8.43852L8.84387 8.43918L5.36228 14.4666L5.35913 14.472L5.35909 14.472C5.07558 14.9489 4.92599 15.4934 4.92609 16.0481V16.0482V22.0902H7.92808C7.93534 22.0899 7.94264 22.0897 7.94998 22.0897L7.9647 22.0899L7.97188 22.0902H24.0299C24.0372 22.0899 24.0445 22.0897 24.0518 22.0897L24.066 22.0899ZM24.5518 25.0893V23.0902H27.0748V25.0893H27.0715H24.5518ZM7.44998 23.0902V25.1062H7.44987L7.44994 25.1094H4.93028V25.1093L4.92699 25.1094V25.1062V23.0902H7.44998ZM26.9319 10.6158L28.0813 10.9032V11.1094L26.7415 11.3774L26.9319 10.6158ZM3.91992 10.9032V11.1094L5.25964 11.3774L5.06925 10.6158L3.91992 10.9032ZM11.4711 15.5494C11.195 15.5494 10.9711 15.7733 10.9711 16.0494L10.9711 17.7807L10.9711 17.7832C10.9728 18.1223 11.0987 18.449 11.3251 18.7015C11.5514 18.954 11.8625 19.1147 12.1994 19.1532L12.201 19.1534L14.3752 19.395L14.3777 19.3952C15.4566 19.5097 16.5447 19.5097 17.6236 19.3952L17.6261 19.395L19.8003 19.1534L19.8019 19.1532C20.1388 19.1147 20.4499 18.954 20.6762 18.7015C20.9026 18.449 21.0285 18.1223 21.0302 17.7832L21.0302 17.7807V16.0494C21.0302 15.7733 20.8063 15.5494 20.5302 15.5494H11.4711ZM11.9711 17.7793V16.5494H20.0302V17.7792C20.0295 17.8733 19.9945 17.9639 19.9317 18.0339C19.8688 18.1041 19.7825 18.1488 19.6889 18.1596L19.6883 18.1597L17.5182 18.4008L17.517 18.4009C16.5089 18.5078 15.4924 18.5078 14.4843 18.4009L12.313 18.1597L12.3124 18.1596C12.2188 18.1488 12.1325 18.1041 12.0696 18.0339C12.0068 17.9639 11.9718 17.8733 11.9711 17.7793ZM25.5623 15.0453C25.8384 15.0453 26.0623 15.2692 26.0623 15.5453V16.5463V16.5581V17.5585C26.0623 17.8346 25.8384 18.0585 25.5623 18.0585C25.2861 18.0585 25.0623 17.8346 25.0623 17.5585V17.1616L23.1438 17.5452C22.8731 17.5994 22.6096 17.4238 22.5555 17.153C22.5013 16.8822 22.6769 16.6188 22.9477 16.5647L25.0623 16.1418V15.5453C25.0623 15.2692 25.2861 15.0453 25.5623 15.0453ZM6.93902 15.5453C6.93902 15.2692 6.71516 15.0453 6.43902 15.0453C6.16287 15.0453 5.93902 15.2692 5.93902 15.5453V16.5424C5.93889 16.5489 5.93889 16.5555 5.93902 16.562V17.5585C5.93902 17.8346 6.16287 18.0585 6.43902 18.0585C6.71516 18.0585 6.93902 17.8346 6.93902 17.5585V17.1616L8.85738 17.5452C9.12816 17.5994 9.39157 17.4238 9.44573 17.153C9.49988 16.8822 9.32427 16.6188 9.05349 16.5647L6.93902 16.1418V15.5453Z" fill="#141414"/>
</svg>
