<svg width="24" height="24" viewBox="0 0 24 24" fill="none" xmlns="http://www.w3.org/2000/svg">
<path fill-rule="evenodd" clip-rule="evenodd" d="M11.9999 2.03125C6.49466 2.03125 2.03174 6.49417 2.03174 11.9995C2.03174 17.5047 6.49466 21.9677 11.9999 21.9677C17.5052 21.9677 21.9682 17.5047 21.9682 11.9995C21.9682 6.49417 17.5052 2.03125 11.9999 2.03125ZM17.7525 7.57761C17.9539 7.76648 17.9641 8.0829 17.7753 8.28435L11.0123 15.4982L10.6176 15.9192L10.2571 15.4686L6.65014 10.9599C6.47763 10.7443 6.51259 10.4297 6.72822 10.2572C6.94385 10.0846 7.2585 10.1196 7.43101 10.3352L10.6774 14.3933L17.0457 7.60041C17.2346 7.39896 17.551 7.38875 17.7525 7.57761Z" fill="#66B3A6"/>
</svg>
