<svg width="12" height="12" viewBox="0 0 12 12" fill="none" xmlns="http://www.w3.org/2000/svg">
<path fill-rule="evenodd" clip-rule="evenodd" d="M0.313073 0.312951C0.508335 0.117688 0.824917 0.117688 1.02018 0.312951L5.99996 5.29273L10.9797 0.312951C11.175 0.117688 11.4916 0.117688 11.6868 0.312951C11.8821 0.508213 11.8821 0.824795 11.6868 1.02006L6.70707 5.99984L11.6868 10.9796C11.8821 11.1749 11.8821 11.4915 11.6868 11.6867C11.4916 11.882 11.175 11.882 10.9797 11.6867L5.99996 6.70694L1.02018 11.6867C0.824917 11.882 0.508335 11.882 0.313073 11.6867C0.11781 11.4915 0.11781 11.1749 0.313073 10.9796L5.29285 5.99984L0.313073 1.02006C0.11781 0.824795 0.11781 0.508213 0.313073 0.312951Z" fill="#141414"/>
</svg>
