<svg width="25" height="24" viewBox="0 0 25 24" fill="none" xmlns="http://www.w3.org/2000/svg">
<path fill-rule="evenodd" clip-rule="evenodd" d="M12.9586 1.50464C12.9074 1.27651 12.7048 1.11437 12.471 1.11426C12.2372 1.11415 12.0345 1.27611 11.983 1.50419L10.1421 9.66173L8.47192 7.97796C8.27745 7.78191 7.96087 7.78063 7.76482 7.9751C7.56877 8.16957 7.56749 8.48615 7.76196 8.6822L9.48314 10.4174L4.6648 11.8082C4.44906 11.8705 4.30129 12.069 4.30349 12.2935C4.30569 12.518 4.45731 12.7136 4.67423 12.7716L9.61123 14.0925L7.8847 15.8052C7.68865 15.9996 7.68737 16.3162 7.88184 16.5123C8.07631 16.7083 8.39289 16.7096 8.58894 16.5151L10.3802 14.7383L11.9978 19.1737C12.0698 19.371 12.2574 19.5023 12.4674 19.5023C12.6774 19.5024 12.8651 19.3712 12.9372 19.1739L14.5706 14.703L16.3581 16.4761C16.5541 16.6705 16.8707 16.6693 17.0652 16.4732C17.2597 16.2772 17.2584 15.9606 17.0623 15.7661L15.3647 14.0822L20.2578 12.7716C20.4746 12.7135 20.6261 12.5182 20.6284 12.2938C20.6307 12.0694 20.4833 11.8709 20.2677 11.8084L15.4361 10.4066L17.1853 8.64314C17.3798 8.44709 17.3785 8.13051 17.1824 7.93604C16.9864 7.74156 16.6698 7.74284 16.4753 7.9389L14.7869 9.64105L12.9586 1.50464ZM10.916 10.775L12.4697 3.89024L14.0147 10.766C14.0547 10.9438 14.1882 11.0858 14.3633 11.1366L18.2677 12.2694L14.226 13.352C14.0686 13.3941 13.9417 13.5103 13.8858 13.6634L12.468 17.5442L11.0527 13.6636C10.9968 13.5104 10.8697 13.3941 10.7122 13.3519L6.66965 12.2703L10.567 11.1453C10.7421 11.0948 10.8759 10.9529 10.916 10.775ZM9.72974 3.2826C9.99422 3.2032 10.1443 2.92443 10.0649 2.65995C9.98547 2.39547 9.70671 2.24543 9.44222 2.32482C5.11691 3.62325 1.9646 7.63497 1.9646 12.3843C1.9646 18.184 6.66625 22.8857 12.466 22.8857C18.2658 22.8857 22.9675 18.184 22.9675 12.3843C22.9675 7.63497 19.8152 3.62325 15.4899 2.32482C15.2254 2.24543 14.9466 2.39547 14.8672 2.65995C14.7878 2.92443 14.9379 3.2032 15.2023 3.2826C19.1165 4.4576 21.9675 8.08863 21.9675 12.3843C21.9675 17.6318 17.7135 21.8857 12.466 21.8857C7.21854 21.8857 2.9646 17.6318 2.9646 12.3843C2.9646 8.08863 5.8156 4.4576 9.72974 3.2826Z" fill="#53565A"/>
</svg>
