<svg width="24" height="24" viewBox="0 0 24 24" fill="none" xmlns="http://www.w3.org/2000/svg">
<path fill-rule="evenodd" clip-rule="evenodd" d="M11.6122 3.99987C11.6038 4.00823 11.6006 4.01734 11.6006 4.02639V4.27422C11.6031 4.30297 11.603 4.33149 11.6006 4.35952V5.0016C11.6006 5.27775 11.3767 5.5016 11.1006 5.5016C10.8244 5.5016 10.6006 5.27775 10.6006 5.0016V4.98687C9.37456 5.46578 8.4884 6.53678 8.29889 7.85149C8.2706 8.04774 8.12918 8.20817 7.9393 8.26151C7.93599 8.26276 7.92873 8.26568 7.91862 8.27074C7.89352 8.28328 7.85327 8.30766 7.8108 8.3505C7.77901 8.38257 7.73691 8.43395 7.69926 8.51485H16.3374C16.2997 8.43395 16.2576 8.38257 16.2258 8.3505C16.1834 8.30766 16.1431 8.28328 16.118 8.27074C16.1079 8.26568 16.1007 8.26276 16.0973 8.26151C15.9074 8.20817 15.766 8.0477 15.7377 7.85142C15.5482 6.53539 14.6622 5.46542 13.4361 4.9868V5.0016C13.4361 5.27775 13.2122 5.5016 12.9361 5.5016C12.6599 5.5016 12.4361 5.27775 12.4361 5.0016V4.35979C12.4336 4.33158 12.4336 4.30288 12.4361 4.27395V4.02639C12.4361 4.01734 12.4328 4.00822 12.4245 3.99987C12.4161 3.99152 12.407 3.98828 12.398 3.98828H11.6387C11.6296 3.98828 11.6205 3.99152 11.6122 3.99987ZM13.4315 3.92828C15.0767 4.42381 16.3352 5.7461 16.6811 7.44161C16.7612 7.49201 16.8491 7.55877 16.936 7.64648C17.2104 7.92331 17.4292 8.36196 17.4292 9.01485C17.4292 9.29099 17.2054 9.51485 16.9292 9.51485H16.463C16.5152 9.78966 16.5429 10.0732 16.5429 10.3628C16.5429 12.1287 15.5346 13.6599 14.0626 14.4118C16.2808 14.6498 17.6947 15.298 18.5705 16.2552C19.6885 17.4769 19.8114 19.0811 19.8218 20.5067C19.8239 20.7828 19.6017 21.0083 19.3255 21.0103C19.0494 21.0123 18.8239 20.7901 18.8219 20.514C18.8114 19.0922 18.6713 17.8466 17.8328 16.9303C16.9977 16.0177 15.3511 15.3105 12.0008 15.3105C8.65155 15.3105 7.00416 16.0229 6.16828 16.9383C5.32864 17.8579 5.18839 19.1045 5.17797 20.514C5.17592 20.7902 4.95041 21.0124 4.67428 21.0103C4.39814 21.0083 4.17595 20.7828 4.17799 20.5066C4.18846 19.0916 4.31205 17.4882 5.4298 16.2641C6.30559 15.3049 7.71925 14.6525 9.9376 14.4127C8.46462 13.661 7.45557 12.1294 7.45557 10.3628C7.45557 10.0724 7.48322 9.78914 7.53538 9.51485H7.10742C6.83128 9.51485 6.60742 9.29099 6.60742 9.01485C6.60742 8.36196 6.8262 7.92331 7.10062 7.64648C7.18759 7.55876 7.27552 7.49199 7.35561 7.44157C7.7015 5.74759 8.95987 4.42403 10.6052 3.9283C10.6548 3.40189 11.0996 2.98828 11.6387 2.98828H12.398C12.9371 2.98828 13.3818 3.40188 13.4315 3.92828ZM8.55855 9.51485H15.4398C15.5069 9.78705 15.5429 10.0712 15.5429 10.3628C15.5429 12.3192 13.9556 13.9065 11.9992 13.9065C10.0428 13.9065 8.45557 12.3192 8.45557 10.3628C8.45557 10.07 8.49154 9.78662 8.55855 9.51485ZM9.09082 7.05078C8.81468 7.05078 8.59082 7.27464 8.59082 7.55078C8.59082 7.82692 8.81468 8.05078 9.09082 8.05078H14.7958C15.072 8.05078 15.2958 7.82692 15.2958 7.55078C15.2958 7.27464 15.072 7.05078 14.7958 7.05078H9.09082Z" fill="#53565A"/>
</svg>
