<svg width="32" height="32" viewBox="0 0 32 32" fill="none" xmlns="http://www.w3.org/2000/svg">
<path fill-rule="evenodd" clip-rule="evenodd" d="M11.3332 4.1665C11.057 4.1665 10.8332 4.39036 10.8332 4.6665V20.6665C10.8332 20.9426 11.057 21.1665 11.3332 21.1665H27.3332C27.6093 21.1665 27.8332 20.9426 27.8332 20.6665V4.6665C27.8332 4.39036 27.6093 4.1665 27.3332 4.1665H11.3332ZM11.8332 20.1665V5.1665H26.8332V20.1665H11.8332ZM4.6665 10.8332H7.99984V11.8332H5.1665V26.8332H20.1665V23.9999H21.1665V27.3332C21.1665 27.6094 20.9426 27.8332 20.6665 27.8332H4.6665C4.39036 27.8332 4.1665 27.6094 4.1665 27.3332V11.3332C4.1665 11.0571 4.39036 10.8332 4.6665 10.8332Z" fill="#141414"/>
</svg>
