<svg width="25" height="24" viewBox="0 0 25 24" fill="none" xmlns="http://www.w3.org/2000/svg">
<path fill-rule="evenodd" clip-rule="evenodd" d="M12.4661 8C9.98083 8 7.96611 10.0147 7.96611 12.5C7.96611 14.9853 9.98083 17 12.4661 17C14.9514 17 16.9661 14.9853 16.9661 12.5C16.9661 10.0147 14.9514 8 12.4661 8ZM6.96611 12.5C6.96611 9.46243 9.42855 7 12.4661 7C15.5037 7 17.9661 9.46243 17.9661 12.5C17.9661 15.5376 15.5037 18 12.4661 18C9.42855 18 6.96611 15.5376 6.96611 12.5ZM12.4662 10.0037C11.0492 10.0037 9.97002 11.0536 9.97002 12.2654C9.97002 12.5415 9.74616 12.7654 9.47002 12.7654C9.19388 12.7654 8.97002 12.5415 8.97002 12.2654C8.97002 10.4258 10.5756 9.00372 12.4662 9.00372C14.357 9.00372 15.9624 10.4273 15.9624 12.2654C15.9624 12.5415 15.7386 12.7654 15.4624 12.7654C15.1863 12.7654 14.9624 12.5415 14.9624 12.2654C14.9624 11.0548 13.8831 10.0037 12.4662 10.0037ZM14.0387 11.0419C14.2218 11.2485 14.2027 11.5646 13.996 11.7477L13.4335 12.246C13.4547 12.3271 13.466 12.4122 13.466 12.5C13.466 13.0523 13.0183 13.5 12.466 13.5C11.9138 13.5 11.466 13.0523 11.466 12.5C11.466 11.9477 11.9138 11.5 12.466 11.5C12.5568 11.5 12.6448 11.5121 12.7284 11.5348L13.3329 10.9992C13.5395 10.8161 13.8555 10.8352 14.0387 11.0419ZM10.459 15.0246C10.459 14.7485 10.6828 14.5246 10.959 14.5246H13.9218C14.198 14.5246 14.4218 14.7485 14.4218 15.0246C14.4218 15.3008 14.198 15.5246 13.9218 15.5246H10.959C10.6828 15.5246 10.459 15.3008 10.459 15.0246ZM3.46605 12.5C3.46605 10.567 5.03305 9 6.96605 9C7.24219 9 7.46605 8.77614 7.46605 8.5C7.46605 8.22386 7.24219 8 6.96605 8C4.48077 8 2.46605 10.0147 2.46605 12.5C2.46605 14.9853 4.48077 17 6.96605 17C7.24219 17 7.46605 16.7761 7.46605 16.5C7.46605 16.2239 7.24219 16 6.96605 16C5.03305 16 3.46605 14.433 3.46605 12.5ZM17.466 8.5C17.466 8.22386 17.6899 8 17.966 8C20.4513 8 22.466 10.0147 22.466 12.5C22.466 14.9853 20.4513 17 17.966 17C17.6899 17 17.466 16.7761 17.466 16.5C17.466 16.2239 17.6899 16 17.966 16C19.899 16 21.466 14.433 21.466 12.5C21.466 10.567 19.899 9 17.966 9C17.6899 9 17.466 8.77614 17.466 8.5ZM6.22763 11.1944C6.46792 11.0584 6.5524 10.7533 6.41633 10.513C6.28026 10.2727 5.97516 10.1882 5.73487 10.3243C4.97828 10.7527 4.46587 11.5662 4.46587 12.5C4.46587 12.7761 4.68973 13 4.96587 13H5.76084C6.03698 13 6.26084 12.7761 6.26084 12.5C6.26084 12.2239 6.03698 12 5.76084 12H5.55123C5.67237 11.6574 5.91464 11.3717 6.22763 11.1944ZM18.5308 10.513C18.6669 10.2727 18.972 10.1882 19.2123 10.3243C19.9688 10.7527 20.4813 11.5662 20.4813 12.5C20.4813 12.7761 20.2574 13 19.9813 13H19.1863C18.9101 13 18.6863 12.7761 18.6863 12.5C18.6863 12.2238 18.9101 12 19.1863 12H19.3959C19.2748 11.6574 19.0325 11.3717 18.7195 11.1944C18.4792 11.0583 18.3947 10.7532 18.5308 10.513Z" fill="#53565A"/>
</svg>
