<svg width="24" height="24" viewBox="0 0 24 24" fill="none" xmlns="http://www.w3.org/2000/svg">
<path fill-rule="evenodd" clip-rule="evenodd" d="M13.874 6.91211C13.874 5.23633 15.1982 3.91211 16.874 3.91211C18.5436 3.91211 19.874 5.29737 19.874 6.91211C19.874 8.58789 18.5498 9.91211 16.874 9.91211C15.1982 9.91211 13.874 8.58789 13.874 6.91211ZM16.874 2.91211C14.646 2.91211 12.874 4.68404 12.874 6.91211C12.874 8.58391 13.8716 9.99891 15.311 10.6012C14.9864 10.741 14.5496 10.9434 14.0576 11.1774C13.2433 11.5646 12.2291 12.062 11.2016 12.5736C9.14991 13.5951 7.02858 14.6815 6.33135 15.065C6.21657 15.1281 6.11132 15.1975 6.01589 15.2724L3.85055 13.1435C3.65364 12.9499 3.33707 12.9525 3.14346 13.1495C2.94986 13.3464 2.95254 13.6629 3.14945 13.8565L5.42461 16.0935C5.31523 16.4338 5.33534 16.7822 5.45123 17.0864L3.81442 18.7232C3.61915 18.9185 3.61915 19.2351 3.81442 19.4304C4.00968 19.6256 4.32626 19.6256 4.52152 19.4304L6.0999 17.852C6.42528 18.0412 6.83204 18.1086 7.26687 17.974C7.28369 17.969 7.30162 17.9636 7.32062 17.9576L9.51982 20.1199C9.71673 20.3135 10.0333 20.3108 10.2269 20.1139C10.4205 19.917 10.4178 19.6004 10.2209 19.4068L8.36675 17.5838C9.31946 17.2247 10.6695 16.6899 11.9368 16.1819C12.3623 16.0113 12.7809 15.8427 13.1752 15.6835C12.936 16.8378 12.7463 18.0918 12.614 18.9673L12.6139 18.9673L12.6139 18.9673L12.6139 18.9676C12.5539 19.3641 12.5057 19.6829 12.47 19.8795C12.4206 20.1512 12.6008 20.4115 12.8725 20.4609C13.1442 20.5103 13.4045 20.3301 13.4538 20.0584C13.4972 19.8199 13.5507 19.4661 13.615 19.0401L13.615 19.0397L13.615 19.0396C13.7686 18.0225 13.9844 16.5941 14.2735 15.3409C14.2818 15.305 14.286 15.269 14.2864 15.2335L14.5465 15.1279C14.894 14.9866 15.1806 14.8698 15.3803 14.7883L15.6116 14.6938L15.6722 14.669L15.6878 14.6626L15.6918 14.661L15.6928 14.6606L15.693 14.6605L15.5036 14.1977L15.6931 14.6604C15.9486 14.5558 16.071 14.2638 15.9663 14.0082C15.8617 13.7527 15.5697 13.6304 15.3141 13.735L15.5036 14.1977L15.314 13.7351L15.3138 13.7352L15.3128 13.7355L15.3089 13.7371L15.2935 13.7435L15.2331 13.7682L15.0024 13.8624C14.8031 13.9438 14.5169 14.0604 14.1699 14.2015C13.4759 14.4836 12.5384 14.8633 11.5647 15.2537C9.59975 16.0414 7.53532 16.8527 6.98085 17.0158L6.98083 17.0157L6.97279 17.0182C6.70687 17.1013 6.47595 16.965 6.38631 16.732C6.34304 16.6195 6.33874 16.4919 6.38872 16.3658C6.43801 16.2415 6.55464 16.0834 6.81327 15.9412C7.49009 15.5689 9.59396 14.4911 11.6473 13.4688C12.6722 12.9585 13.6804 12.464 14.487 12.0805C15.314 11.6872 15.8833 11.4332 16.0629 11.3779C16.0759 11.3739 16.0888 11.3693 16.1015 11.3643C16.2031 11.3236 16.4312 11.2729 16.7496 11.2519C17.0579 11.2315 17.4139 11.2415 17.7573 11.2987C18.4873 11.4204 18.953 11.7104 19.0755 12.134C19.372 13.2229 19.6045 14.9482 19.7625 16.6059C19.9202 18.2593 19.9998 19.8001 19.9998 20.4993C19.9998 20.7754 20.2236 20.9993 20.4998 20.9993C20.7759 20.9993 20.9998 20.7754 20.9998 20.4993C20.9998 19.7557 20.9172 18.1801 20.758 16.511C20.5994 14.8477 20.3608 13.0461 20.0394 11.8677L20.0395 11.8677L20.0378 11.8619C19.8308 11.1375 19.259 10.728 18.6529 10.5032C19.9752 9.8545 20.874 8.499 20.874 6.91211C20.874 4.75762 19.1083 2.91211 16.874 2.91211Z" fill="#53565A"/>
</svg>
