<svg width="21" height="21" viewBox="0 0 21 21" fill="none" xmlns="http://www.w3.org/2000/svg">
<path fill-rule="evenodd" clip-rule="evenodd" d="M1.62305 10.8053C1.62305 8.89501 2.21822 7.12373 3.23325 5.66678C3.51541 6.68165 4.18465 7.99636 5.4747 9.26137C5.06067 9.67481 4.82218 10.1931 4.72159 10.6856C4.60058 11.2781 4.66123 11.9352 4.97499 12.3734C5.46046 13.0515 6.09152 13.4662 7.04348 13.6724C7.40053 13.7498 7.64507 13.8725 7.82703 14.0189C8.01025 14.1663 8.15463 14.3575 8.28416 14.6069C8.28372 14.606 8.28356 14.6057 8.28365 14.6061C8.28371 14.6063 8.2839 14.6069 8.28421 14.6079C8.28691 14.6161 8.29858 14.6517 8.31133 14.7326C8.32615 14.8266 8.3372 14.9446 8.34848 15.091C8.35179 15.1339 8.35508 15.1791 8.35851 15.2261C8.37735 15.4844 8.40024 15.7982 8.45162 16.098C8.51163 16.4482 8.62051 16.8501 8.86071 17.1722C9.12278 17.5236 9.51639 17.7456 10.0397 17.7456C10.5089 17.7456 10.895 17.585 11.1972 17.3155C11.4874 17.0565 11.6783 16.7172 11.8125 16.385C12.004 15.9108 12.1171 15.3364 12.2047 14.8909L12.2047 14.8908C12.2346 14.7389 12.2616 14.6019 12.2877 14.489C12.376 14.1072 12.5788 13.8537 12.8203 13.6316C12.9084 13.5506 12.9896 13.484 13.0768 13.4124L13.0769 13.4123C13.1202 13.3767 13.1651 13.3399 13.213 13.2995C13.3384 13.1938 13.4963 13.0541 13.6088 12.881C13.8489 12.5116 13.8412 12.1009 13.6801 11.7709C13.5268 11.4568 13.2377 11.2168 12.9023 11.1185C12.7553 11.0754 12.5864 10.878 12.5949 10.5962C12.6031 10.3262 12.5732 9.9427 12.376 9.6081C12.1553 9.23382 11.7659 8.98975 11.2204 8.97974C10.8888 8.97366 10.6857 8.92309 10.5265 8.85249C10.3583 8.77786 10.208 8.66814 9.98021 8.48591C9.64718 8.21948 9.13473 8.06927 8.66684 8.01016C8.1913 7.95008 7.63973 7.96851 7.20044 8.14615C6.76741 8.32125 6.54958 8.44429 6.33019 8.59744C6.16768 8.17579 6.09617 7.6634 6.27172 7.21979C6.46524 6.73076 7.03598 6.1445 8.64688 5.91772C9.77219 5.7593 10.5815 5.42647 11.134 4.96376C11.6962 4.49288 11.9584 3.91556 12.0309 3.34843C12.0999 2.80883 11.9965 2.29305 11.8489 1.88836C13.5229 2.11639 15.0506 2.80478 16.3001 3.82181C15.8785 4.15621 15.4309 4.54249 15.0882 4.97133C14.6 5.58241 14.2561 6.37 14.5789 7.27351C14.9236 8.2385 15.8324 9.05588 16.8185 9.67334C17.698 10.224 18.7083 10.6589 19.6218 10.9247C19.5579 15.8401 15.5534 19.8051 10.6228 19.8051C5.65237 19.8051 1.62305 15.7757 1.62305 10.8053ZM19.3613 8.64394C19.4591 9.04051 19.5306 9.44744 19.5738 9.86276C18.8353 9.61866 18.0444 9.26107 17.3492 8.82578C16.421 8.24463 15.75 7.57927 15.5206 6.93707C15.362 6.49315 15.4915 6.06867 15.8695 5.59553C16.1782 5.20918 16.606 4.85123 17.0495 4.50505C17.575 5.04099 18.0339 5.64238 18.413 6.29586C18.875 7.10456 19.1755 7.92105 19.3613 8.64394ZM20.6205 10.601C20.6219 10.6689 20.6226 10.737 20.6226 10.8053C20.6226 16.328 16.1455 20.8051 10.6228 20.8051C5.10009 20.8051 0.623047 16.328 0.623047 10.8053C0.623047 8.20776 1.61345 5.84154 3.23722 4.06367C3.75696 3.47937 4.3267 2.99381 4.9172 2.59196C6.4866 1.49969 8.38388 0.845708 10.4317 0.807329C10.5669 0.803735 10.6935 0.803901 10.8105 0.807266C13.2132 0.851492 15.4088 1.74317 17.111 3.19597L17.1127 3.19469L17.1746 3.25067C17.2868 3.34807 17.3968 3.44792 17.5046 3.55016C18.2662 4.25647 18.8531 5.04219 19.3011 5.83367C19.7682 6.64727 20.1241 7.5328 20.3483 8.46955C20.5598 9.31919 20.6302 10.0553 20.6214 10.5504L20.6205 10.601ZM10.6228 1.80554C10.5495 1.80554 10.4764 1.80642 10.4036 1.80816C9.19336 1.84879 7.20634 2.23199 5.4446 3.44355C4.94535 3.79536 4.48349 4.19668 4.06615 4.64036C4.08459 5.17067 4.34765 6.22723 5.19499 7.40996C5.22119 7.22459 5.26844 7.03739 5.34188 6.85182C5.71899 5.89888 6.70376 5.18141 8.50747 4.92749C9.51629 4.78547 10.128 4.50189 10.4919 4.19711C10.8461 3.90049 10.9958 3.55924 11.039 3.2216C11.0837 2.87143 11.0145 2.50989 10.9006 2.20717C10.8443 2.05766 10.7802 1.93101 10.722 1.83661C10.7153 1.82561 10.7088 1.81538 10.7026 1.80589C10.676 1.80566 10.6494 1.80554 10.6228 1.80554ZM14.0845 16.3204C13.6408 16.49 13.591 16.8102 13.6277 16.9062C13.6644 17.0022 13.9151 17.2075 14.3588 17.0379C14.8025 16.8682 14.8523 16.548 14.8156 16.452C14.7789 16.3561 14.5282 16.1507 14.0845 16.3204ZM12.6937 17.2633C12.3816 16.4472 12.9992 15.6647 13.7274 15.3863C14.4556 15.1079 15.4376 15.2787 15.7496 16.0949C16.0617 16.9111 15.4441 17.6935 14.7159 17.9719C13.9878 18.2503 13.0057 18.0795 12.6937 17.2633ZM7.57532 9.07322C7.79548 8.9842 8.1559 8.95356 8.54149 9.00227C8.93473 9.05195 9.23255 9.16841 9.35552 9.26678C9.58373 9.44934 9.82277 9.63426 10.121 9.76659C10.4284 9.90294 10.769 9.97163 11.2021 9.97958C11.3244 9.98182 11.3919 10.0075 11.4278 10.0278C11.4627 10.0475 11.4902 10.0747 11.5145 10.1159C11.5716 10.2127 11.6012 10.373 11.5954 10.5659C11.5759 11.2101 11.9542 11.8827 12.621 12.0781C12.6924 12.099 12.7541 12.1537 12.7815 12.2096C12.7935 12.2344 12.7964 12.254 12.7958 12.2685C12.7953 12.2812 12.7917 12.3032 12.7703 12.336C12.746 12.3734 12.6917 12.431 12.5683 12.535C12.5392 12.5596 12.505 12.5877 12.4676 12.6184L12.4674 12.6186C12.3708 12.698 12.2526 12.7952 12.1435 12.8955C11.8185 13.1943 11.4636 13.6143 11.3134 14.2637C11.2728 14.4393 11.2377 14.6176 11.2027 14.7958L11.2027 14.796C11.1205 15.214 11.0384 15.6313 10.8853 16.0105C10.7818 16.2666 10.6637 16.4513 10.5315 16.5692C10.4111 16.6766 10.2615 16.7456 10.0397 16.7456C9.83688 16.7456 9.73854 16.6765 9.66235 16.5744C9.56429 16.4429 9.4886 16.2287 9.43725 15.9291C9.39482 15.6815 9.37586 15.424 9.35678 15.1646L9.3567 15.1636C9.35303 15.1138 9.34937 15.064 9.34552 15.0142C9.33412 14.8662 9.32068 14.7136 9.29914 14.5769C9.27899 14.449 9.24523 14.2877 9.17156 14.1459C8.99752 13.8108 8.77357 13.497 8.45389 13.2398C8.13295 12.9815 7.74003 12.8001 7.25524 12.6951C6.52352 12.5366 6.11633 12.2497 5.78806 11.7913C5.69495 11.6612 5.61201 11.3232 5.70136 10.8857C5.78616 10.4705 6.01005 10.0604 6.39049 9.7934L6.39052 9.79343L6.39574 9.78966C6.51572 9.70313 6.61126 9.63195 6.6926 9.57136L6.69274 9.57125C7.0038 9.33951 7.10709 9.26256 7.57532 9.07322Z" fill="#53565A"/>
</svg>
