<svg width="19" height="18" viewBox="0 0 19 18" fill="none" xmlns="http://www.w3.org/2000/svg">
<path fill-rule="evenodd" clip-rule="evenodd" d="M16.1574 1.3684C15.676 0.886967 14.8422 0.886967 14.3608 1.3684L8.65793 7.07125L10.4546 8.8679L16.1574 3.16505C16.6389 2.68362 16.6389 1.84983 16.1574 1.3684ZM7.417 7.10507C7.417 7.21433 7.45276 7.3199 7.5178 7.40613L1.81153 13.1124C1.15304 13.7709 0.71713 14.7577 0.449486 15.5261C0.31251 15.9194 0.213342 16.2743 0.148309 16.5311C0.115732 16.6597 0.0915625 16.7644 0.0753765 16.8377C0.0672801 16.8744 0.0611708 16.9033 0.0569968 16.9235L0.0521774 16.9471L0.0508419 16.9538L0.0504405 16.9558L0.0503061 16.9565L0.0502554 16.9568C0.0502346 16.9569 0.0502157 16.957 0.541023 17.0524L0.0502157 16.957C0.0184876 17.1202 0.069928 17.2884 0.18747 17.406C0.305012 17.5235 0.473285 17.575 0.636458 17.5432L0.541023 17.0524C0.636458 17.5432 0.636556 17.5432 0.636662 17.5432L0.636922 17.5431L0.637609 17.543L0.63965 17.5426L0.646357 17.5413L0.66998 17.5365C0.690152 17.5323 0.719036 17.5262 0.755717 17.5181C0.829046 17.5019 0.93372 17.4777 1.06237 17.4451C1.3192 17.3801 1.67408 17.2809 2.06733 17.144C2.83573 16.8763 3.82255 16.4404 4.48104 15.7819L4.48106 15.7819L4.48495 15.778L10.1245 10.0116C10.2099 10.0744 10.3135 10.1088 10.4208 10.1088C10.5534 10.1088 10.6805 10.0561 10.7743 9.96238L16.8645 3.87216C16.9465 3.79021 17.0207 3.70302 17.0873 3.61156C17.0407 4.28042 16.7534 4.93784 16.2254 5.46579L12.0976 9.59361C11.9024 9.78887 11.9024 10.1055 12.0976 10.3007C12.2929 10.496 12.6095 10.496 12.8047 10.3007L16.9325 6.1729C18.4812 4.62425 18.4812 2.20992 16.9325 0.661278C16.8741 0.602817 16.8047 0.561859 16.731 0.538404C15.849 -0.208535 14.4825 -0.167573 13.6537 0.66129L7.56345 6.75151C7.46968 6.84528 7.417 6.97246 7.417 7.10507ZM2.51864 13.8195L8.22149 8.11666L9.4134 9.30857L3.77204 15.0767C3.27998 15.5677 2.47469 15.9431 1.7384 16.1996C1.55858 16.2622 1.38715 16.3163 1.23118 16.3623C1.2771 16.2063 1.33121 16.0349 1.39384 15.855C1.65063 15.1178 2.02675 14.3114 2.51864 13.8195Z" fill="#141414"/>
</svg>
