<svg width="32" height="32" viewBox="0 0 32 32" fill="none" xmlns="http://www.w3.org/2000/svg">
<path fill-rule="evenodd" clip-rule="evenodd" d="M25.6609 5.70693C24.9539 4.99993 23.7367 4.99993 23.0297 5.70693L15.3041 13.4325C15.324 13.4472 15.3428 13.4633 15.3605 13.481L17.8868 16.0073C17.9046 16.0252 17.9208 16.044 17.9354 16.0637L25.6609 8.33817C26.3679 7.63117 26.3679 6.41392 25.6609 5.70693ZM14.2023 13.8272L14.2547 13.8797L6.53306 21.6013C5.68284 22.4515 5.11159 23.7372 4.75654 24.7566C4.57586 25.2753 4.44497 25.7436 4.35915 26.0826C4.31617 26.2523 4.28434 26.3902 4.26309 26.4865C4.25246 26.5346 4.24446 26.5724 4.23904 26.5986L4.23282 26.6291L4.23113 26.6376L4.23065 26.6401L4.23049 26.6409L4.23043 26.6412C4.23041 26.6413 4.23039 26.6414 4.7212 26.7368L4.23039 26.6414C4.19866 26.8046 4.2501 26.9728 4.36765 27.0904C4.48519 27.2079 4.65346 27.2593 4.81663 27.2276L4.7212 26.7368C4.81663 27.2276 4.81673 27.2276 4.81685 27.2276L4.81713 27.2275L4.81793 27.2274L4.82042 27.2269L4.82887 27.2252L4.85937 27.219C4.88558 27.2136 4.92338 27.2056 4.97153 27.1949C5.06782 27.1737 5.20571 27.1418 5.37542 27.0989C5.71436 27.013 6.18273 26.8822 6.70145 26.7015C7.72079 26.3464 9.00649 25.7752 9.85671 24.925L9.85673 24.925L9.86061 24.921L17.4926 17.1175L17.5406 17.1656C17.6344 17.2593 17.7616 17.312 17.8942 17.312C18.0268 17.312 18.154 17.2593 18.2477 17.1656L26.368 9.04527C26.6153 8.79798 26.8069 8.51246 26.9428 8.20594C27.0453 9.34211 26.6482 10.5092 25.7516 11.4058L20.2478 16.9096C20.0526 17.1048 20.0526 17.4214 20.2478 17.6167C20.4431 17.8119 20.7597 17.8119 20.955 17.6167L26.4587 12.1129C28.4585 10.1132 28.4585 6.99958 26.4587 4.9998C26.3923 4.93343 26.3119 4.88962 26.2271 4.86837C25.1176 3.90421 23.3744 3.94802 22.3226 4.99982L14.2023 13.1201C14.1085 13.2139 14.0558 13.3411 14.0558 13.4737C14.0558 13.6063 14.1085 13.7335 14.2023 13.8272ZM7.24017 22.3084L14.9618 14.5868L16.7854 16.4104L9.14769 24.2198C8.46393 24.9024 7.35978 25.4132 6.37252 25.7571C6.01283 25.8824 5.67817 25.9823 5.39953 26.0585C5.47566 25.7798 5.57561 25.4452 5.70089 25.0855C6.04509 24.0973 6.55655 22.992 7.24017 22.3084Z" fill="#141414"/>
</svg>

