<svg width="32" height="32" viewBox="0 0 32 32" fill="none" xmlns="http://www.w3.org/2000/svg">
<path fill-rule="evenodd" clip-rule="evenodd" d="M5.49854 3.33289C5.49854 3.05674 5.72239 2.83289 5.99854 2.83289H16.6652C16.7978 2.83289 16.925 2.88556 17.0188 2.97933L26.3521 12.3127C26.4459 12.4064 26.4985 12.5336 26.4985 12.6662V28.6662C26.4985 28.9424 26.2747 29.1662 25.9985 29.1662H5.99854C5.72239 29.1662 5.49854 28.9424 5.49854 28.6662V3.33289ZM6.49854 3.83289V28.1662H25.4985V13.1662H16.6658C16.3897 13.1662 16.1658 12.9424 16.1658 12.6662V3.83289H6.49854ZM17.1658 4.5406L24.7914 12.1662H17.1658V4.5406ZM8.65768 20.201L10.3617 22.817L8.47368 25.657H9.64968L10.9617 23.601L12.2337 25.657H13.4897L11.6177 22.777L13.3137 20.201H12.1537L11.0177 21.993L9.91368 20.201H8.65768ZM15.4225 20.201H14.3825V25.657H18.0305V24.761H15.4225V20.201ZM19.9789 24.729C19.6429 24.5957 19.3255 24.4037 19.0269 24.153L18.5789 24.953C18.9202 25.2197 19.2962 25.425 19.7069 25.569C20.1229 25.713 20.5415 25.785 20.9629 25.785C21.3895 25.785 21.7709 25.7157 22.1069 25.577C22.4429 25.433 22.7015 25.2357 22.8829 24.985C23.0642 24.729 23.1549 24.441 23.1549 24.121C23.1549 23.8117 23.0935 23.545 22.9709 23.321C22.8482 23.097 22.6589 22.913 22.4029 22.769C22.1469 22.6197 21.7629 22.4917 21.2509 22.385C20.7389 22.2784 20.4055 22.193 20.2509 22.129C20.1015 22.065 19.9895 21.9877 19.9149 21.897C19.8402 21.801 19.8029 21.689 19.8029 21.561C19.8029 21.433 19.8402 21.321 19.9149 21.225C19.9895 21.129 20.0989 21.057 20.2429 21.009C20.3922 20.9557 20.5735 20.929 20.7869 20.929C21.0642 20.929 21.3389 20.977 21.6109 21.073C21.8829 21.169 22.1415 21.3157 22.3869 21.513L22.8189 20.697C22.5042 20.489 22.1762 20.3344 21.8349 20.233C21.4935 20.1264 21.1522 20.073 20.8109 20.073C20.4002 20.073 20.0349 20.1397 19.7149 20.273C19.4002 20.401 19.1575 20.585 18.9869 20.825C18.8162 21.065 18.7309 21.3397 18.7309 21.649C18.7309 21.9477 18.7895 22.2064 18.9069 22.425C19.0242 22.6384 19.2082 22.817 19.4589 22.961C19.7095 23.105 20.0909 23.233 20.6029 23.345C21.1149 23.4517 21.4482 23.5397 21.6029 23.609C21.7629 23.6784 21.8802 23.761 21.9549 23.857C22.0349 23.953 22.0749 24.0704 22.0749 24.209C22.0749 24.353 22.0322 24.481 21.9469 24.593C21.8615 24.6997 21.7362 24.7824 21.5709 24.841C21.4055 24.8997 21.2082 24.929 20.9789 24.929C20.6482 24.929 20.3149 24.8624 19.9789 24.729Z" fill="#141414"/>
</svg>
