<svg width="24" height="24" viewBox="0 0 24 24" fill="none" xmlns="http://www.w3.org/2000/svg">
<path fill-rule="evenodd" clip-rule="evenodd" d="M12.5 3.57852C12.5185 3.43089 12.4713 3.27656 12.3581 3.16299C12.1632 2.96735 11.8467 2.96675 11.651 3.16165L8.46059 6.33999C8.26496 6.53488 8.26436 6.85146 8.45925 7.0471C8.65414 7.24273 8.97073 7.24333 9.16636 7.04844L11.4995 4.72415L11.4941 16.7398C11.494 17.0159 11.7178 17.2399 11.9939 17.24C12.2701 17.2401 12.494 17.0164 12.4941 16.7402L12.5 3.57852ZM3.5 13.5001C3.77614 13.5001 4 13.7239 4 14.0001V20.0001H20V14.0001C20 13.7239 20.2239 13.5001 20.5 13.5001C20.7761 13.5001 21 13.7239 21 14.0001V20.5001C21 20.7762 20.7761 21.0001 20.5 21.0001H3.5C3.22386 21.0001 3 20.7762 3 20.5001V14.0001C3 13.7239 3.22386 13.5001 3.5 13.5001Z" fill="#53565A"/>
<path d="M12.0098 16.7409L12.0039 3.5542" stroke="#141414"/>
<path d="M15.1904 6.69519L12 3.51685" stroke="#141414" stroke-linecap="round"/>
</svg>
