<svg width="48" height="49" viewBox="0 0 48 49" fill="none" xmlns="http://www.w3.org/2000/svg">
<path fill-rule="evenodd" clip-rule="evenodd" d="M19.9101 4.50195H20.084C22.017 4.50195 23.584 6.06896 23.584 8.00195C23.584 8.44235 23.5027 8.86375 23.3542 9.25195H25.9102C26.3244 9.25195 26.6602 9.58774 26.6602 10.002V11.252H32.9102C33.3244 11.252 33.6602 11.5877 33.6602 12.002V20.6087C33.6602 21.0229 33.3244 21.3587 32.9102 21.3587C32.4959 21.3587 32.1602 21.0229 32.1602 20.6087V12.752H26.6602V14.002C26.6602 14.4162 26.3244 14.752 25.9102 14.752H13.9102C13.496 14.752 13.1602 14.4162 13.1602 14.002V12.752H7.66016V42.252H32.1602V38.2239C32.1602 37.8097 32.4959 37.4739 32.9102 37.4739C33.3244 37.4739 33.6602 37.8097 33.6602 38.2239V43.002C33.6602 43.4162 33.3244 43.752 32.9102 43.752H6.91016C6.49594 43.752 6.16016 43.4162 6.16016 43.002V12.002C6.16016 11.5877 6.49594 11.252 6.91016 11.252H13.1602V10.002C13.1602 9.58774 13.496 9.25195 13.9102 9.25195H16.6399C16.4915 8.86375 16.4101 8.44235 16.4101 8.00195C16.4101 6.06896 17.9771 4.50195 19.9101 4.50195ZM25.1539 12.752H25.1602V13.252H25.1539V13.2743H14.6569V10.7383H25.1539V10.752H25.1602V11.252H25.1539V12.752ZM22.084 8.00195C22.084 8.47493 21.9199 8.90955 21.6454 9.25195H18.3488C18.0743 8.90955 17.9101 8.47493 17.9101 8.00195C17.9101 6.89738 18.8056 6.00195 19.9101 6.00195H20.084C21.1886 6.00195 22.084 6.89738 22.084 8.00195ZM11.1601 23.002C11.1601 22.5877 11.4959 22.252 11.9101 22.252H22.1673C22.5815 22.252 22.9173 22.5877 22.9173 23.002C22.9173 23.4162 22.5815 23.752 22.1673 23.752H11.9101C11.4959 23.752 11.1601 23.4162 11.1601 23.002ZM11.9101 28.252C11.4959 28.252 11.1601 28.5877 11.1601 29.002C11.1601 29.4162 11.4959 29.752 11.9101 29.752H19.7538C20.1681 29.752 20.5038 29.4162 20.5038 29.002C20.5038 28.5877 20.1681 28.252 19.7538 28.252H11.9101ZM11.1601 35.002C11.1601 34.5877 11.4959 34.252 11.9101 34.252H21.6132C22.0274 34.252 22.3632 34.5877 22.3632 35.002C22.3632 35.4162 22.0274 35.752 21.6132 35.752H11.9101C11.4959 35.752 11.1601 35.4162 11.1601 35.002ZM25.6688 25.5413C27.7288 23.55 31.0515 23.6696 33.073 25.7607C35.0752 27.832 35.0096 31.1478 32.8625 33.1564L32.8624 33.1563L32.8536 33.1648C30.7823 35.1671 27.4665 35.1015 25.4579 32.9544L25.458 32.9543L25.4495 32.9455C23.4581 30.8855 23.5777 27.5628 25.6688 25.5413ZM34.1515 24.7182C31.5846 22.0628 27.3128 21.8659 24.6263 24.4629C21.9723 27.0283 21.7742 31.2968 24.3667 33.9836C26.8137 36.5948 30.7855 36.8115 33.4697 34.6222L35.0463 36.1988C35.082 36.3562 35.1612 36.5058 35.2837 36.6283L40.2837 41.6283C40.6297 41.9743 41.1906 41.9743 41.5365 41.6283C41.8824 41.2824 41.8824 40.7215 41.5365 40.3756L36.5365 35.3756C36.4139 35.253 36.2644 35.1739 36.107 35.1382L34.5306 33.5617C36.6414 30.9587 36.5185 27.1668 34.1515 24.7182Z" fill="#141414"/>
</svg>
