<svg width="25" height="24" viewBox="0 0 25 24" fill="none" xmlns="http://www.w3.org/2000/svg">
<path fill-rule="evenodd" clip-rule="evenodd" d="M5.96606 9.40234C5.96606 5.89644 8.82511 3 12.4661 3C16.1005 3 18.9503 5.81015 18.966 9.37278C18.8204 10.5625 18.4647 11.6726 17.9053 12.6385L17.9044 12.6399L13.3231 20.4157C13.0735 20.7797 12.7586 21 12.3908 21C11.9848 21 11.6811 20.8124 11.459 20.4907L6.80139 12.4906L6.79753 12.484L6.79346 12.4775C6.24761 11.6028 5.96606 10.5098 5.96606 9.40234ZM12.4661 2C8.27907 2 4.96606 5.33793 4.96606 9.40234C4.96606 10.6672 5.28533 11.9465 5.94097 13.0003L10.6039 21.0094L10.6123 21.0239L10.6217 21.0379C11.0011 21.5989 11.5979 22 12.3908 22C13.2232 22 13.8087 21.483 14.1598 20.9636L14.1685 20.9508L14.1764 20.9374L18.7678 13.1444L18.7678 13.1444L18.7696 13.1413C19.4094 12.0374 19.8048 10.7835 19.9625 9.46158L19.9661 9.43207V9.40234C19.9661 5.26023 16.6495 2 12.4661 2ZM12.4658 6.15039C12.6824 6.15039 12.8743 6.28987 12.9413 6.49588L13.5026 8.22334H15.3189C15.5355 8.22334 15.7275 8.36282 15.7944 8.56883C15.8614 8.77484 15.7881 9.00053 15.6128 9.12785L14.1434 10.1955L14.7046 11.9229C14.7716 12.1289 14.6982 12.3546 14.523 12.482C14.3478 12.6093 14.1105 12.6093 13.9352 12.482L12.4658 11.4143L10.9963 12.482C10.821 12.6093 10.5837 12.6093 10.4085 12.482C10.2333 12.3546 10.1599 12.1289 10.2269 11.9229L10.7882 10.1955L9.31869 9.12785C9.14345 9.00053 9.07012 8.77484 9.13705 8.56883C9.20399 8.36282 9.39597 8.22334 9.61258 8.22334H11.4289L11.9902 6.49588C12.0572 6.28987 12.2491 6.15039 12.4658 6.15039Z" fill="#53565A"/>
</svg>
