<svg width="16" height="20" viewBox="0 0 16 20" fill="none" xmlns="http://www.w3.org/2000/svg">
<path fill-rule="evenodd" clip-rule="evenodd" d="M1.5 7.40234C1.5 3.89644 4.35904 1 8 1C11.6344 1 14.4843 3.81015 14.4999 7.37278C14.3543 8.56247 13.9986 9.67261 13.4392 10.6385L13.4384 10.6399L8.85707 18.4157C8.60739 18.7797 8.29258 19 7.92473 19C7.51875 19 7.21504 18.8124 6.99296 18.4907L2.33533 10.4906L2.33146 10.484L2.3274 10.4775C1.78154 9.60282 1.5 8.50985 1.5 7.40234ZM8 0C3.813 0 0.5 3.33793 0.5 7.40234C0.5 8.66717 0.819261 9.94647 1.4749 11.0003L6.13779 19.0094L6.14626 19.0239L6.15568 19.0379C6.53499 19.5989 7.13183 20 7.92473 20C8.7571 20 9.34261 19.483 9.69378 18.9636L9.70248 18.9508L9.71036 18.9374L14.3018 11.1444L14.3018 11.1444L14.3036 11.1413C14.9433 10.0374 15.3388 8.78351 15.4965 7.46158L15.5 7.43207V7.40234C15.5 3.26023 12.1835 0 8 0ZM5.5 7.5C5.5 6.11929 6.61929 5 8 5C9.38071 5 10.5 6.11929 10.5 7.5C10.5 8.88071 9.38071 10 8 10C6.61929 10 5.5 8.88071 5.5 7.5ZM8 4C6.067 4 4.5 5.567 4.5 7.5C4.5 9.433 6.067 11 8 11C9.933 11 11.5 9.433 11.5 7.5C11.5 5.567 9.933 4 8 4Z" fill="#53565A"/>
</svg>
