<svg width="24" height="24" viewBox="0 0 24 24" fill="none" xmlns="http://www.w3.org/2000/svg">
<path fill-rule="evenodd" clip-rule="evenodd" d="M4.82766 6.56453C5.84076 5.23003 7.21782 4.18693 8.81096 3.58309C8.42316 4.00606 8.07254 4.49891 7.76469 5.04221C7.50052 5.5084 7.26344 6.01828 7.05707 6.56453H4.82766ZM4.16834 7.56453C3.50283 8.73682 3.09296 10.0732 3.01453 11.4979H6.13205C6.17218 10.0946 6.38034 8.76265 6.72557 7.56453H4.16834ZM7.76971 7.56453C7.40358 8.73364 7.17581 10.0686 7.13247 11.4979H11.5045V7.56453H7.76971ZM6.13203 12.4979H3.01425C3.09186 13.9225 3.50082 15.2588 4.16539 16.4313H6.72539C6.38022 15.2332 6.17212 13.9012 6.13203 12.4979ZM7.76952 16.4313C7.40345 15.2622 7.17574 13.9272 7.13246 12.4979H11.5045V16.4313H7.76952ZM7.05684 17.4313H4.82372C5.83856 18.7701 7.21946 19.8161 8.8174 20.4204C8.42704 19.9958 8.07424 19.5005 7.76469 18.9542C7.50042 18.4879 7.26326 17.9778 7.05684 17.4313ZM8.1328 17.4313H11.5045V20.9386C10.4529 20.7338 9.43993 19.8823 8.63472 18.4612C8.45387 18.1421 8.28594 17.7978 8.1328 17.4313ZM12.5045 20.9374C13.554 20.7306 14.5647 19.8796 15.3685 18.4612C15.5493 18.1421 15.7172 17.7978 15.8704 17.4313H12.5045V20.9374ZM16.9463 17.4313C16.7399 17.9778 16.5028 18.4879 16.2385 18.9542C15.9294 19.4998 15.5771 19.9945 15.1874 20.4186C16.7834 19.8141 18.1626 18.7688 19.1764 17.4313H16.9463ZM19.8348 16.4313H17.2778C17.623 15.2332 17.8311 13.9012 17.8711 12.4979H20.9859C20.9083 13.9225 20.4993 15.2588 19.8348 16.4313ZM20.9856 11.4979C20.9072 10.0732 20.4973 8.73682 19.8318 7.56453H17.2776C17.6228 8.76265 17.831 10.0946 17.8711 11.4979H20.9856ZM16.8707 11.4979C16.8274 10.0686 16.5996 8.73364 16.2335 7.56453H12.5045V11.4979H16.8707ZM16.9461 6.56453H19.1725C18.1604 5.23132 16.785 4.18895 15.1938 3.58484C15.581 4.00742 15.9311 4.49965 16.2385 5.04221C16.5027 5.5084 16.7397 6.01828 16.9461 6.56453ZM15.8701 6.56453H12.5045V3.05901C13.554 3.26582 14.5647 4.11679 15.3685 5.5352C15.5492 5.85417 15.717 6.19825 15.8701 6.56453ZM11.5045 3.05787C10.4529 3.26267 9.43993 4.11417 8.63472 5.5352C8.45398 5.85417 8.28613 6.19825 8.13306 6.56453H11.5045V3.05787ZM16.8707 12.4979C16.8274 13.9272 16.5997 15.2622 16.2337 16.4313H12.5045V12.4979H16.8707ZM2.00073 12.0005C2.00073 6.47829 6.47762 2.00171 12.0001 2.00171C17.5225 2.00171 21.9994 6.47829 21.9994 12.0005C21.9994 17.5227 17.5225 21.9993 12.0001 21.9993C6.47762 21.9993 2.00073 17.5227 2.00073 12.0005Z" fill="#53565A"/>
</svg>
