<svg width="25" height="24" viewBox="0 0 25 24" fill="none" xmlns="http://www.w3.org/2000/svg">
<path fill-rule="evenodd" clip-rule="evenodd" d="M9.46606 9.25C9.46606 7.59315 10.8092 6.25 12.4661 6.25C14.1229 6.25 15.4661 7.59315 15.4661 9.25C15.4661 10.9069 14.1229 12.25 12.4661 12.25C10.8092 12.25 9.46606 10.9069 9.46606 9.25ZM12.4661 5.25C10.2569 5.25 8.46606 7.04086 8.46606 9.25C8.46606 10.5993 9.13419 11.7926 10.1577 12.5171C8.27319 12.8201 7.22518 13.5382 6.71012 14.5767C6.3783 15.2457 6.30553 15.9842 6.30398 16.6769C6.3032 17.0253 6.32078 17.3762 6.33769 17.7095L6.33835 17.7226C6.35526 18.0558 6.37122 18.3707 6.37122 18.6735C6.37122 18.9497 6.59508 19.1735 6.87122 19.1735C7.14737 19.1735 7.37122 18.9497 7.37122 18.6735C7.37122 18.345 7.35413 18.0082 7.33766 17.6837L7.3364 17.6588C7.31931 17.3219 7.30327 16.9969 7.30398 16.6792C7.3054 16.0396 7.37604 15.4846 7.60598 15.021C8.03359 14.1588 9.16172 13.3555 12.465 13.3555C15.7682 13.3555 16.8964 14.1588 17.324 15.021C17.5539 15.4846 17.6246 16.0396 17.626 16.6792C17.6267 16.9969 17.6107 17.3219 17.5936 17.6589L17.5923 17.6837C17.5759 18.0082 17.5588 18.345 17.5588 18.6735C17.5588 18.9497 17.7826 19.1735 18.0588 19.1735C18.3349 19.1735 18.5588 18.9497 18.5588 18.6735C18.5588 18.3707 18.5747 18.0559 18.5916 17.7227L18.5916 17.7227L18.5923 17.7095C18.6092 17.3762 18.6268 17.0253 18.626 16.6769C18.6245 15.9842 18.5517 15.2457 18.2199 14.5766C17.7049 13.5385 16.6574 12.8206 14.774 12.5174C15.7978 11.793 16.4661 10.5995 16.4661 9.25C16.4661 7.04086 14.6752 5.25 12.4661 5.25Z" fill="#53565A"/>
<path fill-rule="evenodd" clip-rule="evenodd" d="M19.1115 10.0957C18.9171 10.0957 18.7384 10.1055 18.5744 10.1236C18.2999 10.1537 18.053 9.95564 18.0228 9.68115C17.9927 9.40666 18.1907 9.15969 18.4652 9.12953C18.6682 9.10723 18.8835 9.0957 19.1115 9.0957C20.6466 9.0957 21.6093 9.62304 22.1328 10.3916C22.6366 11.1312 22.6657 11.9973 22.5484 12.5692C22.4929 12.8397 22.2287 13.014 21.9581 12.9586C21.6876 12.9031 21.5133 12.6388 21.5688 12.3683C21.6479 11.9825 21.618 11.4121 21.3063 10.9546C21.0145 10.526 20.4055 10.0957 19.1115 10.0957Z" fill="#53565A"/>
<path fill-rule="evenodd" clip-rule="evenodd" d="M19.1579 7C18.8133 7 18.5076 7.16584 18.3159 7.4242C18.1513 7.64595 17.8381 7.69232 17.6164 7.52776C17.3946 7.3632 17.3483 7.05003 17.5128 6.82828C17.885 6.32667 18.4834 6 19.1579 6C20.2887 6 21.2054 6.9167 21.2054 8.0475C21.2054 9.17831 20.2887 10.095 19.1579 10.095C18.8588 10.095 18.5734 10.0306 18.3159 9.91432C18.0643 9.80068 17.9524 9.50454 18.066 9.25286C18.1796 9.00118 18.4758 8.88928 18.7275 9.00292C18.8581 9.06191 19.0035 9.095 19.1579 9.095C19.7364 9.095 20.2054 8.62602 20.2054 8.0475C20.2054 7.46898 19.7364 7 19.1579 7Z" fill="#53565A"/>
<path fill-rule="evenodd" clip-rule="evenodd" d="M5.91591 7C6.24941 7 6.54636 7.15529 6.73901 7.3995C6.91004 7.6163 7.22444 7.65341 7.44124 7.48238C7.65804 7.31135 7.69515 6.99695 7.52412 6.78015C7.15 6.3059 6.56853 6 5.91591 6C4.78511 6 3.86841 6.9167 3.86841 8.0475C3.86841 9.17831 4.78511 10.095 5.91591 10.095C6.20022 10.095 6.47222 10.0368 6.71963 9.9311C6.97358 9.82263 7.09152 9.52884 6.98305 9.27489C6.87459 9.02094 6.58079 8.903 6.32685 9.01146C6.20132 9.06508 6.06276 9.095 5.91591 9.095C5.33739 9.095 4.86841 8.62602 4.86841 8.0475C4.86841 7.46898 5.33739 7 5.91591 7Z" fill="#53565A"/>
<path fill-rule="evenodd" clip-rule="evenodd" d="M5.96012 10.0957C6.14123 10.0957 6.30866 10.1042 6.46331 10.12C6.73804 10.1479 6.9834 9.94786 7.01135 9.67314C7.0393 9.39842 6.83925 9.15305 6.56452 9.1251C6.37386 9.1057 6.17255 9.0957 5.96012 9.0957C4.42505 9.0957 3.46231 9.62304 2.9388 10.3916C2.43504 11.1312 2.40595 11.9973 2.52324 12.5692C2.57872 12.8397 2.84298 13.014 3.11349 12.9586C3.38401 12.9031 3.55833 12.6388 3.50285 12.3683C3.42374 11.9825 3.45368 11.4121 3.7653 10.9546C4.05718 10.526 4.66617 10.0957 5.96012 10.0957Z" fill="#53565A"/>
</svg>
