<svg width="18" height="16" viewBox="0 0 18 16" fill="none" xmlns="http://www.w3.org/2000/svg">
<path fill-rule="evenodd" clip-rule="evenodd" d="M11.8964 12.9733C11.0168 12.9882 9.30992 13.0893 7.93819 13.4108C7.44284 13.527 7.0143 13.6431 6.61566 13.7511C5.5051 14.052 4.62659 14.2901 3.18205 14.2901C1.83159 14.2901 1.7176 13.7009 1.5862 13.0218C1.5266 12.7138 1.46341 12.3872 1.2796 12.0887C1.21534 11.9844 1.14987 11.904 1.08864 11.8287C0.95383 11.6631 0.839548 11.5226 0.803982 11.2082C0.752259 10.7509 0.803988 10.3276 0.803988 10.3276C0.803988 10.3276 0.21754 9.98061 0.328375 9.44709C0.43921 8.91358 0.803989 8.56655 0.803989 8.56655C0.803989 8.56655 0.328375 8.25041 0.328375 7.686C0.328375 7.1216 0.824333 5.92491 2.23083 5.92491H4.6089C4.29634 5.48528 3.80253 4.70718 3.65767 4.16382C3.51281 3.62046 3.5999 2.29554 4.15921 1.54089C4.71852 0.786239 5.73128 1.0937 5.98882 1.52747C6.18197 2.6785 6.59909 3.57109 7.40393 4.60811C7.46585 4.68789 7.52612 4.76631 7.58524 4.84323C8.40499 5.90982 9.00342 6.68845 10.7059 6.81642C11.1559 6.85025 11.4914 6.90253 11.7434 6.9798C11.6738 6.75201 11.6034 6.54096 11.5383 6.35577C11.3112 5.7097 11.7766 4.98464 12.4973 4.98464H15.9983C16.5506 4.98464 16.9983 5.43235 16.9983 5.98464V13.7901C16.9983 14.3424 16.5506 14.7901 15.9983 14.7901H12.8009C12.1888 14.7901 11.722 14.2478 11.8063 13.6453C11.8329 13.4544 11.8639 13.2262 11.8964 12.9733ZM12.6847 9.89463C12.6903 9.73845 12.6934 9.58852 12.6934 9.4471C12.6934 9.08729 12.6517 8.70456 12.5859 8.32424L12.5973 8.62133C12.6315 8.96579 12.6678 9.41411 12.6847 9.89463Z" fill="#1A6C31"/>
<path d="M7.93819 13.4108L7.99525 13.6542L7.93819 13.4108ZM11.8964 12.9733L12.1444 13.0052C12.1537 12.9332 12.1312 12.8607 12.0827 12.8066C12.0343 12.7525 11.9648 12.7221 11.8922 12.7233L11.8964 12.9733ZM6.61566 13.7511L6.68105 13.9924L6.61566 13.7511ZM1.5862 13.0218L1.34075 13.0693L1.5862 13.0218ZM1.2796 12.0887L1.06673 12.2198L1.06673 12.2198L1.2796 12.0887ZM1.08864 11.8287L1.28254 11.6709H1.28254L1.08864 11.8287ZM0.803982 11.2082L0.555566 11.2363H0.555566L0.803982 11.2082ZM0.803988 10.3276L1.05214 10.358C1.06419 10.2594 1.01676 10.1631 0.931305 10.1125L0.803988 10.3276ZM0.328375 9.44709L0.573149 9.49794L0.328375 9.44709ZM0.803989 8.56655L0.976304 8.74768C1.0314 8.69526 1.05965 8.62061 1.05304 8.54485C1.04644 8.46908 1.00571 8.40045 0.94238 8.35835L0.803989 8.56655ZM4.6089 5.92491V6.17491C4.70245 6.17491 4.78817 6.12268 4.83106 6.03955C4.87396 5.95642 4.86686 5.85629 4.81265 5.78005L4.6089 5.92491ZM3.65767 4.16382L3.41611 4.22822L3.65767 4.16382ZM4.15921 1.54089L4.36006 1.68975V1.68975L4.15921 1.54089ZM5.98882 1.52747L6.23537 1.4861C6.23026 1.45564 6.21955 1.4264 6.20379 1.39984L5.98882 1.52747ZM7.40393 4.60811L7.60143 4.45483L7.60143 4.45483L7.40393 4.60811ZM7.58524 4.84323L7.38702 4.99557V4.99557L7.58524 4.84323ZM10.7059 6.81642L10.7246 6.56713L10.7059 6.81642ZM11.7434 6.9798L11.6701 7.21882C11.7585 7.24593 11.8547 7.22203 11.9201 7.15667C11.9855 7.09131 12.0095 6.99518 11.9825 6.90674L11.7434 6.9798ZM11.5383 6.35577L11.3025 6.43868V6.43868L11.5383 6.35577ZM11.8063 13.6453L12.0538 13.6799L11.8063 13.6453ZM12.6847 9.89463L12.4348 9.9034C12.4396 10.0379 12.55 10.1446 12.6846 10.1446C12.8192 10.1447 12.9297 10.0382 12.9345 9.90365L12.6847 9.89463ZM12.5859 8.32424L12.8322 8.28157C12.8097 8.15188 12.6906 8.06182 12.5597 8.07562C12.4288 8.08942 12.331 8.20235 12.336 8.33388L12.5859 8.32424ZM12.5973 8.62133L12.3475 8.63096C12.3477 8.63598 12.348 8.641 12.3485 8.646L12.5973 8.62133ZM7.99525 13.6542C9.34151 13.3386 11.0278 13.2381 11.9007 13.2232L11.8922 12.7233C11.0057 12.7384 9.27832 12.8399 7.88113 13.1674L7.99525 13.6542ZM6.68105 13.9924C7.07987 13.8843 7.50459 13.7693 7.99525 13.6542L7.88113 13.1674C7.38108 13.2847 6.94873 13.4018 6.55027 13.5098L6.68105 13.9924ZM3.18205 14.5401C4.66146 14.5401 5.56667 14.2944 6.68105 13.9924L6.55027 13.5098C5.44354 13.8097 4.59172 14.0401 3.18205 14.0401V14.5401ZM1.34075 13.0693C1.40325 13.3923 1.4726 13.7862 1.74305 14.0799C2.02577 14.3871 2.47706 14.5401 3.18205 14.5401V14.0401C2.53658 14.0401 2.25565 13.8985 2.11091 13.7413C1.9539 13.5707 1.90055 13.3305 1.83165 12.9743L1.34075 13.0693ZM1.06673 12.2198C1.22306 12.4737 1.28004 12.7555 1.34075 13.0693L1.83165 12.9743C1.77315 12.672 1.70376 12.3007 1.49247 11.9576L1.06673 12.2198ZM0.894733 11.9865C0.956222 12.0621 1.01206 12.1311 1.06673 12.2198L1.49247 11.9576C1.41863 11.8377 1.34352 11.7458 1.28254 11.6709L0.894733 11.9865ZM0.555566 11.2363C0.576479 11.4212 0.622076 11.5652 0.687677 11.6903C0.750978 11.8111 0.829354 11.9062 0.894733 11.9865L1.28254 11.6709C1.21311 11.5856 1.16694 11.5277 1.13051 11.4582C1.09638 11.3931 1.06705 11.3096 1.0524 11.1801L0.555566 11.2363ZM0.803988 10.3276C0.555835 10.2973 0.555831 10.2973 0.555827 10.2974C0.555825 10.2974 0.555821 10.2974 0.555817 10.2975C0.555811 10.2975 0.555804 10.2976 0.555796 10.2976C0.55578 10.2978 0.55576 10.2979 0.555738 10.2981C0.555694 10.2985 0.555637 10.299 0.555569 10.2995C0.555434 10.3007 0.555252 10.3022 0.55503 10.3042C0.554585 10.3081 0.553976 10.3136 0.553243 10.3205C0.551775 10.3345 0.549804 10.3543 0.54764 10.3794C0.543314 10.4295 0.538193 10.5006 0.534785 10.5865C0.528005 10.7574 0.527825 10.991 0.555566 11.2363L1.0524 11.1801C1.02842 10.9681 1.02824 10.7614 1.03439 10.6063C1.03745 10.5292 1.04203 10.466 1.04579 10.4224C1.04766 10.4007 1.04933 10.3839 1.05049 10.3729C1.05107 10.3674 1.05152 10.3634 1.05181 10.3608C1.05195 10.3596 1.05206 10.3587 1.05211 10.3582C1.05214 10.358 1.05216 10.3578 1.05216 10.3578C1.05217 10.3578 1.05217 10.3578 1.05216 10.3578C1.05216 10.3578 1.05216 10.3578 1.05215 10.3579C1.05215 10.3579 1.05215 10.3579 1.05215 10.3579C1.05215 10.3579 1.05214 10.358 0.803988 10.3276ZM0.0836012 9.39624C0.00574526 9.77101 0.177682 10.0685 0.335556 10.251C0.415898 10.3439 0.499222 10.4153 0.561869 10.4634C0.593478 10.4877 0.620578 10.5065 0.640467 10.5198C0.650431 10.5264 0.658644 10.5317 0.664774 10.5355C0.667841 10.5374 0.670392 10.539 0.672387 10.5402C0.673385 10.5408 0.674244 10.5413 0.67496 10.5418C0.675318 10.542 0.67564 10.5422 0.675925 10.5423C0.676068 10.5424 0.676201 10.5425 0.676326 10.5426C0.676388 10.5426 0.676475 10.5427 0.676506 10.5427C0.67659 10.5427 0.676672 10.5428 0.803988 10.3276C0.931305 10.1125 0.931382 10.1125 0.931457 10.1126C0.931479 10.1126 0.931552 10.1126 0.931597 10.1127C0.931686 10.1127 0.931766 10.1128 0.931838 10.1128C0.931981 10.1129 0.932091 10.113 0.932167 10.113C0.93232 10.1131 0.932339 10.1131 0.932231 10.113C0.932014 10.1129 0.931285 10.1125 0.930084 10.1117C0.927678 10.1102 0.923399 10.1075 0.917544 10.1036C0.905795 10.0958 0.887945 10.0834 0.866306 10.0668C0.822457 10.0331 0.766097 9.98445 0.713681 9.92386C0.606039 9.79945 0.540169 9.65669 0.573149 9.49794L0.0836012 9.39624ZM0.803989 8.56655C0.631673 8.38542 0.631617 8.38547 0.63156 8.38553C0.631539 8.38555 0.63148 8.3856 0.631438 8.38564C0.631354 8.38573 0.631264 8.38581 0.631169 8.3859C0.630979 8.38608 0.630766 8.38629 0.630531 8.38651C0.630061 8.38696 0.629502 8.3875 0.628857 8.38813C0.627568 8.38938 0.625933 8.39098 0.623972 8.39292C0.620052 8.3968 0.614823 8.40206 0.608443 8.40865C0.59569 8.42183 0.578288 8.4404 0.5575 8.46405C0.516008 8.51124 0.460532 8.57924 0.401455 8.66553C0.284123 8.83692 0.147717 9.08762 0.0836012 9.39624L0.573149 9.49794C0.619868 9.27306 0.721269 9.08348 0.814035 8.94798C0.860008 8.88083 0.902653 8.82872 0.933021 8.79417C0.948162 8.77695 0.960124 8.76424 0.967754 8.75635C0.971564 8.75241 0.974281 8.74969 0.975758 8.74823C0.976496 8.7475 0.976923 8.74709 0.97702 8.74699C0.977069 8.74694 0.977035 8.74698 0.976917 8.74709C0.976858 8.74715 0.976777 8.74723 0.976675 8.74732C0.976624 8.74737 0.976568 8.74743 0.976506 8.74748C0.976475 8.74751 0.976425 8.74756 0.976409 8.74758C0.976358 8.74763 0.976304 8.74768 0.803989 8.56655ZM0.078375 7.686C0.078375 8.04183 0.228805 8.31526 0.370477 8.49349C0.441592 8.58296 0.512578 8.65123 0.566395 8.69765C0.593432 8.72097 0.616509 8.73909 0.633621 8.75191C0.642189 8.75834 0.649297 8.76345 0.654699 8.76726C0.657401 8.76916 0.65968 8.77074 0.661506 8.77199C0.662419 8.77261 0.663219 8.77315 0.663902 8.77361C0.664243 8.77385 0.664556 8.77406 0.664839 8.77424C0.66498 8.77434 0.665114 8.77443 0.665241 8.77451C0.665304 8.77455 0.665393 8.77461 0.665425 8.77464C0.665512 8.77469 0.665598 8.77475 0.803989 8.56655C0.94238 8.35835 0.942462 8.3584 0.942542 8.35846C0.942566 8.35847 0.942645 8.35852 0.942693 8.35856C0.942791 8.35862 0.942882 8.35868 0.942965 8.35874C0.943133 8.35885 0.943273 8.35894 0.943386 8.35902C0.943612 8.35917 0.94373 8.35925 0.943743 8.35926C0.943769 8.35928 0.943377 8.35901 0.942596 8.35846C0.941031 8.35736 0.93792 8.35514 0.933483 8.35181C0.924585 8.34514 0.910505 8.33416 0.892953 8.31902C0.857592 8.28852 0.809675 8.24249 0.761886 8.18237C0.665752 8.06142 0.578375 7.89458 0.578375 7.686H0.078375ZM2.23083 5.67491C1.44669 5.67491 0.901664 6.01251 0.557984 6.43635C0.222658 6.84988 0.078375 7.34554 0.078375 7.686H0.578375C0.578375 7.46206 0.682071 7.07718 0.946348 6.75126C1.20227 6.43565 1.60847 6.17491 2.23083 6.17491V5.67491ZM4.6089 5.67491H2.23083V6.17491H4.6089V5.67491ZM3.41611 4.22822C3.49702 4.5317 3.66968 4.88458 3.85312 5.20692C4.03878 5.53316 4.24516 5.84475 4.40514 6.06977L4.81265 5.78005C4.66008 5.56544 4.46327 5.26817 4.28768 4.95961C4.10986 4.64715 3.96319 4.3393 3.89923 4.09942L3.41611 4.22822ZM3.95836 1.39203C3.64465 1.81531 3.47379 2.38043 3.39711 2.89472C3.32069 3.40725 3.33171 3.91166 3.41611 4.22822L3.89923 4.09942C3.83877 3.87262 3.8209 3.44289 3.89164 2.96846C3.96212 2.49579 4.11446 2.02113 4.36006 1.68975L3.95836 1.39203ZM6.20379 1.39984C6.02385 1.09678 5.62319 0.882294 5.2129 0.83985C4.78433 0.795515 4.29878 0.932711 3.95836 1.39203L4.36006 1.68975C4.57894 1.39442 4.87943 1.30802 5.16145 1.3372C5.46176 1.36826 5.69625 1.52439 5.77385 1.6551L6.20379 1.39984ZM7.60143 4.45483C6.8178 3.44514 6.42064 2.59016 6.23537 1.4861L5.74227 1.56885C5.9433 2.76684 6.38038 3.69704 7.20643 4.76139L7.60143 4.45483ZM7.78346 4.69088C7.72439 4.61403 7.66377 4.53515 7.60143 4.45483L7.20643 4.76139C7.26793 4.84063 7.32785 4.91858 7.38702 4.99557L7.78346 4.69088ZM10.7246 6.56713C9.9132 6.50614 9.38482 6.29278 8.96324 5.98084C8.53162 5.66148 8.19799 5.23024 7.78346 4.69088L7.38702 4.99557C7.79224 5.52281 8.16769 6.01419 8.66584 6.38278C9.17402 6.7588 9.79608 6.99874 10.6871 7.06572L10.7246 6.56713ZM11.8167 6.74079C11.5386 6.65549 11.1815 6.60148 10.7246 6.56713L10.6871 7.06572C11.1302 7.09903 11.4443 7.14958 11.6701 7.21882L11.8167 6.74079ZM11.9825 6.90674C11.9117 6.67526 11.8403 6.4609 11.7742 6.27285L11.3025 6.43868C11.3666 6.62102 11.4358 6.82876 11.5043 7.05286L11.9825 6.90674ZM11.7742 6.27285C11.6005 5.7787 11.9602 5.23464 12.4973 5.23464V4.73464C11.5931 4.73464 11.022 5.64071 11.3025 6.43868L11.7742 6.27285ZM12.4973 5.23464H15.9983V4.73464H12.4973V5.23464ZM15.9983 5.23464C16.4125 5.23464 16.7483 5.57043 16.7483 5.98464H17.2483C17.2483 5.29428 16.6887 4.73464 15.9983 4.73464V5.23464ZM16.7483 5.98464V13.7901H17.2483V5.98464H16.7483ZM16.7483 13.7901C16.7483 14.2043 16.4125 14.5401 15.9983 14.5401V15.0401C16.6887 15.0401 17.2483 14.4805 17.2483 13.7901H16.7483ZM15.9983 14.5401H12.8009V15.0401H15.9983V14.5401ZM12.8009 14.5401C12.3417 14.5401 11.9905 14.1331 12.0538 13.6799L11.5587 13.6106C11.4536 14.3624 12.0359 15.0401 12.8009 15.0401V14.5401ZM12.0538 13.6799C12.0806 13.4882 12.1117 13.2591 12.1444 13.0052L11.6485 12.9413C11.6161 13.1933 11.5852 13.4206 11.5587 13.6106L12.0538 13.6799ZM12.9345 9.90365C12.9403 9.74505 12.9434 9.59205 12.9434 9.4471H12.4434C12.4434 9.58498 12.4404 9.73186 12.4348 9.8856L12.9345 9.90365ZM12.9434 9.4471C12.9434 9.06897 12.8997 8.67137 12.8322 8.28157L12.3395 8.36691C12.4038 8.73775 12.4434 9.10562 12.4434 9.4471H12.9434ZM12.336 8.33388L12.3475 8.63096L12.8471 8.61169L12.8357 8.31461L12.336 8.33388ZM12.9345 9.88586C12.9174 9.39856 12.8806 8.94471 12.8461 8.59666L12.3485 8.646C12.3823 8.98687 12.4182 9.42966 12.4348 9.9034L12.9345 9.88586Z" fill="#1A6C31"/>
</svg>
