<svg width="32" height="33" viewBox="0 0 32 33" xmlns="http://www.w3.org/2000/svg">
<path fill-rule="evenodd" clip-rule="evenodd" d="M16.0002 3.00244C8.82064 3.00244 3.00049 8.8226 3.00049 16.0021C3.00049 23.1816 8.82064 29.0018 16.0002 29.0018C23.1797 29.0018 28.9998 23.1816 28.9998 16.0021C28.9998 8.8226 23.1797 3.00244 16.0002 3.00244ZM14.728 8.56381V9.73563V10.9669C14.728 11.11 14.8509 11.2851 15.0462 11.2851C15.1158 11.2851 15.2812 11.2847 15.4643 11.2844L15.4649 11.2844H15.4651L15.4655 11.2844C15.6927 11.2839 15.9471 11.2834 16.0799 11.2834H16.9958C17.1911 11.2834 17.314 11.1083 17.314 10.9652V9.73563V8.5655C17.314 8.42239 17.1911 8.24729 16.9958 8.24729H16.0799C15.9471 8.24729 15.6927 8.24677 15.4655 8.24631L15.4651 8.24631H15.4649L15.4643 8.24631C15.2812 8.24594 15.1158 8.24561 15.0462 8.24561C14.8509 8.24561 14.728 8.4207 14.728 8.56381ZM14.7239 13.9452V15.117V23.433C14.7239 23.5761 14.8468 23.7512 15.0421 23.7512C15.1118 23.7512 15.2775 23.7509 15.4609 23.7505L15.4661 23.7505L15.4698 23.7505L15.4743 23.7505C15.6982 23.75 15.9455 23.7495 16.0758 23.7495H16.9917C17.1871 23.7495 17.31 23.5744 17.31 23.4313V15.117V13.9469C17.31 13.8037 17.1871 13.6286 16.9917 13.6286H16.0758C15.943 13.6286 15.6886 13.6281 15.4614 13.6277H15.461H15.4609L15.4585 13.6277L15.4484 13.6276C15.27 13.6273 15.1103 13.627 15.0421 13.627C14.8468 13.627 14.7239 13.8021 14.7239 13.9452Z" fill="#141414"/>
</svg>
