<svg width="32" height="32" viewBox="0 0 32 32" fill="none" xmlns="http://www.w3.org/2000/svg">
<path fill-rule="evenodd" clip-rule="evenodd" d="M4.00049 16.0002C4.00049 9.37293 9.37293 4.00049 16.0002 4.00049C22.6274 4.00049 27.9998 9.37293 27.9998 16.0002C27.9998 22.6274 22.6274 27.9998 16.0002 27.9998C9.37293 27.9998 4.00049 22.6274 4.00049 16.0002ZM16.0002 3.00049C8.82064 3.00049 3.00049 8.82064 3.00049 16.0002C3.00049 23.1797 8.82064 28.9998 16.0002 28.9998C23.1797 28.9998 28.9998 23.1797 28.9998 16.0002C28.9998 8.82064 23.1797 3.00049 16.0002 3.00049ZM14.7279 9.73367V8.56185C14.7279 8.41874 14.8508 8.24364 15.0461 8.24364C15.1158 8.24364 15.2811 8.24398 15.4642 8.24435L15.4649 8.24435H15.4651L15.4654 8.24435C15.6927 8.24481 15.947 8.24533 16.0799 8.24533H16.9958C17.1911 8.24533 17.314 8.42042 17.314 8.56354V9.73367V10.9632C17.314 11.1063 17.1911 11.2814 16.9958 11.2814H16.0799C15.947 11.2814 15.6927 11.282 15.4654 11.2824H15.4651H15.4649L15.4626 11.2824L15.4525 11.2824C15.2741 11.2828 15.1143 11.2831 15.0461 11.2831C14.8508 11.2831 14.7279 11.108 14.7279 10.9649V9.73367ZM14.7239 15.115V13.9432C14.7239 13.8001 14.8468 13.625 15.0421 13.625C15.1102 13.625 15.27 13.6253 15.4484 13.6257L15.4585 13.6257L15.4608 13.6257C15.6882 13.6262 15.9429 13.6267 16.0758 13.6267H16.9917C17.187 13.6267 17.3099 13.8018 17.3099 13.9449V15.115V23.4293C17.3099 23.5725 17.187 23.7475 16.9917 23.7475H16.0758C15.9429 23.7475 15.6882 23.7481 15.4608 23.7485C15.2775 23.7489 15.1118 23.7492 15.0421 23.7492C14.8468 23.7492 14.7239 23.5741 14.7239 23.431V15.115Z" fill="#44A1FF"/>
</svg>
