<svg width="24" height="24" viewBox="0 0 24 24" fill="none" xmlns="http://www.w3.org/2000/svg">
<path fill-rule="evenodd" clip-rule="evenodd" d="M13.7057 10.5685C14.2088 9.04475 15.6012 8 17.2076 8C19.2497 8 21 9.7438 21 12C21 14.2546 19.3178 15.9901 17.2256 16C15.5991 15.8753 14.1987 14.8143 13.6372 13.2837C13.5649 13.0868 13.3775 12.9559 13.1678 12.9559H11.2988L10.4366 12.052C10.3422 11.953 10.2115 11.8971 10.0748 11.8971H9.3804C9.2381 11.8971 9.10254 11.9577 9.00769 12.0638L8.20992 12.9559H7.5114L6.7123 12.1181C6.61795 12.0192 6.4872 11.9632 6.3505 11.9632H5.65615C5.52504 11.9632 5.39917 12.0147 5.30566 12.1066L4.4416 12.9559H4.22274L3.20546 11.9338L4.22274 10.9118H13.2309C13.4466 10.9118 13.638 10.7734 13.7057 10.5685ZM17.2076 7C15.2779 7 13.6048 8.17985 12.884 9.91176H4.01495C3.88194 9.91176 3.7544 9.96476 3.66057 10.059L2.14562 11.5811C1.95146 11.7762 1.95146 12.0915 2.14562 12.2865L3.66057 13.8086C3.7544 13.9029 3.88194 13.9559 4.01495 13.9559H4.64618C4.77729 13.9559 4.90315 13.9044 4.99666 13.8125L5.86072 12.9632H6.13644L6.93554 13.801C7.0299 13.8999 7.16064 13.9559 7.29734 13.9559H8.43355C8.57585 13.9559 8.71141 13.8953 8.80627 13.7892L9.60404 12.8971H9.86069L10.7229 13.801C10.8173 13.8999 10.948 13.9559 11.0847 13.9559H12.8315C13.6024 15.6832 15.2631 16.8607 17.1716 16.9987C17.1836 16.9996 17.1956 17 17.2076 17C19.9044 17 22 14.7683 22 12C22 9.22679 19.8366 7 17.2076 7ZM17.5811 11.9341C17.5811 11.4933 17.9162 11.1768 18.2804 11.1768C18.6446 11.1768 18.9797 11.4933 18.9797 11.9341C18.9797 12.3749 18.6446 12.6915 18.2804 12.6915C17.9162 12.6915 17.5811 12.3749 17.5811 11.9341ZM18.2804 10.1768C17.3199 10.1768 16.5811 10.9861 16.5811 11.9341C16.5811 12.8821 17.3199 13.6915 18.2804 13.6915C19.2409 13.6915 19.9797 12.8821 19.9797 11.9341C19.9797 10.9861 19.2409 10.1768 18.2804 10.1768Z" fill="#141414"/>
</svg>
