<svg width="16" height="16" viewBox="0 0 16 16" fill="none" xmlns="http://www.w3.org/2000/svg">
<path fill-rule="evenodd" clip-rule="evenodd" d="M5.50016 2.33325C5.50016 2.05711 5.27631 1.83325 5.00016 1.83325C4.72402 1.83325 4.50016 2.05711 4.50016 2.33325V3.99992C4.50016 4.27606 4.72402 4.49992 5.00016 4.49992C5.27631 4.49992 5.50016 4.27606 5.50016 3.99992V2.33325ZM11.5002 2.33325C11.5002 2.05711 11.2763 1.83325 11.0002 1.83325C10.724 1.83325 10.5002 2.05711 10.5002 2.33325V3.99992C10.5002 4.27606 10.724 4.49992 11.0002 4.49992C11.2763 4.49992 11.5002 4.27606 11.5002 3.99992V2.33325ZM3.66683 5.83325C3.39069 5.83325 3.16683 6.05711 3.16683 6.33325V8.33325C3.16683 8.60939 3.39069 8.83325 3.66683 8.83325H5.66683C5.94297 8.83325 6.16683 8.60939 6.16683 8.33325V6.33325C6.16683 6.05711 5.94297 5.83325 5.66683 5.83325H3.66683ZM4.16683 7.83325V6.83325H5.16683V7.83325H4.16683ZM3.66683 9.83325C3.39069 9.83325 3.16683 10.0571 3.16683 10.3333V12.3333C3.16683 12.6094 3.39069 12.8333 3.66683 12.8333H5.66683C5.94297 12.8333 6.16683 12.6094 6.16683 12.3333V10.3333C6.16683 10.0571 5.94297 9.83325 5.66683 9.83325H3.66683ZM4.16683 11.8333V10.8333H5.16683V11.8333H4.16683ZM6.50016 6.33325C6.50016 6.05711 6.72402 5.83325 7.00016 5.83325H9.00016C9.27631 5.83325 9.50016 6.05711 9.50016 6.33325V8.33325C9.50016 8.60939 9.27631 8.83325 9.00016 8.83325H7.00016C6.72402 8.83325 6.50016 8.60939 6.50016 8.33325V6.33325ZM7.50016 6.83325V7.83325H8.50016V6.83325H7.50016ZM7.00016 9.83325C6.72402 9.83325 6.50016 10.0571 6.50016 10.3333V12.3333C6.50016 12.6094 6.72402 12.8333 7.00016 12.8333H9.00016C9.27631 12.8333 9.50016 12.6094 9.50016 12.3333V10.3333C9.50016 10.0571 9.27631 9.83325 9.00016 9.83325H7.00016ZM7.50016 11.8333V10.8333H8.50016V11.8333H7.50016ZM9.8335 6.33325C9.8335 6.05711 10.0574 5.83325 10.3335 5.83325H12.3335C12.6096 5.83325 12.8335 6.05711 12.8335 6.33325V8.33325C12.8335 8.60939 12.6096 8.83325 12.3335 8.83325H10.3335C10.0574 8.83325 9.8335 8.60939 9.8335 8.33325V6.33325ZM10.8335 6.83325V7.83325H11.8335V6.83325H10.8335ZM10.3335 9.83325C10.0574 9.83325 9.8335 10.0571 9.8335 10.3333V12.3333C9.8335 12.6094 10.0574 12.8333 10.3335 12.8333H12.3335C12.6096 12.8333 12.8335 12.6094 12.8335 12.3333V10.3333C12.8335 10.0571 12.6096 9.83325 12.3335 9.83325H10.3335ZM10.8335 11.8333V10.8333H11.8335V11.8333H10.8335ZM2.3335 3.16659C2.05735 3.16659 1.8335 3.39044 1.8335 3.66659V13.6666C1.8335 13.9427 2.05735 14.1666 2.3335 14.1666H11.3335H13.6668C13.943 14.1666 14.1668 13.9427 14.1668 13.6666V10.9999V3.66659C14.1668 3.39044 13.943 3.16659 13.6668 3.16659H12.1656C11.8895 3.16659 11.6656 3.39044 11.6656 3.66659C11.6656 3.94273 11.8895 4.16659 12.1656 4.16659H13.1668V10.9999V13.1666H11.3335H2.8335V4.16659H3.82176C4.0979 4.16659 4.32176 3.94273 4.32176 3.66659C4.32176 3.39044 4.0979 3.16659 3.82176 3.16659H2.3335ZM6.16478 3.16659C5.88864 3.16659 5.66478 3.39044 5.66478 3.66659C5.66478 3.94273 5.88864 4.16659 6.16478 4.16659H9.82757C10.1037 4.16659 10.3276 3.94273 10.3276 3.66659C10.3276 3.39044 10.1037 3.16659 9.82757 3.16659H6.16478Z" fill="#888B8D"/>
</svg>
