<svg width="19" height="18" viewBox="0 0 19 18" fill="none" xmlns="http://www.w3.org/2000/svg">
<path fill-rule="evenodd" clip-rule="evenodd" d="M18.8239 0.119077C18.74 0.0477039 18.6323 0.00353019 18.5144 0.00019872L18.4979 -4.27184e-06H7.5C7.22386 -4.27184e-06 7 0.223853 7 0.499996V6.5C7 6.77614 7.22386 7 7.5 7C7.77614 7 8 6.77614 8 6.5V0.999996H14.8434L11.3658 1.96917C11.1496 2.02942 11 2.22637 11 2.45082V15H8V11.5C8 11.2239 7.77614 11 7.5 11C7.22386 11 7 11.2239 7 11.5V15.5C7 15.7761 7.22386 16 7.5 16H11V17.5C11 17.6563 11.0731 17.8036 11.1976 17.8982C11.3221 17.9927 11.4837 18.0236 11.6342 17.9816L18.6342 16.0308C18.8505 15.9706 19 15.7736 19 15.5492V0.499996C19 0.489735 18.9997 0.479513 18.9991 0.469343C18.9925 0.361109 18.9516 0.262165 18.887 0.183323C18.868 0.160216 18.847 0.138693 18.8239 0.119077ZM12 2.83052L18 1.1584V15.1695L12 16.8416V2.83052ZM4.82925 5.87629C5.03707 5.69445 5.05813 5.37857 4.87629 5.17075C4.69445 4.96293 4.37857 4.94187 4.17075 5.12371L0.170748 8.62371C0.0622402 8.71866 0 8.85582 0 9C0 9.14418 0.0622402 9.28134 0.170748 9.37629L4.17075 12.8763C4.37857 13.0581 4.69445 13.0371 4.87629 12.8293C5.05813 12.6214 5.03707 12.3056 4.82925 12.1237L1.83072 9.5H8.5C8.77614 9.5 9 9.27614 9 9C9 8.72386 8.77614 8.5 8.5 8.5H1.83072L4.82925 5.87629Z" fill=""/>
</svg>
