<svg width="24" height="24" viewBox="0 0 24 24" fill="none" xmlns="http://www.w3.org/2000/svg">
<path fill-rule="evenodd" clip-rule="evenodd" d="M2 5.5C2 5.22386 2.22386 5 2.5 5H21.5C21.7761 5 22 5.22386 22 5.5V18.5C22 18.7761 21.7761 19 21.5 19H2.5C2.22386 19 2 18.7761 2 18.5V5.5ZM3 17.3607V6.63343L9.81286 11.9323L9.17056 12.4441L7.00985 14.1657L3 17.3607ZM3.80236 18H20.1976L16.367 14.9478L14.2063 13.2262L13.3751 12.5639L12.307 13.3947C12.1264 13.5351 11.8736 13.5351 11.693 13.3947L10.6249 12.5639L9.79372 13.2262L7.63301 14.9478L3.80236 18ZM14.1871 11.9323L14.8294 12.4441L16.9902 14.1657L21 17.3607V6.63343L14.1871 11.9323ZM12 12.3666L3.81441 6H20.1856L12 12.3666Z" fill="#53565A"/>
</svg>
