<svg width="21" height="21" viewBox="0 0 21 21" fill="none" xmlns="http://www.w3.org/2000/svg">
<path fill-rule="evenodd" clip-rule="evenodd" d="M9.84705 0.0873445C10.0173 -0.0291173 10.2415 -0.0291173 10.4117 0.0873445L19.9117 6.58734C20.0479 6.68054 20.1294 6.83495 20.1294 7V20C20.1294 20.2761 19.9055 20.5 19.6294 20.5H0.629395C0.353252 20.5 0.129395 20.2761 0.129395 20V7C0.129395 6.83495 0.210841 6.68054 0.347053 6.58734L9.84705 0.0873445ZM1.12939 8.13931V18.8666L7.94225 13.5677L7.29996 13.0559L5.13924 11.3343L1.12939 8.13931ZM1.3993 7.07906C1.41354 7.08821 1.42745 7.09818 1.44097 7.10895L5.7624 10.5522L7.92312 12.2738L8.7543 12.9361L9.82242 12.1053C10.003 11.9649 10.2558 11.9649 10.4364 12.1053L11.5045 12.9361L12.3357 12.2738L14.4964 10.5522L18.8178 7.10895C18.8313 7.09817 18.8453 7.08821 18.8595 7.07906L10.1294 1.10583L1.3993 7.07906ZM19.1294 8.13931L15.1195 11.3343L12.9588 13.0559L12.3165 13.5677L19.1294 18.8666V8.13931ZM18.315 19.5H1.94381L10.1294 13.1334L18.315 19.5Z" fill="#53565A"/>
</svg>
