<svg width="32" height="33" viewBox="0 0 32 33" fill="none" xmlns="http://www.w3.org/2000/svg">
<path fill-rule="evenodd" clip-rule="evenodd" d="M23.5126 4.98671C24.4457 5.12001 25.1759 5.57525 25.5788 5.97814C25.6877 6.08701 25.7403 6.23997 25.7215 6.39278C25.7027 6.5456 25.6145 6.68122 25.4825 6.76044L22.4076 8.6054C22.471 9.16335 22.7211 9.68661 23.0475 10.1392C23.3164 10.5122 23.6237 10.818 23.882 11.0326L26.9129 8.60792C27.0406 8.5058 27.2101 8.47253 27.3669 8.51883C27.5237 8.56513 27.6479 8.68515 27.6996 8.84024C27.979 9.67856 27.9853 11.6121 26.2455 13.3519C24.6676 14.9298 22.9371 14.7225 21.9808 14.2833L21.5788 14.6852C21.3836 14.8805 21.067 14.8805 20.8717 14.6852C20.6764 14.49 20.6764 14.1734 20.8717 13.9781L21.5384 13.3115C21.7069 13.1429 21.971 13.1168 22.1693 13.249C22.6882 13.5949 24.1464 14.0367 25.5384 12.6448C26.5142 11.6689 26.801 10.6605 26.8346 9.95117L24.2043 12.0555C24.0342 12.1915 23.7957 12.2018 23.6146 12.081C23.2349 11.8279 22.6904 11.3537 22.2364 10.7242C21.7823 10.0945 21.3919 9.2714 21.3919 8.33169C21.3919 8.15606 21.4841 7.9933 21.6347 7.90294L24.3234 6.28971C24.0617 6.1493 23.7391 6.02921 23.3712 5.97666C22.6896 5.87928 21.8222 6.00897 20.8586 6.73169C18.9776 8.14244 19.2993 10.0285 19.6725 10.7748C19.7687 10.9673 19.731 11.1998 19.5788 11.3519L19.2745 11.6563C19.0792 11.8516 18.7626 11.8516 18.5673 11.6563C18.3721 11.461 18.3721 11.1444 18.5673 10.9492L18.6338 10.8827C18.2128 9.71726 18.1046 7.54719 20.2586 5.93169C21.4283 5.05441 22.561 4.85076 23.5126 4.98671ZM10.5466 19.677C10.7419 19.8722 10.7419 20.1888 10.5466 20.3841L9.43972 21.491C10.3122 21.8765 11.0138 22.578 11.3995 23.4503L12.8723 21.9775C13.0676 21.7822 13.3842 21.7822 13.5794 21.9775C13.7747 22.1728 13.7747 22.4893 13.5794 22.6846L11.7008 24.5633C11.7169 24.7063 11.7253 24.8517 11.7253 24.999C11.7253 27.1161 10.009 28.8324 7.89193 28.8324C5.77484 28.8324 4.05859 27.1161 4.05859 24.999C4.05859 22.8819 5.77484 21.1657 7.89193 21.1657C8.03885 21.1657 8.18384 21.174 8.32647 21.19L9.83953 19.677C10.0348 19.4817 10.3514 19.4817 10.5466 19.677ZM7.89193 22.1657C6.32712 22.1657 5.05859 23.4342 5.05859 24.999C5.05859 26.5638 6.32712 27.8324 7.89193 27.8324C9.45673 27.8324 10.7253 26.5638 10.7253 24.999C10.7253 23.4342 9.45673 22.1657 7.89193 22.1657ZM5.53837 5.31083C5.73364 5.11557 6.05022 5.11557 6.24548 5.31083L15.2253 14.2906L16.205 13.3108C16.4003 13.1156 16.7169 13.1156 16.9121 13.3108L18.2455 14.6442C18.3065 14.7052 18.3507 14.7811 18.3738 14.8643L18.3738 14.8643L18.3738 14.8644L18.3739 14.8646L18.3747 14.8674L18.3784 14.8806C18.3819 14.8926 18.3873 14.9111 18.3945 14.9353C18.409 14.9837 18.4309 15.0549 18.4597 15.1433C18.5177 15.3206 18.6031 15.565 18.7127 15.8331C18.9394 16.3879 19.2423 16.9743 19.5788 17.3108C19.9335 17.6656 20.4314 17.9687 20.9071 18.1844C21.1421 18.291 21.3625 18.372 21.5445 18.4254C21.7377 18.4822 21.8535 18.4977 21.8919 18.4977C22.0245 18.4977 22.1517 18.5504 22.2455 18.6442L26.9121 23.3108C27.3021 23.7007 27.765 24.3918 27.9021 25.234C28.0443 26.1073 27.8274 27.1027 26.9121 28.0179C25.9969 28.9332 25.0015 29.15 24.1283 29.0079C23.286 28.8708 22.595 28.4078 22.205 28.0179L17.5384 23.3513C17.4446 23.2575 17.3919 23.1303 17.3919 22.9977C17.3919 22.6886 17.1799 21.6594 16.205 20.6846C15.2302 19.7098 14.2011 19.4977 13.8919 19.4977C13.7593 19.4977 13.6321 19.445 13.5384 19.3513L12.205 18.0179C12.1113 17.9242 12.0586 17.797 12.0586 17.6644C12.0586 17.5318 12.1113 17.4046 12.205 17.3108L13.1848 16.3311L4.20504 7.35127C4.11127 7.2575 4.05859 7.13033 4.05859 6.99772C4.05859 6.86511 4.11127 6.73793 4.20504 6.64417L5.53837 5.31083ZM14.2455 16.6846L15.5788 15.3513L16.5586 14.3715L17.4483 15.2612C17.464 15.3126 17.4843 15.3777 17.5092 15.4539C17.5727 15.648 17.6662 15.9159 17.787 16.2115C18.0211 16.7842 18.385 17.5312 18.8717 18.0179C19.3403 18.4865 19.9535 18.85 20.4942 19.0952C20.7674 19.219 21.0315 19.317 21.2626 19.3849C21.3983 19.4248 21.5364 19.4584 21.6655 19.4783L26.205 24.0179C26.4818 24.2947 26.8189 24.8036 26.9151 25.3947C27.0063 25.9548 26.8898 26.6261 26.205 27.3108C25.5203 27.9956 24.849 28.1121 24.2889 28.0209C23.6978 27.9247 23.1889 27.5876 22.9121 27.3108L18.3791 22.7778C18.3095 22.1325 17.941 21.0063 16.9121 19.9775C15.8833 18.9487 14.7571 18.5801 14.1118 18.5105L13.2657 17.6644L14.2455 16.6846ZM5.89193 6.37149L14.5182 14.9977L13.8919 15.6239L5.2657 6.99772L5.89193 6.37149Z" fill="#141414"/>
</svg>
