<svg width="25" height="24" viewBox="0 0 25 24" fill="none" xmlns="http://www.w3.org/2000/svg">
<path fill-rule="evenodd" clip-rule="evenodd" d="M15.2742 2.54902C15.4262 2.47624 15.6046 2.48495 15.7488 2.57217L21.2248 5.88417C21.3746 5.97473 21.4661 6.137 21.4661 6.312V21C21.4661 21.1805 21.3688 21.3469 21.2116 21.4355C21.0545 21.5242 20.8617 21.5212 20.7073 21.4278L15.4597 18.254L9.67756 20.9531C9.54964 21.0128 9.40244 21.0156 9.27231 20.9609L3.77231 18.6489C3.58675 18.5709 3.46606 18.3893 3.46606 18.188V3.5C3.46606 3.33156 3.55087 3.17445 3.69168 3.08201C3.83249 2.98958 4.01037 2.97426 4.16491 3.04124L9.45576 5.33458L15.2742 2.54902ZM8.96606 6.21222L4.46606 4.26168V17.8558L8.96606 19.7474V6.21222ZM9.96606 19.7148L14.9901 17.3696V3.79372L9.96606 6.19897V19.7148ZM15.9901 3.88675V17.4061L20.4661 20.1133V6.59393L15.9901 3.88675Z" fill="#53565A"/>
</svg>
