<svg width="25" height="24" viewBox="0 0 25 24" fill="none" xmlns="http://www.w3.org/2000/svg">
<path fill-rule="evenodd" clip-rule="evenodd" d="M12.4773 2.96313C11.0206 2.96313 9.84705 4.13837 9.84705 5.58541V11.8617C9.84705 13.3088 11.0206 14.484 12.4773 14.484C13.9339 14.484 15.1075 13.3088 15.1075 11.8617V5.58541C15.1075 4.13837 13.9339 2.96313 12.4773 2.96313ZM8.84705 5.58541C8.84705 3.58443 10.47 1.96313 12.4773 1.96313C14.4845 1.96313 16.1075 3.58443 16.1075 5.58541V11.8617C16.1075 13.8627 14.4845 15.484 12.4773 15.484C10.47 15.484 8.84705 13.8627 8.84705 11.8617V5.58541ZM12.9693 17.9666C16.1292 17.7165 18.6101 15.078 18.6101 11.8532C18.6101 11.5771 18.3862 11.3532 18.1101 11.3532C17.8339 11.3532 17.6101 11.5771 17.6101 11.8532C17.6101 14.6914 15.3155 16.986 12.4773 16.986C9.63909 16.986 7.34448 14.6914 7.34448 11.8532C7.34448 11.5771 7.12062 11.3532 6.84448 11.3532C6.56833 11.3532 6.34448 11.5771 6.34448 11.8532C6.34448 15.0726 8.81708 17.7077 11.9693 17.9653V21.5379C11.9693 21.8141 12.1932 22.0379 12.4693 22.0379C12.7455 22.0379 12.9693 21.8141 12.9693 21.5379V17.9666ZM5.83507 2.66807C5.95369 2.91744 5.8477 3.21575 5.59833 3.33437C4.29761 3.95309 3.40754 5.28014 3.42859 6.81657C3.44961 8.35087 4.38086 9.65194 5.69966 10.2443C5.95155 10.3575 6.06403 10.6534 5.95088 10.9053C5.83773 11.1572 5.5418 11.2697 5.2899 11.1565C3.63738 10.4142 2.45533 8.77576 2.42868 6.83027C2.40206 4.88692 3.52995 3.21087 5.16878 2.43132C5.41814 2.31271 5.71646 2.4187 5.83507 2.66807ZM6.86152 5.50439C7.11089 5.38579 7.2169 5.08748 7.0983 4.83811C6.97969 4.58873 6.68139 4.48272 6.43201 4.60133C5.61594 4.98946 5.03821 5.8218 5.05844 6.80306C5.0785 7.77553 5.66219 8.58814 6.49085 8.95754C6.74307 9.06998 7.03868 8.95666 7.15111 8.70444C7.26354 8.45223 7.15023 8.15662 6.89801 8.04419C6.40785 7.82568 6.06996 7.35125 6.05823 6.78244C6.04669 6.22243 6.37466 5.73595 6.86152 5.50439ZM19.0975 2.66712C19.2166 2.418 19.5152 2.31263 19.7643 2.43178C21.3931 3.21079 22.53 4.88568 22.5034 6.83027C22.4768 8.77576 21.2947 10.4142 19.6422 11.1565C19.3903 11.2697 19.0944 11.1572 18.9812 10.9053C18.8681 10.6534 18.9805 10.3575 19.2324 10.2443C20.5512 9.65194 21.4825 8.35087 21.5035 6.81657C21.5245 5.28138 20.6276 3.95317 19.3328 3.33391C19.0837 3.21477 18.9783 2.91623 19.0975 2.66712ZM18.5001 4.60133C18.2507 4.48272 17.9524 4.58873 17.8338 4.83811C17.7152 5.08748 17.8212 5.38579 18.0706 5.50439C18.5574 5.73595 18.8854 6.22243 18.8739 6.78244C18.8621 7.35125 18.5243 7.82568 18.0341 8.04419C17.7819 8.15662 17.6686 8.45223 17.781 8.70444C17.8934 8.95666 18.189 9.06998 18.4412 8.95754C19.2699 8.58814 19.8536 7.77553 19.8737 6.80306C19.8939 5.8218 19.3162 4.98946 18.5001 4.60133Z" fill="#53565A"/>
</svg>
