<svg width="25" height="24" viewBox="0 0 25 24" fill="none" xmlns="http://www.w3.org/2000/svg">
<path fill-rule="evenodd" clip-rule="evenodd" d="M2.93188 7.5C2.93188 7.22386 3.15574 7 3.43188 7H22.4319C22.708 7 22.9319 7.22386 22.9319 7.5V16.5C22.9319 16.7761 22.708 17 22.4319 17H3.43188C3.15574 17 2.93188 16.7761 2.93188 16.5V7.5ZM3.93188 8V16L17.4319 16L17.4319 8L3.93188 8ZM21.1723 11.745C21.1723 11.335 21.1239 10.99 21.0273 10.71C20.9306 10.4333 20.7889 10.245 20.6023 10.145C20.4256 10.0483 20.2089 10 19.9523 10C19.6823 10 19.4539 10.0483 19.2673 10.145C19.0806 10.245 18.9406 10.4333 18.8473 10.71C18.8006 10.85 18.7656 11.005 18.7423 11.175C18.7189 11.345 18.7073 11.535 18.7073 11.745C18.7073 11.955 18.7189 12.145 18.7423 12.315C18.7656 12.4817 18.8006 12.635 18.8473 12.775C18.9439 13.065 19.0839 13.2583 19.2673 13.355C19.4539 13.4517 19.6823 13.5 19.9523 13.5C20.2123 13.5 20.4289 13.4517 20.6023 13.355C20.6989 13.305 20.7806 13.2317 20.8473 13.135C20.9173 13.0383 20.9773 12.9183 21.0273 12.775C21.0739 12.635 21.1089 12.4817 21.1323 12.315C21.1589 12.145 21.1723 11.955 21.1723 11.745ZM20.7173 12.18C20.7073 12.3133 20.6889 12.4333 20.6623 12.54C20.6056 12.7567 20.5156 12.9017 20.3923 12.975C20.2689 13.0517 20.1223 13.09 19.9523 13.09C19.8623 13.09 19.7789 13.0817 19.7023 13.065C19.6289 13.045 19.5589 13.0167 19.4923 12.98C19.4256 12.9433 19.3689 12.8883 19.3223 12.815C19.2756 12.7383 19.2389 12.6467 19.2123 12.54C19.1823 12.4267 19.1623 12.305 19.1523 12.175C19.1456 12.0417 19.1423 11.8917 19.1423 11.725C19.1423 11.3983 19.1689 11.135 19.2223 10.935C19.2489 10.8383 19.2839 10.755 19.3273 10.685C19.3706 10.6117 19.4256 10.5567 19.4923 10.52C19.6189 10.4467 19.7723 10.41 19.9523 10.41C20.1189 10.41 20.2656 10.4467 20.3923 10.52C20.4523 10.5567 20.5056 10.6117 20.5523 10.685C20.5989 10.755 20.6339 10.8383 20.6573 10.935C20.6839 11.0383 20.7039 11.155 20.7173 11.285C20.7306 11.4117 20.7373 11.5583 20.7373 11.725C20.7373 11.895 20.7306 12.0467 20.7173 12.18ZM7.67228 11.745C7.67228 11.335 7.62394 10.99 7.52728 10.71C7.43061 10.4333 7.28894 10.245 7.10228 10.145C6.92561 10.0483 6.70894 10 6.45228 10C6.18228 10 5.95394 10.0483 5.76728 10.145C5.58061 10.245 5.44061 10.4333 5.34728 10.71C5.30061 10.85 5.26561 11.005 5.24228 11.175C5.21894 11.345 5.20728 11.535 5.20728 11.745C5.20728 11.955 5.21894 12.145 5.24228 12.315C5.26561 12.4817 5.30061 12.635 5.34728 12.775C5.44394 13.065 5.58394 13.2583 5.76728 13.355C5.95394 13.4517 6.18228 13.5 6.45228 13.5C6.71228 13.5 6.92894 13.4517 7.10228 13.355C7.19894 13.305 7.28061 13.2317 7.34728 13.135C7.41728 13.0383 7.47728 12.9183 7.52728 12.775C7.57394 12.635 7.60894 12.4817 7.63228 12.315C7.65894 12.145 7.67228 11.955 7.67228 11.745ZM7.21728 12.18C7.20728 12.3133 7.18894 12.4333 7.16228 12.54C7.10561 12.7567 7.01561 12.9017 6.89228 12.975C6.76894 13.0517 6.62228 13.09 6.45228 13.09C6.36228 13.09 6.27894 13.0817 6.20228 13.065C6.12894 13.045 6.05894 13.0167 5.99228 12.98C5.92561 12.9433 5.86894 12.8883 5.82228 12.815C5.77561 12.7383 5.73894 12.6467 5.71228 12.54C5.68228 12.4267 5.66228 12.305 5.65228 12.175C5.64561 12.0417 5.64228 11.8917 5.64228 11.725C5.64228 11.3983 5.66894 11.135 5.72228 10.935C5.74894 10.8383 5.78394 10.755 5.82728 10.685C5.87061 10.6117 5.92561 10.5567 5.99228 10.52C6.11894 10.4467 6.27228 10.41 6.45228 10.41C6.61894 10.41 6.76561 10.4467 6.89228 10.52C6.95228 10.5567 7.00561 10.6117 7.05228 10.685C7.09894 10.755 7.13394 10.8383 7.15728 10.935C7.18394 11.0383 7.20394 11.155 7.21728 11.285C7.23061 11.4117 7.23728 11.5583 7.23728 11.725C7.23728 11.895 7.23061 12.0467 7.21728 12.18ZM11.6723 11.745C11.6723 11.335 11.6239 10.99 11.5273 10.71C11.4306 10.4333 11.2889 10.245 11.1023 10.145C10.9256 10.0483 10.7089 10 10.4523 10C10.1823 10 9.95394 10.0483 9.76728 10.145C9.58061 10.245 9.44061 10.4333 9.34728 10.71C9.30061 10.85 9.26561 11.005 9.24228 11.175C9.21894 11.345 9.20728 11.535 9.20728 11.745C9.20728 11.955 9.21894 12.145 9.24228 12.315C9.26561 12.4817 9.30061 12.635 9.34728 12.775C9.44394 13.065 9.58394 13.2583 9.76728 13.355C9.95394 13.4517 10.1823 13.5 10.4523 13.5C10.7123 13.5 10.9289 13.4517 11.1023 13.355C11.1989 13.305 11.2806 13.2317 11.3473 13.135C11.4173 13.0383 11.4773 12.9183 11.5273 12.775C11.5739 12.635 11.6089 12.4817 11.6323 12.315C11.6589 12.145 11.6723 11.955 11.6723 11.745ZM11.2173 12.18C11.2073 12.3133 11.1889 12.4333 11.1623 12.54C11.1056 12.7567 11.0156 12.9017 10.8923 12.975C10.7689 13.0517 10.6223 13.09 10.4523 13.09C10.3623 13.09 10.2789 13.0817 10.2023 13.065C10.1289 13.045 10.0589 13.0167 9.99228 12.98C9.92561 12.9433 9.86894 12.8883 9.82228 12.815C9.77561 12.7383 9.73894 12.6467 9.71228 12.54C9.68228 12.4267 9.66228 12.305 9.65228 12.175C9.64561 12.0417 9.64228 11.8917 9.64228 11.725C9.64228 11.3983 9.66894 11.135 9.72228 10.935C9.74894 10.8383 9.78394 10.755 9.82728 10.685C9.87061 10.6117 9.92561 10.5567 9.99228 10.52C10.1189 10.4467 10.2723 10.41 10.4523 10.41C10.6189 10.41 10.7656 10.4467 10.8923 10.52C10.9523 10.5567 11.0056 10.6117 11.0523 10.685C11.0989 10.755 11.1339 10.8383 11.1573 10.935C11.1839 11.0383 11.2039 11.155 11.2173 11.285C11.2306 11.4117 11.2373 11.5583 11.2373 11.725C11.2373 11.895 11.2306 12.0467 11.2173 12.18ZM15.5273 10.71C15.6239 10.99 15.6723 11.335 15.6723 11.745C15.6723 11.955 15.6589 12.145 15.6323 12.315C15.6089 12.4817 15.5739 12.635 15.5273 12.775C15.4773 12.9183 15.4173 13.0383 15.3473 13.135C15.2806 13.2317 15.1989 13.305 15.1023 13.355C14.9289 13.4517 14.7123 13.5 14.4523 13.5C14.1823 13.5 13.9539 13.4517 13.7673 13.355C13.5839 13.2583 13.4439 13.065 13.3473 12.775C13.3006 12.635 13.2656 12.4817 13.2423 12.315C13.2189 12.145 13.2073 11.955 13.2073 11.745C13.2073 11.535 13.2189 11.345 13.2423 11.175C13.2656 11.005 13.3006 10.85 13.3473 10.71C13.4406 10.4333 13.5806 10.245 13.7673 10.145C13.9539 10.0483 14.1823 10 14.4523 10C14.7089 10 14.9256 10.0483 15.1023 10.145C15.2889 10.245 15.4306 10.4333 15.5273 10.71ZM15.1623 12.54C15.1889 12.4333 15.2073 12.3133 15.2173 12.18C15.2306 12.0467 15.2373 11.895 15.2373 11.725C15.2373 11.5583 15.2306 11.4117 15.2173 11.285C15.2039 11.155 15.1839 11.0383 15.1573 10.935C15.1339 10.8383 15.0989 10.755 15.0523 10.685C15.0056 10.6117 14.9523 10.5567 14.8923 10.52C14.7656 10.4467 14.6189 10.41 14.4523 10.41C14.2723 10.41 14.1189 10.4467 13.9923 10.52C13.9256 10.5567 13.8706 10.6117 13.8273 10.685C13.7839 10.755 13.7489 10.8383 13.7223 10.935C13.6689 11.135 13.6423 11.3983 13.6423 11.725C13.6423 11.8917 13.6456 12.0417 13.6523 12.175C13.6623 12.305 13.6823 12.4267 13.7123 12.54C13.7389 12.6467 13.7756 12.7383 13.8223 12.815C13.8689 12.8883 13.9256 12.9433 13.9923 12.98C14.0589 13.0167 14.1289 13.045 14.2023 13.065C14.2789 13.0817 14.3623 13.09 14.4523 13.09C14.6223 13.09 14.7689 13.0517 14.8923 12.975C15.0156 12.9017 15.1056 12.7567 15.1623 12.54Z" fill="#53565A"/>
</svg>
