<svg width="18" height="18" viewBox="0 0 18 18" fill="none" xmlns="http://www.w3.org/2000/svg">
<path fill-rule="evenodd" clip-rule="evenodd" d="M12.101 1.04303L16.9716 5.91363L16.2753 6.60995C16.2711 6.61416 16.267 6.61846 16.2629 6.62282C16.198 6.69253 16.1193 6.74785 16.0319 6.78522C15.9444 6.8226 15.8504 6.84116 15.7558 6.83982C15.6612 6.83849 15.5681 6.81731 15.4827 6.77776C15.3972 6.73821 15.3211 6.68115 15.2593 6.61029C15.1584 6.49455 15.0099 6.43161 14.8565 6.43961C14.7031 6.4476 14.562 6.52562 14.4736 6.65122L10.2707 12.625C10.1304 12.8245 10.1544 13.096 10.3275 13.2677C10.5105 13.4493 10.6557 13.6655 10.7546 13.9038C10.8535 14.1422 10.9043 14.3981 10.9038 14.6568C10.9033 14.9155 10.8515 15.1719 10.7515 15.4111C10.6514 15.6504 10.5051 15.8678 10.3208 16.0506L10.3193 16.052L9.97297 16.3984L1.2677 7.69308L1.61405 7.34672C1.95849 7.00229 2.50357 6.85811 3.12316 6.9323C3.74127 7.00632 4.35105 7.29127 4.74837 7.68859C4.92113 7.86135 5.19345 7.88396 5.39234 7.74204L11.3313 3.50429C11.4555 3.41565 11.5325 3.27515 11.5402 3.12275C11.548 2.97035 11.4857 2.82274 11.3712 2.72193C11.3035 2.66236 11.2494 2.58892 11.2125 2.5065C11.1755 2.42407 11.1566 2.33448 11.1572 2.24371C11.1577 2.15293 11.1777 2.06307 11.2159 1.98021C11.2541 1.89735 11.3096 1.82349 11.3786 1.76365C11.3876 1.75586 11.3963 1.74776 11.4047 1.73934L12.101 1.04303ZM17.9048 5.50214C17.8476 5.38399 17.7665 5.2792 17.6666 5.19438L12.8164 0.344194C12.7298 0.245954 12.6239 0.166575 12.5051 0.11108C12.3781 0.0517578 12.2397 0.0212176 12.0997 0.0214861C11.9597 0.0217582 11.8215 0.0528246 11.6949 0.112349C11.5765 0.168054 11.4708 0.247439 11.3844 0.345464L10.7091 1.02076C10.5394 1.17135 10.4027 1.35553 10.3077 1.56169C10.21 1.77375 10.1586 2.00423 10.1572 2.23769C10.1558 2.47117 10.2044 2.70222 10.2998 2.91528C10.3107 2.93958 10.3222 2.96359 10.3342 2.98728L5.1323 6.69912C4.59434 6.28735 3.91569 6.02007 3.24207 5.9394C2.42646 5.84173 1.53539 6.01118 0.906947 6.63962L0.207037 7.33953C0.0117741 7.53479 0.0117746 7.85137 0.207037 8.04663L4.71982 12.5594L0.174767 17.1045C-0.0204951 17.2997 -0.0204953 17.6163 0.174767 17.8116C0.370029 18.0068 0.686612 18.0068 0.881874 17.8116L5.42692 13.2665L9.61942 17.459C9.81468 17.6543 10.1313 17.6543 10.3265 17.459L11.025 16.7605L10.6729 16.4056L11.0264 16.7591L11.0257 16.7598C11.303 16.4846 11.5234 16.1573 11.6741 15.7969C11.8249 15.4362 11.903 15.0494 11.9038 14.6587C11.9045 14.268 11.8279 13.8812 11.6783 13.5205C11.5836 13.2924 11.4609 13.0776 11.3133 12.881L14.9929 7.65099C15.0159 7.66295 15.0391 7.67439 15.0627 7.6853C15.2757 7.78385 15.507 7.83642 15.7417 7.83973C15.9764 7.84303 16.2091 7.79699 16.425 7.70472C16.6378 7.61373 16.8295 7.47976 16.9882 7.31129L17.6653 6.63413C17.765 6.54944 17.8462 6.44491 17.9035 6.32706C17.966 6.19872 17.9987 6.05783 17.999 5.91495C17.9993 5.77205 17.9671 5.63089 17.9048 5.50214ZM5.1323 6.69912C5.24687 6.78682 5.35507 6.88108 5.45547 6.98148L5.10192 7.33503L4.8115 6.92803L5.1323 6.69912ZM10.3342 2.98728L10.6633 2.75249L10.7505 2.69027L10.763 2.70783L11.0409 3.09728L10.7106 3.47263C10.5553 3.336 10.4277 3.17124 10.3342 2.98728ZM10.7091 1.02076L10.7237 1.00793L11.0512 1.38579L10.6976 1.03224L10.7091 1.02076ZM11.3844 0.345464L11.3975 0.332327L11.7511 0.68588L11.3669 0.365878C11.3726 0.358987 11.3785 0.352181 11.3844 0.345464ZM12.8164 0.344194C12.8224 0.350973 12.8283 0.357841 12.834 0.364798L12.4496 0.684532L12.8032 0.330978L12.8164 0.344194ZM17.6393 5.17205C17.6485 5.17933 17.6576 5.18677 17.6666 5.19438L17.6837 5.21147L17.3301 5.56503L17.6393 5.17205Z" fill=""/>
</svg>
