<svg width="48" height="49" viewBox="0 0 48 49" fill="none" xmlns="http://www.w3.org/2000/svg">
<path fill-rule="evenodd" clip-rule="evenodd" d="M23.2667 7.49121C23.0803 7.49121 22.925 7.64647 22.925 7.83282V8.27715V8.34999C22.93 8.39963 22.9298 8.44885 22.925 8.49708V9.81115C22.925 10.2254 22.5893 10.5611 22.175 10.5611C21.7608 10.5611 21.425 10.2254 21.425 9.81115V9.40574C18.6683 10.3349 16.647 12.6626 16.2299 15.5564C16.1871 15.8534 15.9715 16.0957 15.6829 16.1736L15.6772 16.1755C15.6645 16.18 15.6379 16.1902 15.6019 16.2082C15.5298 16.2442 15.4234 16.3097 15.3136 16.4204C15.1783 16.5569 15.0057 16.7944 14.9059 17.2041H33.1676C33.0678 16.7944 32.8952 16.5569 32.7598 16.4204C32.6501 16.3097 32.5437 16.2442 32.4715 16.2082C32.4355 16.1902 32.409 16.18 32.3963 16.1755L32.3909 16.1737L32.3941 16.1745L32.3907 16.1735L31.9084 15.7711C31.8766 15.7043 31.8545 15.6321 31.8436 15.5563C31.4265 12.6597 29.4055 10.3344 26.6485 9.40569V9.81115C26.6485 10.2254 26.3128 10.5611 25.8985 10.5611C25.7829 10.5611 25.6734 10.535 25.5756 10.4882L31.9084 15.7711L31.9085 15.7714L25.5755 10.4882C25.4618 10.4339 25.364 10.3518 25.2908 10.2507L25.2907 10.2506C25.2013 10.1271 25.1485 9.97528 25.1485 9.81115V8.49811C25.1436 8.44922 25.1435 8.3993 25.1485 8.34896V7.83282C25.1485 7.64647 24.9933 7.49121 24.8069 7.49121H23.2667ZM32.3906 16.1736C32.1756 16.1156 32.0012 15.9664 31.9085 15.7714L32.3905 16.1734L32.389 16.173C32.388 16.1727 32.3886 16.1729 32.3906 16.1736ZM32.3906 16.1736L32.3909 16.1736L32.3907 16.1735L32.3906 16.1736ZM26.6485 7.8366V7.83282C26.6485 6.81805 25.8217 5.99121 24.8069 5.99121H23.2667C22.2519 5.99121 21.425 6.81805 21.425 7.83282V7.8366C18.0519 8.78252 15.4742 11.4762 14.8145 14.9289C14.6438 15.0261 14.445 15.166 14.2484 15.3643C13.7447 15.8724 13.3245 16.6936 13.3245 17.9541C13.3245 18.3684 13.6602 18.7041 14.0745 18.7041H15.2668C15.1224 19.3404 15.0449 20.0026 15.0449 20.685C15.0449 24.5242 17.4638 27.8005 20.8602 29.0723C15.8021 29.4579 12.7117 30.8163 10.8668 32.8368C8.67284 35.2396 8.41773 38.3979 8.39651 41.267C8.39344 41.6812 8.72673 42.0195 9.14094 42.0225C9.55514 42.0256 9.8934 41.6923 9.89646 41.2781C9.91763 38.4172 10.1977 35.7941 11.9745 33.8482C13.7457 31.9084 17.1817 30.46 24.0016 30.46C30.8231 30.46 34.2577 31.8977 36.0274 33.8316C37.8023 35.7712 38.082 38.3929 38.1032 41.2781C38.1062 41.6923 38.4444 42.0256 38.8587 42.0225C39.2729 42.0195 39.6062 41.6813 39.6031 41.2671C39.5819 38.3762 39.3281 35.2166 37.134 32.8189C35.289 30.8027 32.1978 29.4535 27.1387 29.0712C30.5335 27.7985 32.9509 24.5231 32.9509 20.685C32.9509 20.0048 32.8734 19.3415 32.7288 18.7041H33.999C34.4132 18.7041 34.749 18.3684 34.749 17.9541C34.749 16.6936 34.3288 15.8724 33.8251 15.3643C33.6285 15.166 33.4298 15.0262 33.2591 14.9289C32.5994 11.4731 30.0215 8.78221 26.6485 7.8366ZM16.5449 20.685C16.5449 19.9977 16.6392 19.3352 16.813 18.7041H31.1827C31.3566 19.3359 31.4509 20.0005 31.4509 20.685C31.4509 24.7997 28.1126 28.1379 23.9979 28.1379C19.8832 28.1379 16.5449 24.7997 16.5449 20.685ZM18.0981 14.2295C17.6839 14.2295 17.3481 14.5653 17.3481 14.9795C17.3481 15.3937 17.6839 15.7295 18.0981 15.7295H29.6713C30.0856 15.7295 30.4213 15.3937 30.4213 14.9795C30.4213 14.5653 30.0856 14.2295 29.6713 14.2295H18.0981Z" fill="#141414"/>
</svg>
