<svg width="25" height="24" viewBox="0 0 25 24" fill="none" xmlns="http://www.w3.org/2000/svg">
<path fill-rule="evenodd" clip-rule="evenodd" d="M11.9449 3.99987C11.9366 4.00823 11.9333 4.01734 11.9333 4.02639V4.27422C11.9358 4.30297 11.9358 4.33149 11.9333 4.35952V5.0016C11.9333 5.27775 11.7095 5.5016 11.4333 5.5016C11.1572 5.5016 10.9333 5.27775 10.9333 5.0016V4.98687C9.70733 5.46578 8.82116 6.53678 8.63165 7.85149C8.60336 8.04774 8.46195 8.20817 8.27206 8.26151C8.26875 8.26276 8.2615 8.26568 8.25138 8.27074C8.22628 8.28328 8.18604 8.30766 8.14357 8.3505C8.11177 8.38257 8.06967 8.43395 8.03202 8.51485H16.6701C16.6325 8.43395 16.5904 8.38257 16.5586 8.3505C16.5161 8.30766 16.4759 8.28328 16.4508 8.27074C16.4407 8.26568 16.4334 8.26276 16.4301 8.26151C16.2402 8.20817 16.0988 8.0477 16.0705 7.85142C15.881 6.53539 14.995 5.46542 13.7688 4.9868V5.0016C13.7688 5.27775 13.545 5.5016 13.2688 5.5016C12.9927 5.5016 12.7688 5.27775 12.7688 5.0016V4.35979C12.7664 4.33158 12.7663 4.30288 12.7688 4.27395V4.02639C12.7688 4.01734 12.7656 4.00822 12.7573 3.99987C12.7489 3.99152 12.7398 3.98828 12.7307 3.98828H11.9715C11.9624 3.98828 11.9533 3.99152 11.9449 3.99987ZM13.7642 3.92828C15.4095 4.42381 16.668 5.7461 17.0138 7.44161C17.0939 7.49201 17.1818 7.55877 17.2688 7.64648C17.5432 7.92331 17.762 8.36196 17.762 9.01485C17.762 9.29099 17.5381 9.51485 17.262 9.51485H16.7957C16.848 9.78966 16.8756 10.0732 16.8756 10.3628C16.8756 12.1287 15.8674 13.6599 14.3953 14.4118C16.6136 14.6498 18.0274 15.298 18.9033 16.2552C20.0213 17.4769 20.1441 19.0811 20.1546 20.5067C20.1566 20.7828 19.9344 21.0083 19.6583 21.0103C19.3822 21.0123 19.1567 20.7901 19.1546 20.514C19.1442 19.0922 19.0041 17.8466 18.1656 16.9303C17.3305 16.0177 15.6839 15.3105 12.3336 15.3105C8.98431 15.3105 7.33692 16.0229 6.50104 16.9383C5.6614 17.8579 5.52116 19.1045 5.51073 20.514C5.50869 20.7902 5.28318 21.0124 5.00704 21.0103C4.73091 21.0083 4.50871 20.7828 4.51076 20.5066C4.52123 19.0916 4.64481 17.4882 5.76257 16.2641C6.63835 15.3049 8.05202 14.6525 10.2704 14.4127C8.79739 13.661 7.78833 12.1294 7.78833 10.3628C7.78833 10.0724 7.81598 9.78914 7.86815 9.51485H7.44019C7.16404 9.51485 6.94019 9.29099 6.94019 9.01485C6.94019 8.36196 7.15896 7.92331 7.43339 7.64648C7.52035 7.55876 7.60829 7.49199 7.68837 7.44157C8.03426 5.74759 9.29263 4.42403 10.938 3.9283C10.9876 3.40189 11.4323 2.98828 11.9715 2.98828H12.7307C13.2698 2.98828 13.7146 3.40188 13.7642 3.92828ZM8.89131 9.51485H15.7726C15.8396 9.78705 15.8756 10.0712 15.8756 10.3628C15.8756 12.3192 14.2884 13.9065 12.332 13.9065C10.3756 13.9065 8.78833 12.3192 8.78833 10.3628C8.78833 10.07 8.82431 9.78662 8.89131 9.51485ZM9.42358 7.05078C9.14744 7.05078 8.92358 7.27464 8.92358 7.55078C8.92358 7.82692 9.14744 8.05078 9.42358 8.05078H15.1286C15.4047 8.05078 15.6286 7.82692 15.6286 7.55078C15.6286 7.27464 15.4047 7.05078 15.1286 7.05078H9.42358Z" fill=""/>
</svg>
