<svg width="17" height="16" viewBox="0 0 17 16" fill="none" xmlns="http://www.w3.org/2000/svg">
<path fill-rule="evenodd" clip-rule="evenodd" d="M5.10002 11.0479C7.61776 13.5656 9.42629 14.651 11.2067 15.7193C11.9465 16.1631 12.8335 15.9969 13.5553 15.7169C14.3001 15.4281 15.0188 14.961 15.536 14.5823C16.2676 14.0468 16.2751 13.0192 15.6435 12.4297C14.8651 11.7032 13.5924 10.5726 12.6268 10.0185C12.427 9.90388 12.1295 9.80163 11.8034 9.89294C11.5838 9.95442 11.3886 10.0622 11.2298 10.1591C11.1395 10.2141 11.0737 10.2568 11.0131 10.2961L11.0131 10.2961C10.9419 10.3422 10.8779 10.3837 10.7896 10.4353C10.5193 10.5933 10.3642 10.6256 10.2079 10.5735C9.28011 10.2643 8.57198 9.57008 7.5749 8.57299C6.57781 7.57591 5.88363 6.86779 5.57437 5.94C5.52225 5.78367 5.55018 5.66109 5.70469 5.41357C5.73964 5.35758 5.7769 5.30166 5.81948 5.23776L5.83739 5.21087C5.88564 5.13838 5.93954 5.05677 5.99134 4.97057C6.09513 4.79785 6.20205 4.58837 6.26103 4.34007C6.33686 4.02085 6.24693 3.72457 6.12163 3.50764C5.5651 2.54413 4.44169 1.27955 3.71824 0.504426C3.12867 -0.127254 2.10112 -0.119694 1.56557 0.611865C1.1869 1.12914 0.719803 1.8478 0.430951 2.59257C0.150985 3.31442 -0.0151968 4.20143 0.42864 4.94116C1.49692 6.72161 2.58229 8.53013 5.10002 11.0479ZM11.7212 14.8618L11.7198 14.8609C9.96523 13.8082 8.23849 12.7721 5.80713 10.3408C3.37579 7.90942 2.33975 6.18269 1.287 4.42811L1.28613 4.42666C1.09056 4.10071 1.11179 3.60262 1.36329 2.95417C1.6059 2.32863 2.01432 1.69179 2.37247 1.20256C2.5126 1.01114 2.79627 0.982199 2.98718 1.18675C3.71926 1.97111 4.76453 3.15744 5.2557 4.00781C5.29471 4.07534 5.2882 4.10857 5.28811 4.10895C5.26243 4.21702 5.21162 4.32666 5.1342 4.45549C5.09539 4.52006 5.05282 4.58483 5.00493 4.65678L4.9877 4.68264L4.98765 4.68271C4.94596 4.74526 4.89982 4.81449 4.8564 4.88405C4.65379 5.20862 4.4291 5.66648 4.62568 6.25623C5.01679 7.42955 5.88229 8.29483 6.81929 9.2316L6.86779 9.2801L6.91629 9.3286C7.85306 10.2656 8.71834 11.1311 9.89166 11.5222C10.4713 11.7154 10.9563 11.4962 11.2942 11.2987C11.3812 11.2478 11.4967 11.1739 11.5959 11.1105L11.5959 11.1105C11.6572 11.0713 11.7123 11.0361 11.7504 11.0129C11.8828 10.9322 11.9812 10.8832 12.0638 10.8586L12.0648 10.8588C12.076 10.861 12.0981 10.8681 12.1291 10.8858C12.9797 11.374 14.173 12.4251 14.9611 13.1607C15.1657 13.3516 15.1368 13.6353 14.9453 13.7754C14.4561 14.1336 13.8193 14.542 13.1937 14.7846C12.5453 15.0361 12.0472 15.0573 11.7212 14.8618Z" fill="#53565A"/>
</svg>
