<svg width="21" height="7" viewBox="0 0 21 7" fill="none" xmlns="http://www.w3.org/2000/svg">
<path fill-rule="evenodd" clip-rule="evenodd" d="M10.3983 0.5C6.83771 0.5 4.7914 1.01134 2.77705 1.51493C1.94015 1.72416 1.43045 2.46887 1.11799 3.17727C0.795608 3.90814 0.617719 4.74661 0.519716 5.38014C0.381114 6.27611 1.10236 7.00804 1.96591 6.97827C3.02995 6.94158 4.72939 6.84107 5.80399 6.55008C6.02627 6.48989 6.30892 6.35184 6.47497 6.05667C6.58677 5.85791 6.64858 5.64362 6.6924 5.46286C6.71731 5.36011 6.73367 5.28344 6.74874 5.21281L6.74875 5.2128C6.76646 5.12983 6.78239 5.05517 6.80832 4.9563C6.88774 4.65347 6.97459 4.52088 7.12193 4.44721C7.99664 4.00985 8.98823 4 10.3983 4C11.8084 4 12.8 4.00985 13.6747 4.44721C13.8221 4.52091 13.889 4.62733 13.9548 4.91161C13.9697 4.97592 13.9829 5.0418 13.998 5.1171L14.0043 5.14877C14.0214 5.23416 14.041 5.32998 14.0654 5.42755C14.1141 5.62308 14.1866 5.8468 14.3205 6.06408C14.4926 6.34343 14.7657 6.48934 15.0077 6.55413C16.0825 6.84191 17.7711 6.94173 18.8307 6.97827C19.6943 7.00804 20.4155 6.27611 20.2769 5.38013C20.1789 4.7466 20.001 3.90814 19.6787 3.17726C19.3662 2.46887 18.8565 1.72415 18.0196 1.51493C16.0052 1.01134 13.9589 0.5 10.3983 0.5ZM3.01959 2.48507L3.02119 2.48467C5.00628 1.9884 6.95986 1.5 10.3983 1.5C13.8368 1.5 15.7903 1.98839 17.7754 2.48466L17.7771 2.48507C18.1458 2.57726 18.483 2.94447 18.7637 3.58083C19.0345 4.19471 19.196 4.93382 19.2887 5.53301C19.3249 5.76745 19.1448 5.9885 18.8652 5.97886C17.7929 5.94189 16.2149 5.84214 15.2663 5.58815C15.191 5.56798 15.1721 5.53988 15.1719 5.53955C15.1136 5.44498 15.072 5.33152 15.0357 5.18568C15.0174 5.11258 15.0018 5.03668 14.9847 4.95194L14.9786 4.92147L14.9786 4.92135C14.9639 4.84765 14.9475 4.76608 14.9291 4.68621C14.8428 4.31343 14.6779 3.8308 14.1219 3.55279C13.0157 2.99968 11.7919 2.99983 10.4669 2.99999L10.3983 3L10.3297 2.99999C9.00477 2.99983 7.78092 2.99968 6.67471 3.55279C6.12824 3.82603 5.94032 4.32402 5.84103 4.70262C5.81548 4.80005 5.78602 4.93401 5.76074 5.04895L5.76073 5.04898C5.7451 5.12007 5.73107 5.18388 5.72055 5.22727C5.68402 5.37794 5.64902 5.48221 5.60803 5.558L5.60723 5.55854C5.59766 5.56489 5.57703 5.57553 5.54262 5.58484C4.59596 5.84118 3.00897 5.94171 1.93145 5.97886C1.65182 5.9885 1.47169 5.76745 1.50796 5.53301C1.60065 4.93382 1.76217 4.19471 2.03294 3.58084C2.31362 2.94448 2.65082 2.57726 3.01959 2.48507Z" fill="#53565A"/>
</svg>
