<svg width="32" height="32" viewBox="0 0 32 32" fill="none" xmlns="http://www.w3.org/2000/svg">
<path fill-rule="evenodd" clip-rule="evenodd" d="M17.7947 4.98329C17.9143 4.88844 18.0706 4.85339 18.2192 4.88812C20.1797 5.34621 21.9727 6.34414 23.3952 7.76886C23.5901 7.96406 23.5901 8.2802 23.3953 8.4754L18.4593 13.4194C18.3164 13.5626 18.1013 13.6055 17.9143 13.5282C17.7274 13.4508 17.6055 13.2685 17.6055 13.0662V5.37905V5.375C17.6055 5.22239 17.6752 5.07813 17.7947 4.98329ZM18.6055 6.0265V11.8577L22.3259 8.13117C21.2557 7.16355 19.985 6.44498 18.6055 6.0265ZM15.1774 5.6971C15.2712 5.79088 15.324 5.91811 15.324 6.05079V16.1303L22.3953 23.2016C22.5259 23.294 22.6065 23.4453 22.6065 23.6098V23.6199C22.6065 23.7852 22.5251 23.9371 22.3934 24.0294C21.1517 25.2502 19.6324 26.1525 17.9652 26.6587C16.2681 27.174 14.4701 27.2628 12.7305 26.9173C10.9908 26.5719 9.36324 25.8028 7.99178 24.6781C6.62033 23.5535 5.54736 22.108 4.86788 20.4697C4.18841 18.8314 3.92339 17.0509 4.09631 15.2857C4.26923 13.5206 4.87474 11.8253 5.85923 10.35C6.84372 8.8747 8.17681 7.66493 9.74044 6.82782C11.3041 5.99071 13.05 5.55209 14.8236 5.55079C14.9563 5.55069 15.0835 5.60332 15.1774 5.6971ZM21.3851 23.6056L14.4704 16.6909C14.3766 16.5971 14.324 16.47 14.324 16.3374V6.56395C12.8879 6.63852 11.4838 7.0288 10.2124 7.70943C8.79375 8.46894 7.58425 9.56655 6.69103 10.9051C5.79781 12.2436 5.24844 13.7817 5.09155 15.3832C4.93466 16.9847 5.1751 18.6002 5.79159 20.0866C6.40807 21.573 7.38157 22.8845 8.62588 23.9049C9.87019 24.9253 11.3469 25.6231 12.9253 25.9365C14.5036 26.2499 16.1349 26.1693 17.6747 25.7018C19.0524 25.2835 20.3189 24.567 21.3851 23.6056ZM26.1246 10.3211C26.0413 10.1969 25.9068 10.1165 25.7579 10.102C25.6091 10.0874 25.4616 10.1403 25.3558 10.2461L19.6208 15.9811C19.4257 16.1762 19.4255 16.4925 19.6205 16.6879L25.3555 22.433C25.4984 22.5761 25.7136 22.6191 25.9005 22.5417C26.0207 22.492 26.114 22.3989 26.1653 22.285C27.3317 20.5199 27.9541 18.4504 27.9541 16.3336C27.9541 14.1923 27.3173 12.0995 26.1246 10.3211ZM26.9541 16.3336C26.9541 18.0747 26.4901 19.7805 25.6149 21.2773L20.6812 16.3349L25.6191 11.397C26.4915 12.8921 26.9541 14.5953 26.9541 16.3336Z" fill="#141414"/>
</svg>
