<svg width="32" height="33" viewBox="0 0 32 33" fill="none" xmlns="http://www.w3.org/2000/svg">
<path fill-rule="evenodd" clip-rule="evenodd" d="M9.26873 4.23159C8.98187 4.03238 8.55598 3.88518 8.14718 4.04891C7.68799 4.23282 7.50098 4.6969 7.50098 5.20037V5.24115V5.28209V5.32319V5.36446V5.40588V5.44746V5.48919V5.53109V5.57313V5.61534V5.65769V5.7002V5.74286V5.78567V5.82863V5.87174V5.915V5.9584V6.00195V6.04565V6.08949V6.13347V6.1776V6.22187V6.26627V6.31082V6.35551V6.40033V6.44529V6.49039V6.53562V6.58099V6.62648V6.67212V6.71788V6.76377V6.80979V6.85595V6.90223V6.94863V6.99516V7.04182V7.0886V7.13551V7.18253V7.22968V7.27695V7.32434V7.37184V7.41947V7.46721V7.51506V7.56304V7.61112V7.65932V7.70763V7.75605V7.80458V7.85323V7.90198V7.95083V7.9998V8.04887V8.09804V8.14732V8.1967V8.24618V8.29577V8.34545V8.39524V8.44512V8.4951V8.54518V8.59535V8.64562V8.69598V8.74643V8.79698V8.84761V8.89834V8.94916V9.00006V9.05105V9.10213V9.15329V9.20454V9.25587V9.30729V9.35878V9.41036V9.46202V9.51376V9.56557V9.61746V9.66943V9.72147V9.77359V9.82579V9.87805V9.93039V9.98279V10.0353V10.0878V10.1404V10.1931V10.2459V10.2987V10.3516V10.4045V10.4575V10.5106V10.5637V10.6169V10.6701V10.7234V10.7768V10.8302V10.8837V10.9372V10.9908V11.0444V11.0981V11.1518V11.2056V11.2594V11.3133V11.3672V11.4212V11.4752V11.5293V11.5834V11.6376V11.6918V11.746V11.8003V11.8546V11.9089V11.9633V12.0177V12.0722V12.1267V12.1812V12.2357V12.2903V12.3449V12.3996V12.4543V12.509V12.5637V12.6184V12.6732V12.728V12.7829V12.8377V12.8926V12.9475V13.0024V13.0573V13.1123V13.1672V13.2222V13.2772V13.3322V13.3872V13.4423V13.4973V13.5524V13.6074V13.6625V13.7176V13.7727V13.8278V13.8829V13.938V13.9931V14.0482V14.1033V14.1584V14.2135V14.2686V14.3237V14.3788V14.4339V14.489V14.5441V14.5992V14.6542V14.7093V14.7643V14.8194V14.8744V14.9294V14.9844V15.0394V15.0944V15.1493V15.2043V15.2592V15.3141V15.369V15.4238V15.4787V15.5335V15.5883V15.6431V15.6978V15.7525V15.8072V15.8619V15.9165V15.9711V16.0257V16.0802V16.1347V16.1892V16.2436V16.298V16.3524V16.4067V16.461V16.5152V16.5695V16.6236V16.6777V16.7318V16.7859V16.8399V16.8938V16.9477V17.0016V17.0554V17.1091V17.1628V17.2165V17.2701V17.3237V17.3772V17.4306V17.484V17.5373V17.5906V17.6438V17.697V17.75V17.8031V17.8561V17.909V17.9618V18.0146V18.0673V18.1199V18.1725V18.225V18.2775V18.3298V18.3821V18.4344V18.4865V18.5386V18.5906V18.6425V18.6944V18.7462V18.7979V18.8495V18.901V18.9525V19.0038V19.0551V19.1063V19.1574V19.2085V19.2594V19.3103V19.361V19.4117V19.4623V19.5128V19.5632V19.6135V19.6637V19.7139V19.7639V19.8138V19.8636V19.9134V19.963V20.0125V20.062V20.1113V20.1605V20.2096V20.2587V20.3076V20.3564V20.4051V20.4536V20.5021V20.5505V20.5987V20.6469V20.6949V20.7428V20.7906V20.8383V20.8858V20.9333V20.9806V21.0278V21.0749V21.1219V21.1687V21.2154V21.262V21.3085V21.3548V21.401V21.4471V21.4931V21.5389V21.5846V21.6301V21.6756V21.7209V21.766V21.8111V21.8559V21.9007V21.9453V21.9898V22.0341V22.0783V22.1224V22.1663V22.21V22.2536V22.2971V22.3404V22.3836V22.4267V22.4695V22.5123V22.5549V22.5973V22.6396V22.6817V22.7236V22.7655V22.8071V22.8486V22.8899V22.9311V22.9721V23.013V23.0537V23.0942V23.1346V23.1748V23.2148V23.2547V23.2944V23.3339V23.3733V23.4125V23.4515V23.4904V23.529V23.5675V23.6059V23.644V23.682V23.7198V23.7574V23.7949V23.8321V23.8692V23.9061V23.9428V23.9793V24.0157V24.0518V24.0878V24.1236V24.1592V24.1946V24.2298V24.2648V24.2996V24.3343V24.3687V24.403V24.437V24.4709V24.5045V24.538V24.5712V24.6043V24.6371V24.6698V24.7022V24.7345V24.7665V24.7984V24.83V24.8614V24.8926V24.9236V24.9544V24.985V25.0153V25.0455V25.0754V25.1051V25.1346V25.1639V25.193V25.2218V25.2505V25.2789V25.3071V25.335V25.3628V25.3903V25.4176V25.4446V25.4715V25.4981V25.5245V25.5506V25.5765V25.6022V25.6277V25.6529V25.6779V25.7026V25.7271V25.7514V25.7754V25.7992V25.8228V25.8461V25.8692V25.892V25.9146V25.937V25.9591V25.9809V26.0025V26.0239V26.045V26.0658V26.0864V26.1068V26.1269V26.1467V26.1663V26.1856V26.2047V26.2235V26.2421V26.2604V26.2785V26.2962V26.3138V26.331V26.348V26.3647V26.3812V26.3974V26.4133V26.429V26.4444V26.4595V26.4743V26.4889V26.5032V26.5172V26.531V26.5445V26.5577V26.5706V26.5832V26.5956V26.6077V26.6195V26.631V26.6422V26.6532V26.6638V26.6742V26.6843V26.6941V26.7036V26.7129V26.7218V26.7305V26.7388V26.7469V26.7546V26.7621V26.7693V26.7762V26.7827V26.789V26.795V26.8007V26.8061V26.8111V26.8159V26.8204V26.8245V26.8284C7.50098 27.3495 7.71273 27.8009 8.17333 27.9714C8.57558 28.1202 8.99529 27.9821 9.27299 27.7767C9.47592 27.6266 13.4195 24.7623 17.169 22.0389L17.1696 22.0385C20.5366 19.593 23.7468 17.2613 23.9514 17.1108C24.3 16.8542 24.4829 16.4383 24.4981 16.0383C24.5137 15.6276 24.354 15.1782 23.9484 14.8843C23.8446 14.8091 23.1513 14.3055 22.1177 13.5546L22.0989 13.541C18.2202 10.7234 9.60745 4.46681 9.26873 4.23159ZM8.50098 5.20037C8.50098 5.07646 8.52012 5.00965 8.53247 4.98011C8.53692 4.98068 8.54214 4.98154 8.54819 4.98281C8.5855 4.99064 8.63884 5.01164 8.69833 5.05296C9.02664 5.28095 17.5307 11.4585 21.4414 14.2994L21.4437 14.3011C22.5233 15.0853 23.2523 15.6149 23.3617 15.6942C23.4553 15.7619 23.5038 15.8686 23.4988 16.0003C23.4934 16.1426 23.4267 16.2553 23.3587 16.3053C23.1708 16.4436 20.0135 18.7369 16.6744 21.1622C12.8912 23.9101 8.87459 26.8276 8.67836 26.9727C8.63692 27.0033 8.59345 27.0219 8.55854 27.0294C8.54724 27.0319 8.53846 27.0329 8.532 27.0332C8.52114 27.0095 8.50098 26.9487 8.50098 26.8284V26.8245V26.8204V26.8159V26.8111V26.8061V26.8007V26.795V26.789V26.7827V26.7762V26.7693V26.7621V26.7546V26.7469V26.7388V26.7305V26.7218V26.7129V26.7036V26.6941V26.6843V26.6742V26.6638V26.6532V26.6422V26.631V26.6195V26.6077V26.5956V26.5832V26.5706V26.5577V26.5445V26.531V26.5172V26.5032V26.4889V26.4743V26.4595V26.4444V26.429V26.4133V26.3974V26.3812V26.3647V26.348V26.331V26.3138V26.2962V26.2785V26.2604V26.2421V26.2235V26.2047V26.1856V26.1663V26.1467V26.1269V26.1068V26.0864V26.0658V26.045V26.0239V26.0025V25.9809V25.9591V25.937V25.9146V25.892V25.8692V25.8461V25.8228V25.7992V25.7754V25.7514V25.7271V25.7026V25.6779V25.6529V25.6277V25.6022V25.5765V25.5506V25.5245V25.4981V25.4715V25.4446V25.4176V25.3903V25.3628V25.335V25.3071V25.2789V25.2505V25.2218V25.193V25.1639V25.1346V25.1051V25.0754V25.0455V25.0153V24.985V24.9544V24.9236V24.8926V24.8614V24.83V24.7984V24.7665V24.7345V24.7022V24.6698V24.6371V24.6043V24.5712V24.538V24.5045V24.4709V24.437V24.403V24.3687V24.3343V24.2996V24.2648V24.2298V24.1946V24.1592V24.1236V24.0878V24.0518V24.0157V23.9793V23.9428V23.9061V23.8692V23.8321V23.7949V23.7574V23.7198V23.682V23.644V23.6059V23.5675V23.529V23.4904V23.4515V23.4125V23.3733V23.3339V23.2944V23.2547V23.2148V23.1748V23.1346V23.0942V23.0537V23.013V22.9721V22.9311V22.8899V22.8486V22.8071V22.7655V22.7236V22.6817V22.6396V22.5973V22.5549V22.5123V22.4695V22.4267V22.3836V22.3404V22.2971V22.2536V22.21V22.1663V22.1224V22.0783V22.0341V21.9898V21.9453V21.9007V21.8559V21.8111V21.766V21.7209V21.6756V21.6301V21.5846V21.5389V21.4931V21.4471V21.401V21.3548V21.3085V21.262V21.2154V21.1687V21.1219V21.0749V21.0278V20.9806V20.9333V20.8858V20.8383V20.7906V20.7428V20.6949V20.6469V20.5987V20.5505V20.5021V20.4536V20.4051V20.3564V20.3076V20.2587V20.2096V20.1605V20.1113V20.062V20.0125V19.963V19.9134V19.8636V19.8138V19.7639V19.7139V19.6637V19.6135V19.5632V19.5128V19.4623V19.4117V19.361V19.3103V19.2594V19.2085V19.1574V19.1063V19.0551V19.0038V18.9525V18.901V18.8495V18.7979V18.7462V18.6944V18.6425V18.5906V18.5386V18.4865V18.4344V18.3821V18.3298V18.2775V18.225V18.1725V18.1199V18.0673V18.0146V17.9618V17.909V17.8561V17.8031V17.75V17.697V17.6438V17.5906V17.5373V17.484V17.4306V17.3772V17.3237V17.2701V17.2165V17.1628V17.1091V17.0554V17.0016V16.9477V16.8938V16.8399V16.7859V16.7318V16.6777V16.6236V16.5695V16.5152V16.461V16.4067V16.3524V16.298V16.2436V16.1892V16.1347V16.0802V16.0257V15.9711V15.9165V15.8619V15.8072V15.7525V15.6978V15.6431V15.5883V15.5335V15.4787V15.4238V15.369V15.3141V15.2592V15.2043V15.1493V15.0944V15.0394V14.9844V14.9294V14.8744V14.8194V14.7643V14.7093V14.6542V14.5992V14.5441V14.489V14.4339V14.3788V14.3237V14.2686V14.2135V14.1584V14.1033V14.0482V13.9931V13.938V13.8829V13.8278V13.7727V13.7176V13.6625V13.6074V13.5524V13.4973V13.4423V13.3872V13.3322V13.2772V13.2222V13.1672V13.1123V13.0573V13.0024V12.9475V12.8926V12.8377V12.7829V12.728V12.6732V12.6184V12.5637V12.509V12.4543V12.3996V12.3449V12.2903V12.2357V12.1812V12.1267V12.0722V12.0177V11.9633V11.9089V11.8546V11.8003V11.746V11.6918V11.6376V11.5834V11.5293V11.4752V11.4212V11.3672V11.3133V11.2594V11.2056V11.1518V11.0981V11.0444V10.9908V10.9372V10.8837V10.8302V10.7768V10.7234V10.6701V10.6169V10.5637V10.5106V10.4575V10.4045V10.3516V10.2987V10.2459V10.1931V10.1404V10.0878V10.0353V9.98279V9.93039V9.87805V9.82579V9.77359V9.72147V9.66943V9.61746V9.56557V9.51376V9.46202V9.41036V9.35878V9.30729V9.25587V9.20454V9.15329V9.10213V9.05105V9.00006V8.94916V8.89834V8.84761V8.79698V8.74643V8.69598V8.64562V8.59535V8.54518V8.4951V8.44512V8.39524V8.34545V8.29577V8.24618V8.1967V8.14732V8.09804V8.04887V7.9998V7.95083V7.90198V7.85323V7.80458V7.75605V7.70763V7.65932V7.61112V7.56304V7.51506V7.46721V7.41947V7.37184V7.32434V7.27695V7.22968V7.18253V7.13551V7.0886V7.04182V6.99516V6.94863V6.90223V6.85595V6.80979V6.76377V6.71788V6.67212V6.62648V6.58099V6.53562V6.49039V6.44529V6.40033V6.35551V6.31082V6.26627V6.22187V6.1776V6.13347V6.08949V6.04565V6.00195V5.9584V5.915V5.87174V5.82863V5.78567V5.74286V5.7002V5.65769V5.61534V5.57313V5.53109V5.48919V5.44746V5.40588V5.36446V5.32319V5.28209V5.24115V5.20037Z" fill="#141414"/>
</svg>
