<svg width="32" height="32" viewBox="0 0 32 32" fill="none" xmlns="http://www.w3.org/2000/svg">
<path fill-rule="evenodd" clip-rule="evenodd" d="M16.0001 3.97266C9.35753 3.97266 3.97266 9.35753 3.97266 16.0001C3.97266 22.6427 9.35753 28.0275 16.0001 28.0275C22.6427 28.0275 28.0275 22.6427 28.0275 16.0001C28.0275 9.35753 22.6427 3.97266 16.0001 3.97266ZM2.97266 16.0001C2.97266 8.80524 8.80524 2.97266 16.0001 2.97266C23.195 2.97266 29.0275 8.80524 29.0275 16.0001C29.0275 23.195 23.195 29.0275 16.0001 29.0275C8.80524 29.0275 2.97266 23.195 2.97266 16.0001ZM16 8.93555C16.2761 8.93555 16.5 9.1594 16.5 9.43555V15.498H22.5622C22.8384 15.498 23.0622 15.7219 23.0622 15.998C23.0622 16.2742 22.8384 16.498 22.5622 16.498H16.5V22.5595C16.5 22.8357 16.2761 23.0595 16 23.0595C15.7239 23.0595 15.5 22.8357 15.5 22.5595V16.498H9.43823C9.16209 16.498 8.93823 16.2742 8.93823 15.998C8.93823 15.7219 9.16209 15.498 9.43823 15.498H15.5V9.43555C15.5 9.1594 15.7239 8.93555 16 8.93555Z" fill="#141414"/>
</svg>
