<svg width="24" height="24" viewBox="0 0 24 24" fill="none" xmlns="http://www.w3.org/2000/svg">
<path fill-rule="evenodd" clip-rule="evenodd" d="M11.9995 3.03125C7.04645 3.03125 3.03125 7.04645 3.03125 11.9995C3.03125 16.9525 7.04645 20.9677 11.9995 20.9677C16.9525 20.9677 20.9677 16.9525 20.9677 11.9995C20.9677 7.04645 16.9525 3.03125 11.9995 3.03125ZM2.03125 11.9995C2.03125 6.49417 6.49417 2.03125 11.9995 2.03125C17.5047 2.03125 21.9677 6.49417 21.9677 11.9995C21.9677 17.5047 17.5047 21.9677 11.9995 21.9677C6.49417 21.9677 2.03125 17.5047 2.03125 11.9995ZM11.9995 6.54102C12.2757 6.54102 12.4995 6.76487 12.4995 7.04102V11.5H16.9591C17.2353 11.5 17.4591 11.7239 17.4591 12C17.4591 12.2761 17.2353 12.5 16.9591 12.5H12.4995V16.9601C12.4995 17.2362 12.2757 17.4601 11.9995 17.4601C11.7234 17.4601 11.4995 17.2362 11.4995 16.9601V12.5H7.04004C6.7639 12.5 6.54004 12.2761 6.54004 12C6.54004 11.7239 6.7639 11.5 7.04004 11.5H11.4995V7.04102C11.4995 6.76487 11.7234 6.54102 11.9995 6.54102Z" fill="#141414"/>
</svg>
