<svg width="24" height="24" viewBox="0 0 24 24" fill="none" xmlns="http://www.w3.org/2000/svg">
<path fill-rule="evenodd" clip-rule="evenodd" d="M4.45937 9.94231C4.45937 6.38051 7.32252 3.5 10.8459 3.5C11.7186 3.5 12.5492 3.67628 13.3057 3.99506C13.5602 4.10229 13.8534 3.98293 13.9607 3.72846C14.0679 3.47398 13.9485 3.18076 13.6941 3.07353C12.817 2.70394 11.8545 2.5 10.8459 2.5C6.76265 2.5 3.45937 5.83584 3.45937 9.94231C3.45937 10.5419 3.52985 11.1254 3.66303 11.6847L1.6708 10.9601C1.41129 10.8657 1.1244 10.9995 1.03001 11.259C0.935618 11.5185 1.06947 11.8054 1.32898 11.8998L4.27089 12.9699C4.45704 13.0376 4.6656 12.989 4.80269 12.8461L6.77975 10.7842C6.97087 10.5849 6.96423 10.2684 6.76491 10.0773C6.56559 9.88617 6.24908 9.89281 6.05796 10.0921L4.65978 11.5503C4.529 11.0367 4.45937 10.498 4.45937 9.94231ZM19.5404 14.0578C19.5404 17.6196 16.6773 20.5001 13.1539 20.5001C12.2812 20.5001 11.4505 20.3238 10.694 20.005C10.4396 19.8978 10.1464 20.0172 10.0391 20.2716C9.93189 20.5261 10.0512 20.8193 10.3057 20.9266C11.1828 21.2961 12.1453 21.5001 13.1539 21.5001C17.2371 21.5001 20.5404 18.1642 20.5404 14.0578C20.5404 13.4582 20.4699 12.8747 20.3367 12.3154L22.329 13.04C22.5885 13.1344 22.8754 13.0006 22.9698 12.7411C23.0642 12.4815 22.9303 12.1947 22.6708 12.1003L19.7289 11.0302C19.5427 10.9625 19.3342 11.0111 19.1971 11.154L17.22 13.2158C17.0289 13.4152 17.0355 13.7317 17.2349 13.9228C17.4342 14.1139 17.7507 14.1073 17.9418 13.908L19.34 12.4498C19.4708 12.9634 19.5404 13.5021 19.5404 14.0578Z" fill="#141414"/>
</svg>
