<svg width="16" height="16" viewBox="0 0 16 16" fill="none" xmlns="http://www.w3.org/2000/svg">
<path fill-rule="evenodd" clip-rule="evenodd" d="M14.441 7.60313C14.441 11.1024 11.5021 13.939 7.8769 13.939C4.25166 13.939 1.31282 11.1024 1.31282 7.60313C1.31282 4.1039 4.25166 1.26721 7.8769 1.26721C11.5021 1.26721 14.441 4.1039 14.441 7.60313ZM4.56331 4.40472C4.75509 4.20603 5.07162 4.20044 5.27031 4.39221L7.8769 6.9082L10.4835 4.39221C10.6822 4.20044 10.9987 4.20603 11.1905 4.40472C11.3823 4.6034 11.3767 4.91994 11.178 5.11172L8.59685 7.60313L11.178 10.0945C11.3767 10.2863 11.3823 10.6028 11.1905 10.8015C10.9987 11.0002 10.6822 11.0058 10.4835 10.814L7.8769 8.29805L5.27031 10.814C5.07162 11.0058 4.75509 11.0002 4.56331 10.8015C4.37153 10.6028 4.37713 10.2863 4.57581 10.0945L7.15695 7.60313L4.57581 5.11172C4.37713 4.91994 4.37153 4.6034 4.56331 4.40472Z" fill="#BF2012"/>
</svg>
