<svg width="48" height="48" viewBox="0 0 48 48" fill="none" xmlns="http://www.w3.org/2000/svg">
<path fill-rule="evenodd" clip-rule="evenodd" d="M20.5547 5.99995C20.5547 5.55812 20.9129 5.19995 21.3547 5.19995H26.718C27.1598 5.19995 27.518 5.55812 27.518 5.99995V7.53233C27.518 7.97416 27.1598 8.33233 26.718 8.33233H24.7099V11.2657C29.2285 11.4661 33.2522 13.5705 35.9981 16.7961L37.7696 15.0246L36.3928 13.6478C36.0803 13.3354 36.0803 12.8288 36.3928 12.5164L37.4763 11.4329C37.7887 11.1205 38.2952 11.1205 38.6077 11.4329L42.4001 15.2253C42.7125 15.5377 42.7125 16.0442 42.4001 16.3566L41.3165 17.4402C41.0041 17.7526 40.4976 17.7526 40.1852 17.4402L38.8303 16.0853L36.9223 17.9933C38.7046 20.5457 39.75 23.6507 39.75 27C39.75 35.6985 32.6985 42.75 24 42.75C15.3015 42.75 8.24994 35.6985 8.24994 27C8.24994 23.6152 9.31767 20.4798 11.1347 17.9122L9.2675 16.1262L7.95094 17.4424C7.63848 17.7548 7.13195 17.7547 6.81958 17.4422L5.73619 16.3585C5.42381 16.0461 5.42388 15.5395 5.73635 15.2272L9.52929 11.4353C9.84175 11.1229 10.3483 11.123 10.6606 11.4355L11.744 12.5191C12.0564 12.8316 12.0563 13.3381 11.7439 13.6505L10.3286 15.0654L12.0631 16.7246C14.7911 13.5584 18.7573 11.4894 23.2099 11.2694V8.33233H21.3547C20.9129 8.33233 20.5547 7.97416 20.5547 7.53233V5.99995ZM24 12.75C16.1299 12.75 9.74998 19.1299 9.74998 27C9.74998 27.3499 9.7626 27.6969 9.7874 28.0406C9.85472 28.0207 9.92597 28.0101 9.99972 28.0101H14.9697L17.0661 22.34C17.1801 22.0316 17.4817 21.8334 17.8101 21.8512C18.1384 21.8689 18.4169 22.0985 18.497 22.4174L20.655 31.0082L23.8684 15.8446C23.9449 15.4834 24.273 15.2316 24.6417 15.2511C25.0104 15.2706 25.3101 15.5556 25.3481 15.9229L27.2147 33.9533L29.9077 24.1612C29.9922 23.8536 30.2621 23.6332 30.5804 23.6118C30.8986 23.5903 31.1957 23.7726 31.3207 24.066L33.002 28.0101H37.9997C38.0736 28.0101 38.1451 28.0208 38.2125 28.0407C38.2373 27.697 38.2499 27.35 38.2499 27C38.2499 19.1299 31.87 12.75 24 12.75ZM24 41.25C16.9862 41.25 11.1559 36.1828 9.97025 29.5095C9.98002 29.5099 9.98985 29.5101 9.99972 29.5101H15.4921C15.806 29.5101 16.0867 29.3146 16.1955 29.0202L17.6326 25.1333L19.9895 34.5161C20.0746 34.8547 20.3819 35.0898 20.7309 35.0833C21.0799 35.0768 21.3783 34.8304 21.4506 34.4889L24.3472 20.8208L26.1336 38.0773C26.1708 38.4362 26.4582 38.7178 26.8177 38.7475C27.1773 38.7773 27.5071 38.5468 27.6028 38.199L30.7839 26.6318L31.8165 29.0542C31.9343 29.3307 32.2059 29.5101 32.5064 29.5101H37.9997C38.0048 29.5101 38.0099 29.51 38.0149 29.5099C38.0199 29.5098 38.0248 29.5097 38.0297 29.5095C36.8441 36.1828 31.0138 41.25 24 41.25Z" fill="#141414"/>
</svg>
