<svg width="24" height="24" viewBox="0 0 24 24" fill="none" xmlns="http://www.w3.org/2000/svg">
<path fill-rule="evenodd" clip-rule="evenodd" d="M12.7189 7.04131C12.7189 4.46893 14.7798 2.40808 17.3522 2.40808C19.9245 2.40808 21.9854 4.46893 21.9854 7.04131C21.9854 8.79412 21.0285 10.3094 19.605 11.0971C19.6201 11.1067 19.6352 11.1165 19.6502 11.1265C19.9539 11.329 20.2277 11.5759 20.3759 11.9648C20.7049 12.4886 20.9726 13.0326 21.1553 13.7634C21.3412 14.5071 21.4343 15.4245 21.4343 16.6861V21.0949C21.4343 21.371 21.2104 21.5949 20.9342 21.5949C20.6581 21.5949 20.4342 21.371 20.4342 21.0949V16.6861C20.4342 15.4678 20.3436 14.6401 20.1851 14.006C20.0289 13.3813 19.8022 12.9256 19.5021 12.4539C19.4801 12.4194 19.4625 12.3824 19.4495 12.3436C19.4076 12.2178 19.3268 12.1128 19.0954 11.9586C18.8852 11.8184 18.7046 11.767 18.5462 11.767H16.4336C16.3637 11.767 16.1722 11.8195 16.0173 11.8964L6.10116 17.0381C6.07798 17.0502 6.05389 17.0603 6.02911 17.0686C5.97232 17.0875 5.86525 17.1823 5.79426 17.3953C5.76633 17.4791 5.78035 17.5798 5.86453 17.8401C5.99926 18.0307 6.09729 18.1021 6.21281 18.1406C6.38155 18.1968 6.54236 18.1982 6.71071 18.1446L15.4213 14.6604C15.6777 14.5578 15.9687 14.6826 16.0713 14.939C16.1738 15.1954 16.0491 15.4864 15.7927 15.5889L14.7289 16.0144C14.7312 16.0566 14.7281 16.0997 14.7191 16.1429L13.7085 21.0119C13.6524 21.2823 13.3877 21.456 13.1173 21.3999C12.847 21.3438 12.6733 21.0791 12.7294 20.8087L13.6335 16.4526L8.16492 18.64L10.0831 20.5582C10.2784 20.7535 10.2784 21.0701 10.0831 21.2654C9.88786 21.4607 9.57127 21.4607 9.376 21.2654L7.15472 19.0441L7.06704 19.0792C7.05794 19.0828 7.04875 19.0862 7.03945 19.0893C6.66127 19.2153 6.27476 19.2153 5.89657 19.0893C5.69275 19.0213 5.52636 18.9202 5.38486 18.798L4.20394 19.9789C4.00867 20.1742 3.69207 20.1742 3.4968 19.9789C3.30153 19.7837 3.30153 19.4671 3.4968 19.2718L4.84456 17.924C4.78274 17.6872 4.74271 17.3876 4.84554 17.0791C4.87109 17.0024 4.90424 16.9197 4.94598 16.8356L2.11905 14.0087C1.92378 13.8134 1.92378 13.4968 2.11905 13.3015C2.31432 13.1063 2.63092 13.1063 2.82619 13.3015L5.66258 16.1379L5.67075 16.1348L15.2412 11.1724C13.7397 10.4088 12.7189 8.85174 12.7189 7.04131ZM17.3522 3.40812C15.3321 3.40812 13.719 5.02124 13.719 7.04131C13.719 9.06139 15.3321 10.6745 17.3522 10.6745C19.3722 10.6745 20.9854 9.06139 20.9854 7.04131C20.9854 5.02124 19.3722 3.40812 17.3522 3.40812ZM4.29841 4.33943C4.51311 4.30964 4.73148 4.3272 4.93684 4.39055L4.93683 4.39055L4.93967 4.39141C5.14612 4.45376 5.33721 4.56141 5.49898 4.70566L5.49897 4.70566L5.50015 4.7067C5.66182 4.84995 5.79023 5.02743 5.87667 5.22605C5.95593 5.40816 6.13546 5.5261 6.33407 5.52653C6.53267 5.52696 6.71271 5.40981 6.79276 5.22804C6.88086 5.028 7.00993 4.84973 7.17075 4.70617C7.33456 4.56117 7.52611 4.45353 7.73103 4.39129C7.93932 4.32845 8.15763 4.3109 8.37306 4.3396C8.58906 4.36974 8.79492 4.44512 8.97778 4.5612C9.15985 4.67679 9.3153 4.83191 9.43303 5.0147C9.5507 5.19741 9.62752 5.40297 9.65714 5.61645L9.65714 5.61645L9.65747 5.61878C9.68828 5.83341 9.67182 6.05198 9.60928 6.25908L9.60863 6.26126C9.54717 6.46815 9.44028 6.66069 9.29693 6.82364C9.27934 6.84364 9.26355 6.86477 9.24962 6.88682L6.40746 10.3044L6.40744 10.3044L6.40456 10.308C6.3989 10.3149 6.39079 10.3213 6.38139 10.3256L6.38137 10.3255L6.37485 10.3286C6.36433 10.3336 6.35111 10.3367 6.3379 10.3367C6.32468 10.3367 6.31146 10.3336 6.30094 10.3286C6.28606 10.3216 6.27488 10.3123 6.2681 10.3042L6.26801 10.3041L3.38241 6.8342L3.38256 6.83408L3.37338 6.82364C3.23003 6.66069 3.12313 6.46815 3.06168 6.26126C2.99987 6.05317 2.98323 5.83341 3.013 5.61761C3.04421 5.40138 3.12067 5.19576 3.23728 5.0147C3.35501 4.83191 3.51045 4.67679 3.69253 4.5612C3.87705 4.44406 4.08283 4.36832 4.29609 4.33975L4.29609 4.33976L4.29841 4.33943ZM10.0623 7.47363C10.0749 7.45842 10.0866 7.44259 10.0972 7.42625C10.3103 7.16864 10.4711 6.86936 10.567 6.54695C10.6714 6.20067 10.6987 5.8358 10.6475 5.4779C10.5975 5.11845 10.4686 4.77574 10.2738 4.4732C10.0788 4.17043 9.81998 3.91132 9.51375 3.71692C9.20864 3.52322 8.86626 3.39841 8.50934 3.34888L8.50934 3.34888L8.50701 3.34856C8.14961 3.30068 7.7869 3.32978 7.44154 3.43407L7.44088 3.43427C7.09475 3.53931 6.77636 3.71949 6.50694 3.95822L6.50576 3.95926C6.44623 4.01234 6.38944 4.06814 6.33551 4.1264C6.28122 4.06793 6.22399 4.01196 6.16396 3.95874C5.89552 3.71952 5.57707 3.53948 5.23019 3.4345C4.88494 3.32823 4.51992 3.29925 4.16213 3.34872C3.80246 3.39708 3.46 3.52428 3.15655 3.71692C2.85032 3.91132 2.59153 4.17043 2.39653 4.4732C2.20062 4.77737 2.07414 5.12 2.02294 5.47668L2.02293 5.47668L2.02261 5.47901C1.97305 5.83617 2.00035 6.20032 2.10303 6.546C2.20547 6.8909 2.38216 7.20935 2.6177 7.47867L5.49943 10.9439L5.49976 10.9443C5.60271 11.0678 5.73141 11.1654 5.87283 11.2324C6.01868 11.3015 6.17829 11.3368 6.3379 11.3368C6.49632 11.3368 6.65475 11.302 6.79972 11.2339C6.94458 11.1673 7.07456 11.068 7.17759 10.9424L10.0623 7.47363Z" fill="#53565A"/>
</svg>
