<svg width="24" height="24" viewBox="0 0 24 24" fill="none" xmlns="http://www.w3.org/2000/svg">
<path fill-rule="evenodd" clip-rule="evenodd" d="M3 3.5C3 3.22386 3.22386 3 3.5 3H8H16H17C17.1326 3 17.2598 3.05268 17.3536 3.14645L20.8536 6.64645C20.9473 6.74021 21 6.86739 21 7V20.5C21 20.7761 20.7761 21 20.5 21H16H8H3.5C3.22386 21 3 20.7761 3 20.5V3.5ZM8.5 20H15.5L15.5 15C15.5 14.7239 15.2761 14.5 15 14.5H9C8.72386 14.5 8.5 14.7239 8.5 15L8.5 20ZM16.5 20L16.5 15C16.5 14.1716 15.8284 13.5 15 13.5H9C8.17157 13.5 7.5 14.1716 7.5 15L7.5 20H4V4H7.5V7.5C7.5 8.32843 8.17157 9 9 9H15C15.8284 9 16.5 8.32843 16.5 7.5V4H16.7929L20 7.20711V20H16.5ZM8.5 4H15.5V7.5C15.5 7.77614 15.2761 8 15 8H9C8.72386 8 8.5 7.77614 8.5 7.5V4Z" fill="white"/>
</svg>
