<svg width="32" height="32" viewBox="0 0 32 32" fill="none" xmlns="http://www.w3.org/2000/svg">
<path fill-rule="evenodd" clip-rule="evenodd" d="M5.1665 12.667C5.1665 8.52486 8.52437 5.16699 12.6665 5.16699C16.8086 5.16699 20.1665 8.52486 20.1665 12.667C20.1665 16.8091 16.8086 20.167 12.6665 20.167C8.52437 20.167 5.1665 16.8091 5.1665 12.667ZM12.6665 4.16699C7.97208 4.16699 4.1665 7.97257 4.1665 12.667C4.1665 17.3614 7.97208 21.167 12.6665 21.167C14.8338 21.167 16.8116 20.3559 18.313 19.0206L20.2866 20.9942C20.1634 21.3748 20.253 21.8092 20.5553 22.1115L25.8886 27.4448C26.3182 27.8744 27.0147 27.8744 27.4443 27.4448C27.8738 27.0152 27.8738 26.3188 27.4443 25.8892L22.1109 20.5558C21.8087 20.2536 21.3743 20.164 20.9937 20.2871L19.0201 18.3135C20.3554 16.8121 21.1665 14.8343 21.1665 12.667C21.1665 7.97257 17.3609 4.16699 12.6665 4.16699Z" fill="#141414"/>
</svg>
