<svg width="20" height="20" viewBox="0 0 20 20" fill="none" xmlns="http://www.w3.org/2000/svg">
<path fill-rule="evenodd" clip-rule="evenodd" d="M15.6522 0.868003C16.3811 0.972136 16.9529 1.32737 17.2725 1.64692C17.3814 1.7558 17.434 1.90876 17.4152 2.06157C17.3964 2.21438 17.3082 2.35001 17.1762 2.42922L14.9407 3.77055C14.9983 4.13252 15.1662 4.47685 15.387 4.78302C15.556 5.01732 15.7458 5.21487 15.9143 5.36389L18.1066 3.61004C18.2343 3.50792 18.4038 3.47465 18.5606 3.52095C18.7173 3.56725 18.8416 3.68727 18.8933 3.84236C19.1172 4.51401 19.1123 6.01424 17.7725 7.35403C16.5869 8.53961 15.2829 8.43362 14.5138 8.11274L14.2725 8.35403C14.0772 8.54929 13.7607 8.54929 13.5654 8.35403C13.3701 8.15877 13.3701 7.84219 13.5654 7.64692L14.0654 7.14692C14.2339 6.97839 14.498 6.95225 14.6963 7.08445C15.0485 7.31926 16.0735 7.63886 17.0654 6.64692C17.6468 6.06553 17.8878 5.47225 17.9689 5.00079L16.2313 6.39091C16.0613 6.52693 15.8228 6.53728 15.6416 6.4165C15.3453 6.21894 14.9257 5.85304 14.5759 5.36794C14.226 4.88277 13.9189 4.24019 13.9189 3.50048C13.9189 3.32485 14.0111 3.16209 14.1617 3.07173L15.9767 1.98276C15.8374 1.92709 15.681 1.88228 15.5107 1.85795C15.0332 1.78974 14.4159 1.87775 13.7189 2.40048C12.3713 3.41122 12.6041 4.75284 12.8662 5.27689C12.9624 5.46938 12.9247 5.70187 12.7725 5.85405L12.5442 6.08232C12.349 6.27758 12.0324 6.27758 11.8371 6.08232C11.6436 5.88883 11.6419 5.57623 11.8318 5.38057C11.5258 4.45247 11.4929 2.82002 13.1189 1.60048C14.022 0.923202 14.9047 0.761217 15.6522 0.868003ZM5.99837 11.9211C6.19363 12.1163 6.19363 12.4329 5.99837 12.6282L5.29306 13.3335C5.84682 13.6193 6.30014 14.0725 6.58611 14.6262L7.56587 13.6465C7.76113 13.4512 8.07771 13.4512 8.27297 13.6465C8.46823 13.8417 8.46823 14.1583 8.27297 14.3536L6.90601 15.7205C6.91457 15.8129 6.91895 15.9064 6.91895 16.001C6.91895 17.6578 5.5758 19.001 3.91895 19.001C2.26209 19.001 0.918945 17.6578 0.918945 16.001C0.918945 14.3441 2.26209 13.001 3.91895 13.001C4.0132 13.001 4.10645 13.0053 4.19849 13.0138L5.29126 11.9211C5.48652 11.7258 5.80311 11.7258 5.99837 11.9211ZM3.91895 14.001C2.81438 14.001 1.91895 14.8964 1.91895 16.001C1.91895 17.1055 2.81438 18.001 3.91895 18.001C5.02351 18.001 5.91895 17.1055 5.91895 16.001C5.91895 14.8964 5.02351 14.001 3.91895 14.001ZM2.06539 1.14645C2.26065 0.951184 2.57724 0.951184 2.7725 1.14645L9.41895 7.79289L10.0654 7.14645C10.2607 6.95118 10.5772 6.95118 10.7725 7.14645L11.7725 8.14645C11.8335 8.20749 11.8777 8.28329 11.9008 8.36648L11.9008 8.36654L11.9008 8.36667L11.9013 8.36834L11.904 8.37761L11.9156 8.41736C11.9262 8.45277 11.9423 8.50514 11.9636 8.57035C12.0064 8.70119 12.0694 8.88159 12.1502 9.07928C12.3194 9.49312 12.5388 9.9128 12.7725 10.1464C13.0243 10.3983 13.3833 10.6181 13.732 10.7762C13.9034 10.8539 14.0633 10.9126 14.1936 10.9509C14.2587 10.97 14.3131 10.9831 14.3554 10.991C14.3968 10.9988 14.4165 10.9999 14.4188 11C14.419 11 14.419 11 14.4189 11C14.5516 11 14.6787 11.0527 14.7725 11.1464L18.2725 14.6464C18.5791 14.953 18.942 15.4941 19.0499 16.1572C19.1629 16.8512 18.9877 17.6383 18.2725 18.3536C17.5573 19.0688 16.7702 19.244 16.0761 19.131C15.413 19.0231 14.872 18.6601 14.5654 18.3536L11.0654 14.8536C10.9716 14.7598 10.9189 14.6326 10.9189 14.5C10.9189 14.302 10.7735 13.5617 10.0654 12.8536C9.35724 12.1454 8.61698 12 8.41895 12C8.28634 12 8.15916 11.9473 8.06539 11.8536L7.06539 10.8536C6.87013 10.6583 6.87013 10.3417 7.06539 10.1464L7.71184 9.5L1.06539 2.85355C0.87013 2.65829 0.87013 2.34171 1.06539 2.14645L2.06539 1.14645ZM9.7725 8.85355L9.77291 8.85314L10.4189 8.20711L10.9759 8.76403C10.9863 8.79759 10.9987 8.83688 11.0131 8.88098C11.0614 9.02866 11.1325 9.23249 11.2246 9.45762C11.401 9.88941 11.6816 10.4697 12.0654 10.8536C12.4311 11.2192 12.9054 11.4994 13.319 11.6869C13.5287 11.782 13.7323 11.8576 13.9117 11.9103C14.002 11.9368 14.0966 11.9607 14.189 11.9772L17.5654 15.3536C17.7588 15.547 17.9959 15.9059 18.0629 16.3178C18.125 16.6988 18.0502 17.1617 17.5654 17.6464C17.0806 18.1312 16.6177 18.206 16.2368 18.144C15.8249 18.0769 15.4659 17.8399 15.2725 17.6464L11.9033 14.2773C11.8364 13.7588 11.5411 12.915 10.7725 12.1464C10.0039 11.3779 9.16014 11.0825 8.64165 11.0156L8.12605 10.5L8.77208 9.85397L8.7725 9.85355L9.7725 8.85355ZM2.41895 2.20711L8.71184 8.5L8.41895 8.79289L2.12605 2.5L2.41895 2.20711Z" fill=""/>
</svg>
