<svg width="20" height="20" viewBox="0 0 20 20" fill="none" xmlns="http://www.w3.org/2000/svg">
<path fill-rule="evenodd" clip-rule="evenodd" d="M8.65257 3.11966L8.9517 1.41318C8.97408 1.30728 9.03058 1.18755 9.10633 1.10237C9.17981 1.01975 9.24083 1 9.28656 1H10.7885C10.8637 1 10.9236 1.02693 10.979 1.08556C11.0406 1.15079 11.0975 1.25951 11.1215 1.40244L11.1215 1.40245L11.1228 1.40973L11.4232 3.04895C11.4595 3.24688 11.6109 3.40377 11.8074 3.4471C12.4102 3.58001 12.9596 3.84905 13.4708 4.13888C13.6403 4.23499 13.8502 4.22385 14.0086 4.11035L15.3604 3.14172C15.381 3.12697 15.4004 3.11068 15.4185 3.09299C15.4186 3.09297 15.4189 3.09279 15.4194 3.09247C15.4229 3.09012 15.4379 3.08026 15.4691 3.06889C15.5115 3.05344 15.5665 3.0418 15.6258 3.03924C15.7577 3.03355 15.8257 3.07258 15.8435 3.09024L16.8949 4.13337C16.9792 4.217 17.0295 4.44381 16.8578 4.65674C16.8515 4.66455 16.8454 4.67255 16.8396 4.68073L15.9384 5.9474C15.8309 6.0985 15.8159 6.29668 15.8993 6.46227C16.2055 7.06987 16.4778 7.61511 16.612 8.14766C16.66 8.33802 16.8149 8.4827 17.0081 8.51755L18.6552 8.81469C18.7539 8.83499 18.8489 8.8848 18.9132 8.94857C18.9727 9.00766 19 9.07062 19 9.14314V10.6333C19 10.7039 18.9747 10.7616 18.9154 10.8167C18.8493 10.8782 18.7385 10.9355 18.5923 10.9596L18.5923 10.9595L18.5811 10.9616L17.004 11.2597C16.8079 11.2967 16.6526 11.4469 16.6089 11.6417C16.4753 12.2383 16.2047 12.7825 15.9126 13.2897C15.814 13.4608 15.8254 13.6738 15.9416 13.8335L16.9179 15.1747L16.9178 15.1747L16.9233 15.1819C16.9733 15.2481 17.0149 15.3552 17.0198 15.4621C17.0245 15.5655 16.9949 15.6184 16.97 15.6431L15.9186 16.6862C15.8319 16.7723 15.5969 16.8217 15.38 16.6495C15.3722 16.6433 15.3642 16.6374 15.356 16.6316L14.0793 15.7375C13.9294 15.6325 13.7342 15.6178 13.5703 15.6991C12.9582 16.0028 12.4077 16.2734 11.8697 16.4069C11.679 16.4542 11.5337 16.6088 11.4983 16.802L11.201 18.4243C11.1378 18.6683 11.0549 18.8212 10.9794 18.9056C10.9139 18.9786 10.8572 19 10.7885 19H9.28656C9.21141 19 9.15153 18.9731 9.09613 18.9144C9.03449 18.8492 8.97758 18.7405 8.95357 18.5976L8.9537 18.5975L8.95151 18.5861L8.65111 17.0214C8.61346 16.8253 8.46274 16.6704 8.26773 16.6274C7.66488 16.4945 7.11552 16.2255 6.60431 15.9356C6.43479 15.8395 6.22488 15.8507 6.06648 15.9642L4.7147 16.9328L4.71465 16.9327L4.70744 16.9381C4.64008 16.9882 4.5304 17.0303 4.42016 17.0353C4.31285 17.0402 4.25713 17.0096 4.23161 16.9843L3.18022 15.9411C3.09594 15.8575 3.0456 15.6307 3.21729 15.4178C3.22639 15.4065 3.23499 15.3948 3.24308 15.3828L4.14426 14.0416C4.24501 13.8917 4.25705 13.699 4.17575 13.5377C3.86956 12.9301 3.59729 12.3849 3.46311 11.8523C3.4148 11.6606 3.25809 11.5154 3.06328 11.4818L1.34321 11.185C1.24508 11.1645 1.15078 11.1149 1.08684 11.0514C1.02729 10.9923 1 10.9294 1 10.8569V9.36667C1 9.29608 1.02534 9.23839 1.08461 9.18327C1.1507 9.12179 1.26151 9.06453 1.40766 9.04036C1.41718 9.03878 1.42666 9.03693 1.43607 9.03481L3.08824 8.66226C3.27212 8.6208 3.41705 8.47946 3.46311 8.29668C3.59729 7.76413 3.86956 7.21889 4.17575 6.61129C4.26298 6.43822 4.24232 6.23033 4.12275 6.0778L3.09168 4.76253C3.01831 4.63461 2.98423 4.51919 2.98016 4.43436C2.97644 4.35688 2.99584 4.31631 3.03002 4.28239L4.08141 3.23926C4.16811 3.15323 4.4031 3.10379 4.61998 3.27594C4.6345 3.28746 4.64964 3.29817 4.66534 3.308L6.09221 4.20212C6.23951 4.29442 6.42419 4.3036 6.57991 4.22635C7.19203 3.92269 7.74247 3.65207 8.28045 3.51863C8.47251 3.47099 8.61841 3.31457 8.65257 3.11966ZM9.28656 0C8.88171 0 8.56723 0.203777 8.35909 0.437824C8.15447 0.667903 8.02383 0.955429 7.97033 1.2208L7.97018 1.22077L7.96798 1.23328L7.72161 2.63884C7.26096 2.78663 6.81028 2.99794 6.38642 3.20637L5.21749 2.47389C4.68319 2.0674 3.88347 2.02696 3.37709 2.52937L2.32571 3.57251C1.7703 4.12356 1.98794 4.87047 2.25002 5.30384C2.26045 5.32109 2.27192 5.3377 2.28436 5.35357L3.14014 6.44522C2.93338 6.86034 2.72535 7.30125 2.58005 7.75175L1.22896 8.0564C0.649568 8.15785 0 8.58611 0 9.36667V10.8569C0 11.6248 0.63551 12.0641 1.15367 12.1669L1.15364 12.1671L1.16597 12.1692L2.58552 12.4141C2.7332 12.8669 2.9435 13.3098 3.15135 13.7263L2.42394 14.8089C2.00863 15.3413 1.96544 16.1446 2.4759 16.651L3.52729 17.6942C3.80216 17.9669 4.15948 18.0481 4.46521 18.0343C4.76629 18.0207 5.06793 17.915 5.30043 17.7433L6.3926 16.9607C6.78824 17.1718 7.2353 17.3783 7.72882 17.5213L7.96845 18.7695C8.06887 19.3535 8.5038 20 9.28656 20H10.7885C11.6009 20 12.0092 19.3098 12.1746 18.6535C12.1772 18.6429 12.1796 18.6323 12.1815 18.6215L12.426 17.2875C12.882 17.1414 13.3283 16.933 13.7485 16.7267L14.7713 17.443C15.3056 17.8575 16.113 17.9021 16.6229 17.3961L17.6743 16.353C17.9498 16.0796 18.0328 15.7228 18.0187 15.4163C18.0049 15.1152 17.8975 14.8142 17.724 14.5829L16.9386 13.5039C17.1502 13.1129 17.3571 12.6711 17.5009 12.1835L18.7616 11.9452C19.3434 11.8468 20 11.4181 20 10.6333V9.14314C20 8.37517 19.3645 7.93591 18.8463 7.83309L18.8463 7.83302L18.8378 7.83147L17.4904 7.58842C17.3436 7.13768 17.1347 6.69673 16.9278 6.28181L17.6466 5.27146C18.0661 4.73907 18.1115 3.9318 17.5992 3.42349L16.5478 2.38035C16.2652 2.09996 15.8826 2.02723 15.5827 2.04017C15.3053 2.05213 14.9809 2.14231 14.7516 2.34771L13.6825 3.11381C13.2876 2.90311 12.8415 2.69703 12.3492 2.55402L12.1071 1.23284C12.0074 0.648178 11.5723 0 10.7885 0H9.28656ZM7 10C7 8.31415 8.3735 7 10 7C11.6858 7 13 8.3735 13 10C13 11.6858 11.6265 13 10 13C8.30739 13 7 11.6926 7 10ZM10 6C7.83483 6 6 7.74835 6 10C6 12.2449 7.75511 14 10 14C12.1652 14 14 12.2516 14 10C14 7.83483 12.2516 6 10 6Z" fill=""/>
</svg>
