<svg width="25" height="24" viewBox="0 0 25 24" fill="none" xmlns="http://www.w3.org/2000/svg">
<path fill-rule="evenodd" clip-rule="evenodd" d="M2.93195 13.027C2.93195 7.47965 7.46883 3 12.9319 3C18.4647 3 22.9319 7.48195 22.9319 13.027C22.9319 13.156 22.9294 13.2844 22.9243 13.4122C22.9293 13.4407 22.9319 13.47 22.9319 13.5C22.9319 13.548 22.9252 13.5944 22.9126 13.6383C22.7917 15.5445 22.1126 17.3123 21.091 18.785C21.0101 18.9016 20.8834 18.9784 20.7426 18.9961C20.6018 19.0138 20.46 18.9708 20.3527 18.8779L18.601 17.36C18.3923 17.1792 18.3697 16.8634 18.5505 16.6547C18.7314 16.446 19.0471 16.4234 19.2558 16.6042L20.5745 17.7469C21.2585 16.6283 21.7241 15.3548 21.8771 14H19.4319C19.1558 14 18.9319 13.7761 18.9319 13.5C18.9319 13.2239 19.1558 13 19.4319 13H21.9319C21.9252 10.6918 21.0597 8.59082 19.6387 7.0004L17.7855 8.85355C17.5902 9.04882 17.2737 9.04882 17.0784 8.85355C16.8831 8.65829 16.8831 8.34171 17.0784 8.14645L18.9322 6.29269C17.4566 4.96979 15.5421 4.12893 13.4319 4.01362V6.5C13.4319 6.77614 13.2081 7 12.9319 7C12.6558 7 12.4319 6.77614 12.4319 6.5V4.01397C10.3422 4.13101 8.42622 4.97667 6.94446 6.30541L8.7855 8.14645C8.98076 8.34171 8.98076 8.65829 8.7855 8.85355C8.59024 9.04882 8.27365 9.04882 8.07839 8.85355L6.23755 7.01271C4.81402 8.60199 3.93879 10.6983 3.93199 13H4.43195C4.43196 12.9897 4.43228 12.9793 4.43294 12.9688C4.45016 12.6932 4.68755 12.4838 4.96315 12.501L12.0826 12.946C12.2539 12.6705 12.5588 12.5 12.9319 12.5C13.5153 12.5 13.9319 12.9167 13.9319 13.5C13.9319 14.0833 13.5153 14.5 12.9319 14.5C12.5115 14.5 12.1777 14.2836 12.024 13.9443L6.91619 13.625C6.86068 13.8407 6.66492 14 6.43195 14H3.9868C4.1398 15.3548 4.60542 16.6283 5.28938 17.7469L6.60807 16.6042C6.81676 16.4234 7.13254 16.446 7.31337 16.6547C7.4942 16.8634 7.47162 17.1792 7.26292 17.36L5.51115 18.8779C5.40387 18.9708 5.26214 19.0138 5.1213 18.9961C4.98046 18.9784 4.85379 18.9016 4.77289 18.785C3.75129 17.3123 3.07219 15.5445 2.95131 13.6383C2.9387 13.5944 2.93195 13.548 2.93195 13.5C2.93195 13.47 2.93458 13.4407 2.93963 13.4122C2.93453 13.2844 2.93195 13.156 2.93195 13.027Z" fill="#53565A"/>
</svg>
