<svg width="23" height="22" viewBox="0 0 23 22" fill="none" xmlns="http://www.w3.org/2000/svg">
<path fill-rule="evenodd" clip-rule="evenodd" d="M14.8965 14.9733C14.0168 14.9882 12.3099 15.0893 10.9382 15.4108C10.4429 15.527 10.0143 15.6431 9.61568 15.7511C8.50512 16.052 7.62661 16.2901 6.18207 16.2901C4.83161 16.2901 4.71762 15.7009 4.58622 15.0218C4.52662 14.7138 4.46343 14.3872 4.27961 14.0887C4.21536 13.9844 4.14989 13.904 4.08865 13.8287C3.95385 13.6631 3.83957 13.5226 3.804 13.2082C3.75228 12.7509 3.80401 12.3276 3.80401 12.3276C3.80401 12.3276 3.21756 11.9806 3.32839 11.4471C3.43923 10.9136 3.80401 10.5665 3.80401 10.5665C3.80401 10.5665 3.32839 10.2504 3.32839 9.686C3.32839 9.1216 3.82435 7.92491 5.23085 7.92491H7.60892C7.29636 7.48528 6.80255 6.70718 6.65769 6.16382C6.51283 5.62046 6.59991 4.29554 7.15923 3.54089C7.71854 2.78624 8.7313 3.0937 8.98884 3.52747C9.18199 4.6785 9.59911 5.57109 10.4039 6.60811C10.4659 6.68789 10.5261 6.76631 10.5853 6.84323C11.405 7.90982 12.0034 8.68846 13.7059 8.81642C14.1559 8.85025 14.4915 8.90253 14.7434 8.9798C14.6738 8.75201 14.6035 8.54096 14.5384 8.35577C14.3112 7.7097 14.7766 6.98464 15.4973 6.98464H18.9983C19.5506 6.98464 19.9983 7.43236 19.9983 7.98464V15.7901C19.9983 16.3424 19.5506 16.7901 18.9983 16.7901H15.8009C15.1888 16.7901 14.7221 16.2478 14.8063 15.6453C14.8329 15.4544 14.8639 15.2262 14.8965 14.9733ZM15.6847 11.8946C15.6903 11.7385 15.6934 11.5885 15.6934 11.4471C15.6934 11.0873 15.6518 10.7046 15.5859 10.3242L15.5973 10.6213C15.6315 10.9658 15.6678 11.4141 15.6847 11.8946Z" fill="#1A6C31"/>
<path d="M10.9382 15.4108L10.9953 15.6542L10.9382 15.4108ZM14.8965 14.9733L15.1444 15.0052C15.1537 14.9332 15.1312 14.8607 15.0828 14.8066C15.0343 14.7525 14.9648 14.7221 14.8922 14.7233L14.8965 14.9733ZM9.61568 15.7511L9.68106 15.9924L9.61568 15.7511ZM4.58622 15.0218L4.34077 15.0693L4.58622 15.0218ZM4.27961 14.0887L4.06674 14.2198L4.06674 14.2198L4.27961 14.0887ZM4.08865 13.8287L4.28256 13.6709H4.28256L4.08865 13.8287ZM3.804 13.2082L3.55558 13.2363H3.55558L3.804 13.2082ZM3.80401 12.3276L4.05216 12.358C4.06421 12.2594 4.01678 12.1631 3.93132 12.1125L3.80401 12.3276ZM3.32839 11.4471L3.57317 11.4979L3.32839 11.4471ZM3.80401 10.5665L3.97632 10.7477C4.03142 10.6953 4.05967 10.6206 4.05306 10.5448C4.04646 10.4691 4.00573 10.4004 3.9424 10.3583L3.80401 10.5665ZM7.60892 7.92491V8.17491C7.70246 8.17491 7.78819 8.12268 7.83108 8.03955C7.87398 7.95642 7.86688 7.85629 7.81267 7.78005L7.60892 7.92491ZM6.65769 6.16382L6.41613 6.22822L6.65769 6.16382ZM7.15923 3.54089L7.36008 3.68975V3.68975L7.15923 3.54089ZM8.98884 3.52747L9.23539 3.4861C9.23028 3.45564 9.21957 3.4264 9.2038 3.39984L8.98884 3.52747ZM10.4039 6.60811L10.6014 6.45483L10.6014 6.45483L10.4039 6.60811ZM10.5853 6.84323L10.387 6.99557V6.99557L10.5853 6.84323ZM13.7059 8.81642L13.7246 8.56713L13.7059 8.81642ZM14.7434 8.9798L14.6701 9.21882C14.7585 9.24593 14.8547 9.22203 14.9201 9.15667C14.9855 9.09131 15.0095 8.99518 14.9825 8.90674L14.7434 8.9798ZM14.5384 8.35577L14.3025 8.43868V8.43868L14.5384 8.35577ZM14.8063 15.6453L15.0539 15.6799L14.8063 15.6453ZM15.6847 11.8946L15.4349 11.9034C15.4396 12.0379 15.55 12.1446 15.6846 12.1446C15.8192 12.1447 15.9297 12.0382 15.9345 11.9037L15.6847 11.8946ZM15.5859 10.3242L15.8322 10.2816C15.8097 10.1519 15.6906 10.0618 15.5597 10.0756C15.4288 10.0894 15.331 10.2023 15.3361 10.3339L15.5859 10.3242ZM15.5973 10.6213L15.3475 10.631C15.3477 10.636 15.3481 10.641 15.3486 10.646L15.5973 10.6213ZM10.9953 15.6542C12.3415 15.3386 14.0279 15.2381 14.9007 15.2232L14.8922 14.7233C14.0057 14.7384 12.2783 14.8399 10.8811 15.1674L10.9953 15.6542ZM9.68106 15.9924C10.0799 15.8843 10.5046 15.7693 10.9953 15.6542L10.8811 15.1674C10.3811 15.2847 9.94875 15.4018 9.55029 15.5098L9.68106 15.9924ZM6.18207 16.5401C7.66148 16.5401 8.56668 16.2944 9.68106 15.9924L9.55029 15.5098C8.44356 15.8097 7.59174 16.0401 6.18207 16.0401V16.5401ZM4.34077 15.0693C4.40327 15.3923 4.47262 15.7862 4.74307 16.0799C5.02579 16.3871 5.47708 16.5401 6.18207 16.5401V16.0401C5.5366 16.0401 5.25567 15.8985 5.11093 15.7413C4.95392 15.5707 4.90057 15.3305 4.83167 14.9743L4.34077 15.0693ZM4.06674 14.2198C4.22308 14.4737 4.28006 14.7555 4.34077 15.0693L4.83167 14.9743C4.77317 14.672 4.70378 14.3007 4.49248 13.9576L4.06674 14.2198ZM3.89475 13.9865C3.95624 14.0621 4.01208 14.1311 4.06674 14.2198L4.49248 13.9576C4.41865 13.8377 4.34354 13.7458 4.28256 13.6709L3.89475 13.9865ZM3.55558 13.2363C3.5765 13.4212 3.6221 13.5652 3.6877 13.6903C3.751 13.8111 3.82937 13.9062 3.89475 13.9865L4.28256 13.6709C4.21313 13.5856 4.16696 13.5277 4.13053 13.4582C4.0964 13.3931 4.06707 13.3096 4.05242 13.1801L3.55558 13.2363ZM3.80401 12.3276C3.55585 12.2973 3.55585 12.2973 3.55585 12.2974C3.55584 12.2974 3.55584 12.2974 3.55584 12.2975C3.55583 12.2975 3.55582 12.2976 3.55581 12.2976C3.5558 12.2978 3.55578 12.2979 3.55576 12.2981C3.55571 12.2985 3.55566 12.299 3.55559 12.2995C3.55545 12.3007 3.55527 12.3022 3.55505 12.3042C3.5546 12.3081 3.554 12.3136 3.55326 12.3205C3.55179 12.3345 3.54982 12.3543 3.54766 12.3794C3.54333 12.4295 3.53821 12.5006 3.5348 12.5865C3.52802 12.7574 3.52784 12.991 3.55558 13.2363L4.05242 13.1801C4.02843 12.9681 4.02826 12.7614 4.03441 12.6063C4.03747 12.5292 4.04205 12.466 4.04581 12.4224C4.04768 12.4007 4.04935 12.3839 4.05051 12.3729C4.05109 12.3674 4.05154 12.3634 4.05183 12.3608C4.05197 12.3596 4.05208 12.3587 4.05213 12.3582C4.05216 12.358 4.05218 12.3578 4.05218 12.3578C4.05219 12.3578 4.05218 12.3578 4.05218 12.3578C4.05218 12.3578 4.05218 12.3578 4.05217 12.3579C4.05217 12.3579 4.05217 12.3579 4.05217 12.3579C4.05216 12.3579 4.05216 12.358 3.80401 12.3276ZM3.08362 11.3962C3.00576 11.771 3.1777 12.0685 3.33558 12.251C3.41592 12.3439 3.49924 12.4153 3.56189 12.4634C3.5935 12.4877 3.6206 12.5065 3.64049 12.5198C3.65045 12.5264 3.65866 12.5317 3.66479 12.5355C3.66786 12.5374 3.67041 12.539 3.67241 12.5402C3.6734 12.5408 3.67426 12.5413 3.67498 12.5418C3.67534 12.542 3.67566 12.5422 3.67594 12.5423C3.67609 12.5424 3.67622 12.5425 3.67634 12.5426C3.67641 12.5426 3.67649 12.5427 3.67652 12.5427C3.67661 12.5427 3.67669 12.5428 3.80401 12.3276C3.93132 12.1125 3.9314 12.1125 3.93148 12.1126C3.9315 12.1126 3.93157 12.1126 3.93162 12.1127C3.9317 12.1127 3.93178 12.1128 3.93186 12.1128C3.932 12.1129 3.93211 12.113 3.93219 12.113C3.93234 12.1131 3.93236 12.1131 3.93225 12.113C3.93203 12.1129 3.9313 12.1125 3.9301 12.1117C3.9277 12.1102 3.92342 12.1075 3.91756 12.1036C3.90581 12.0958 3.88796 12.0834 3.86632 12.0668C3.82248 12.0331 3.76612 11.9844 3.7137 11.9239C3.60606 11.7994 3.54019 11.6567 3.57317 11.4979L3.08362 11.3962ZM3.80401 10.5665C3.63169 10.3854 3.63164 10.3855 3.63158 10.3855C3.63156 10.3855 3.6315 10.3856 3.63146 10.3856C3.63137 10.3857 3.63128 10.3858 3.63119 10.3859C3.631 10.3861 3.63078 10.3863 3.63055 10.3865C3.63008 10.387 3.62952 10.3875 3.62888 10.3881C3.62759 10.3894 3.62595 10.391 3.62399 10.3929C3.62007 10.3968 3.61484 10.4021 3.60846 10.4087C3.59571 10.4218 3.57831 10.4404 3.55752 10.464C3.51603 10.5112 3.46055 10.5792 3.40147 10.6655C3.28414 10.8369 3.14774 11.0876 3.08362 11.3962L3.57317 11.4979C3.61989 11.2731 3.72129 11.0835 3.81405 10.948C3.86003 10.8808 3.90267 10.8287 3.93304 10.7942C3.94818 10.7769 3.96014 10.7642 3.96777 10.7564C3.97158 10.7524 3.9743 10.7497 3.97578 10.7482C3.97651 10.7475 3.97694 10.7471 3.97704 10.747C3.97709 10.7469 3.97705 10.747 3.97694 10.7471C3.97688 10.7471 3.9768 10.7472 3.97669 10.7473C3.97664 10.7474 3.97659 10.7474 3.97653 10.7475C3.97649 10.7475 3.97644 10.7476 3.97643 10.7476C3.97638 10.7476 3.97632 10.7477 3.80401 10.5665ZM3.07839 9.686C3.07839 10.0418 3.22882 10.3153 3.3705 10.4935C3.44161 10.583 3.5126 10.6512 3.56641 10.6976C3.59345 10.721 3.61653 10.7391 3.63364 10.7519C3.64221 10.7583 3.64932 10.7635 3.65472 10.7673C3.65742 10.7692 3.6597 10.7707 3.66152 10.772C3.66244 10.7726 3.66324 10.7732 3.66392 10.7736C3.66426 10.7738 3.66457 10.7741 3.66486 10.7742C3.665 10.7743 3.66513 10.7744 3.66526 10.7745C3.66532 10.7746 3.66541 10.7746 3.66544 10.7746C3.66553 10.7747 3.66562 10.7748 3.80401 10.5665C3.9424 10.3583 3.94248 10.3584 3.94256 10.3585C3.94259 10.3585 3.94266 10.3585 3.94271 10.3586C3.94281 10.3586 3.9429 10.3587 3.94298 10.3587C3.94315 10.3589 3.94329 10.3589 3.94341 10.359C3.94363 10.3592 3.94375 10.3593 3.94376 10.3593C3.94379 10.3593 3.9434 10.359 3.94261 10.3585C3.94105 10.3574 3.93794 10.3551 3.9335 10.3518C3.9246 10.3451 3.91052 10.3342 3.89297 10.319C3.85761 10.2885 3.80969 10.2425 3.76191 10.1824C3.66577 10.0614 3.57839 9.89458 3.57839 9.686H3.07839ZM5.23085 7.67491C4.44671 7.67491 3.90168 8.01251 3.558 8.43635C3.22268 8.84988 3.07839 9.34554 3.07839 9.686H3.57839C3.57839 9.46206 3.68209 9.07718 3.94637 8.75126C4.20229 8.43565 4.60849 8.17491 5.23085 8.17491V7.67491ZM7.60892 7.67491H5.23085V8.17491H7.60892V7.67491ZM6.41613 6.22822C6.49704 6.5317 6.6697 6.88458 6.85314 7.20692C7.0388 7.53316 7.24518 7.84475 7.40516 8.06977L7.81267 7.78005C7.6601 7.56544 7.46329 7.26817 7.2877 6.95961C7.10988 6.64715 6.96321 6.3393 6.89925 6.09942L6.41613 6.22822ZM6.95838 3.39203C6.64466 3.81531 6.47381 4.38043 6.39713 4.89472C6.32071 5.40725 6.33173 5.91166 6.41613 6.22822L6.89925 6.09942C6.83879 5.87262 6.82092 5.44289 6.89166 4.96846C6.96213 4.49579 7.11448 4.02113 7.36008 3.68975L6.95838 3.39203ZM9.2038 3.39984C9.02387 3.09678 8.62321 2.88229 8.21292 2.83985C7.78435 2.79551 7.2988 2.93271 6.95838 3.39203L7.36008 3.68975C7.57896 3.39442 7.87945 3.30802 8.16147 3.3372C8.46178 3.36826 8.69627 3.52439 8.77387 3.6551L9.2038 3.39984ZM10.6014 6.45483C9.81782 5.44514 9.42066 4.59016 9.23539 3.4861L8.74228 3.56885C8.94332 4.76684 9.3804 5.69704 10.2065 6.76139L10.6014 6.45483ZM10.7835 6.69088C10.7244 6.61403 10.6638 6.53515 10.6014 6.45483L10.2064 6.76139C10.2679 6.84063 10.3279 6.91858 10.387 6.99557L10.7835 6.69088ZM13.7246 8.56713C12.9132 8.50614 12.3848 8.29278 11.9633 7.98084C11.5316 7.66148 11.198 7.23024 10.7835 6.69088L10.387 6.99557C10.7923 7.52281 11.1677 8.01419 11.6659 8.38278C12.174 8.7588 12.7961 8.99874 13.6871 9.06572L13.7246 8.56713ZM14.8167 8.74079C14.5386 8.65549 14.1816 8.60148 13.7246 8.56713L13.6871 9.06572C14.1303 9.09903 14.4444 9.14958 14.6701 9.21882L14.8167 8.74079ZM14.9825 8.90674C14.9118 8.67526 14.8403 8.4609 14.7742 8.27285L14.3025 8.43868C14.3666 8.62102 14.4358 8.82876 14.5043 9.05286L14.9825 8.90674ZM14.7742 8.27285C14.6005 7.7787 14.9602 7.23464 15.4973 7.23464V6.73464C14.5931 6.73464 14.022 7.64071 14.3025 8.43868L14.7742 8.27285ZM15.4973 7.23464H18.9983V6.73464H15.4973V7.23464ZM18.9983 7.23464C19.4125 7.23464 19.7483 7.57043 19.7483 7.98464H20.2483C20.2483 7.29428 19.6887 6.73464 18.9983 6.73464V7.23464ZM19.7483 7.98464V15.7901H20.2483V7.98464H19.7483ZM19.7483 15.7901C19.7483 16.2043 19.4125 16.5401 18.9983 16.5401V17.0401C19.6887 17.0401 20.2483 16.4805 20.2483 15.7901H19.7483ZM18.9983 16.5401H15.8009V17.0401H18.9983V16.5401ZM15.8009 16.5401C15.3418 16.5401 14.9905 16.1331 15.0539 15.6799L14.5587 15.6106C14.4536 16.3624 15.0359 17.0401 15.8009 17.0401V16.5401ZM15.0539 15.6799C15.0806 15.4882 15.1117 15.2591 15.1444 15.0052L14.6485 14.9413C14.6161 15.1933 14.5852 15.4206 14.5587 15.6106L15.0539 15.6799ZM15.9345 11.9037C15.9403 11.745 15.9434 11.5921 15.9434 11.4471H15.4434C15.4434 11.585 15.4404 11.7319 15.4349 11.8856L15.9345 11.9037ZM15.9434 11.4471C15.9434 11.069 15.8997 10.6714 15.8322 10.2816L15.3395 10.3669C15.4038 10.7377 15.4434 11.1056 15.4434 11.4471H15.9434ZM15.3361 10.3339L15.3475 10.631L15.8472 10.6117L15.8357 10.3146L15.3361 10.3339ZM15.9346 11.8859C15.9174 11.3986 15.8806 10.9447 15.8461 10.5967L15.3486 10.646C15.3824 10.9869 15.4182 11.4297 15.4349 11.9034L15.9346 11.8859Z" fill="#1A6C31"/>
</svg>
