<svg width="32" height="32" viewBox="0 0 32 32" fill="none" xmlns="http://www.w3.org/2000/svg">
<path fill-rule="evenodd" clip-rule="evenodd" d="M12.8333 3.33301C12.8333 3.05687 13.0572 2.83301 13.3333 2.83301H18.6667C18.9428 2.83301 19.1667 3.05687 19.1667 3.33301V5.49967H24.6667H26C26.2761 5.49967 26.5 5.72353 26.5 5.99967C26.5 6.27582 26.2761 6.49967 26 6.49967H25.1113L22.4966 28.7248C22.4669 28.9766 22.2535 29.1663 22 29.1663H10C9.74646 29.1663 9.53305 28.9766 9.50342 28.7248L6.88871 6.49967H6C5.72386 6.49967 5.5 6.27582 5.5 5.99967C5.5 5.72353 5.72386 5.49967 6 5.49967H7.33333H12.8333V3.33301ZM18.1667 3.83301V5.49967H13.8333V3.83301H18.1667ZM7.89561 6.49967H13.3333H18.6667H24.1044L21.5554 28.1663H10.4446L7.89561 6.49967ZM13.1667 9.99967C13.1667 9.72353 12.9428 9.49967 12.6667 9.49967C12.3905 9.49967 12.1667 9.72353 12.1667 9.99967V15.333C12.1667 15.6091 12.3905 15.833 12.6667 15.833C12.9428 15.833 13.1667 15.6091 13.1667 15.333V9.99967ZM16.5 9.99967C16.5 9.72353 16.2761 9.49967 16 9.49967C15.7239 9.49967 15.5 9.72353 15.5 9.99967V15.333C15.5 15.6091 15.7239 15.833 16 15.833C16.2761 15.833 16.5 15.6091 16.5 15.333V9.99967ZM19.3333 9.49967C19.6095 9.49967 19.8333 9.72353 19.8333 9.99967V15.333C19.8333 15.6091 19.6095 15.833 19.3333 15.833C19.0572 15.833 18.8333 15.6091 18.8333 15.333V9.99967C18.8333 9.72353 19.0572 9.49967 19.3333 9.49967Z" fill="#141414"/>
</svg>
