<svg width="32" height="32" viewBox="0 0 32 32" fill="none" xmlns="http://www.w3.org/2000/svg">
<path fill-rule="evenodd" clip-rule="evenodd" d="M9.8173 5.16699C9.59648 5.16699 9.38494 5.25465 9.22853 5.41107L7.94916 6.69044C7.81493 6.82468 7.73203 6.99717 7.71202 7.18258C7.58942 8.31829 7.28004 11.2882 7.16553 13.3475V20.9692L9.27429 21.8308L8.84696 20.1215C8.77999 19.8536 8.94287 19.5821 9.21076 19.5152C9.47866 19.4482 9.75013 19.6111 9.8171 19.879L10.4838 22.5456C10.5295 22.7284 10.4685 22.9214 10.3261 23.0448C10.1837 23.1682 9.98402 23.201 9.80959 23.1298L7.16553 22.0495V24.8337L15.9984 24.8337H15.9991L24.832 24.8337V22.0494L22.1882 23.1298C22.0137 23.201 21.814 23.1682 21.6716 23.0448C21.5292 22.9214 21.4683 22.7284 21.514 22.5456L22.1806 19.879C22.2476 19.6111 22.5191 19.4482 22.787 19.5152C23.0549 19.5821 23.2177 19.8536 23.1508 20.1215L22.7234 21.8308L24.832 20.9692V13.3475C24.7175 11.2882 24.4081 8.31829 24.2855 7.18258C24.2655 6.99717 24.1826 6.82468 24.0484 6.69044L22.769 5.41107C22.6126 5.25465 22.4011 5.16699 22.1803 5.16699H15.9991H15.9984H9.8173ZM15.9984 25.8337H15.9991L21.4995 25.8337V27.335C21.4995 27.6111 21.7234 27.835 21.9995 27.835H23.9995C24.2757 27.835 24.4995 27.6111 24.4995 27.335V25.8337H25.332C25.4646 25.8337 25.5918 25.781 25.6856 25.6872C25.7794 25.5935 25.832 25.4663 25.832 25.3337V13.833H27.6655C27.8036 13.833 27.9354 13.776 28.0299 13.6754C28.1244 13.5748 28.1732 13.4396 28.1646 13.3018L27.8312 7.96849C27.8148 7.70497 27.5962 7.49967 27.3322 7.49967H25.3322V7.56694C25.3124 7.3788 25.2947 7.21324 25.2798 7.07525C25.2349 6.6597 25.0487 6.27652 24.7555 5.98334L23.4761 4.70397C23.1325 4.36028 22.6667 4.16699 22.1803 4.16699H15.9991H15.9984H9.8173C9.33087 4.16699 8.8651 4.36028 8.52142 4.70397L7.24205 5.98334C6.94887 6.27652 6.76265 6.6597 6.71779 7.07525C6.7029 7.21324 6.68519 7.3788 6.66537 7.56694V7.49967H4.66537C4.40133 7.49967 4.18281 7.70497 4.16634 7.96849L3.83301 13.3018C3.8244 13.4396 3.87311 13.5748 3.96762 13.6754C4.06212 13.776 4.19401 13.833 4.33203 13.833H6.16553V25.3337C6.16553 25.4663 6.21821 25.5935 6.31197 25.6872C6.40574 25.781 6.53292 25.8337 6.66553 25.8337H7.49951V27.335C7.49951 27.6111 7.72337 27.835 7.99951 27.835H9.99951C10.2757 27.835 10.4995 27.6111 10.4995 27.335V25.8337L15.9984 25.8337ZM6.19473 12.833C6.28465 11.4386 6.44206 9.76062 6.5692 8.49967H5.13509L4.86426 12.833H6.19473ZM25.4284 8.49967C25.5555 9.76062 25.7129 11.4386 25.8028 12.833H27.1333L26.8625 8.49967H25.4284ZM10.7362 16.8849L17.4808 14.0002H9.2034C9.10121 14.0002 8.99902 14.1156 8.99902 14.231V16.6541C8.99902 16.7695 9.10121 16.8849 9.2034 16.8849H10.7362ZM22.7938 14.1147H21.3632L21.261 14.2301L14.6187 16.9994H22.7938C22.896 16.9994 22.9982 16.884 22.9982 16.7686V14.3455C22.9982 14.2301 22.896 14.1147 22.7938 14.1147ZM12.6655 18.8335C12.3894 18.8335 12.1655 19.0574 12.1655 19.3335C12.1655 19.6096 12.3894 19.8335 12.6655 19.8335H19.3322C19.6083 19.8335 19.8322 19.6096 19.8322 19.3335C19.8322 19.0574 19.6083 18.8335 19.3322 18.8335H12.6655ZM13.499 22.0002C13.499 21.7241 13.7229 21.5002 13.999 21.5002H17.999C18.2752 21.5002 18.499 21.7241 18.499 22.0002C18.499 22.2764 18.2752 22.5002 17.999 22.5002H13.999C13.7229 22.5002 13.499 22.2764 13.499 22.0002Z" fill="#141414"/>
</svg>
