<svg width="16" height="16" viewBox="0 0 16 16" fill="none" xmlns="http://www.w3.org/2000/svg">
<path fill-rule="evenodd" clip-rule="evenodd" d="M1.99854 8.00003C1.99854 4.6855 4.6855 1.99854 8.00003 1.99854C11.3146 1.99854 14.0015 4.6855 14.0015 8.00003C14.0015 11.3146 11.3146 14.0015 8.00003 14.0015C4.6855 14.0015 1.99854 11.3146 1.99854 8.00003ZM8.00003 0.998535C4.13321 0.998535 0.998535 4.13321 0.998535 8.00003C0.998535 11.8668 4.13321 15.0015 8.00003 15.0015C11.8668 15.0015 15.0015 11.8668 15.0015 8.00003C15.0015 4.13321 11.8668 0.998535 8.00003 0.998535ZM7.33826 4.74065V4.13115C7.33826 4.05671 7.40219 3.96564 7.50377 3.96564L7.72159 3.96601C7.83985 3.96625 7.9723 3.96652 8.04146 3.96652H8.51785C8.61944 3.96652 8.68336 4.05759 8.68336 4.13203V4.74065V5.38019C8.68336 5.45462 8.61944 5.5457 8.51785 5.5457H8.04146C7.9723 5.5457 7.83985 5.54596 7.72159 5.5462L7.50377 5.54657C7.40219 5.54657 7.33826 5.4555 7.33826 5.38106V4.74065ZM7.33614 7.53967V6.93017C7.33614 6.85573 7.40007 6.76466 7.50165 6.76466L7.71947 6.76503C7.83773 6.76527 7.97018 6.76554 8.03934 6.76554H8.51573C8.61732 6.76554 8.68124 6.85661 8.68124 6.93105V7.53967V11.8642C8.68124 11.9387 8.61732 12.0297 8.51573 12.0297H8.03934C7.97018 12.0297 7.83773 12.03 7.71947 12.0302L7.50165 12.0306C7.40007 12.0306 7.33614 11.9395 7.33614 11.8651V7.53967Z" fill="#141414"/>
</svg>
