<svg width="48" height="49" viewBox="0 0 48 49" fill="none" xmlns="http://www.w3.org/2000/svg">
<path fill-rule="evenodd" clip-rule="evenodd" d="M14.25 7.99805C14.25 7.58383 14.5857 7.24805 15 7.24805H33C33.4142 7.24805 33.75 7.58383 33.75 7.99805V19.9647C33.75 20.3789 33.4142 20.7147 33 20.7147C32.5857 20.7147 32.25 20.3789 32.25 19.9647V8.74805H15.75V19.9647C15.75 20.3789 15.4142 20.7147 15 20.7147C14.5857 20.7147 14.25 20.3789 14.25 19.9647V7.99805ZM7 23.248C6.58579 23.248 6.25 23.5838 6.25 23.998V41.998C6.25 42.4122 6.58579 42.748 7 42.748H19.0668C19.481 42.748 19.8168 42.4122 19.8168 41.998C19.8168 41.5838 19.481 41.248 19.0668 41.248H7.75V24.748H19.0668C19.481 24.748 19.8168 24.4122 19.8168 23.998C19.8168 23.5838 19.481 23.248 19.0668 23.248H7ZM12.25 29.998C12.25 29.5838 12.5858 29.248 13 29.248H19C19.4142 29.248 19.75 29.5838 19.75 29.998C19.75 30.4122 19.4142 30.748 19 30.748H13C12.5858 30.748 12.25 30.4122 12.25 29.998ZM22.4697 23.4676C22.6104 23.327 22.8011 23.248 23 23.248H41C41.4143 23.248 41.75 23.5838 41.75 23.998V41.998C41.75 42.4122 41.4143 42.748 41 42.748H23C22.5858 42.748 22.25 42.4122 22.25 41.998V23.998C22.25 23.7991 22.3291 23.6083 22.4697 23.4676ZM23.75 24.748V41.248H40.25V24.748H23.75ZM28.25 29.998C28.25 29.5838 28.5858 29.248 29 29.248H35C35.4143 29.248 35.75 29.5838 35.75 29.998C35.75 30.4122 35.4143 30.748 35 30.748H29C28.5858 30.748 28.25 30.4122 28.25 29.998ZM21 13.248C20.5857 13.248 20.25 13.5838 20.25 13.998C20.25 14.4123 20.5857 14.748 21 14.748H27C27.4142 14.748 27.75 14.4123 27.75 13.998C27.75 13.5838 27.4142 13.248 27 13.248H21Z" fill="#141414"/>
</svg>
