<svg width="22" height="16" viewBox="0 0 22 16" fill="none" xmlns="http://www.w3.org/2000/svg">
<path fill-rule="evenodd" clip-rule="evenodd" d="M1.92773 2.79609V14.008C2.87031 13.2759 4.23725 12.8595 6.21366 12.8595C8.19045 12.8595 9.55753 13.2761 10.5001 14.0084V2.79682C9.84028 1.89426 8.64808 1.22461 6.21366 1.22461C3.7799 1.22461 2.58769 1.89389 1.92773 2.79609ZM15.7855 13.8595C13.2628 13.8595 12.0741 14.5785 11.4293 15.5308C11.342 15.6765 11.1825 15.7741 11.0001 15.7741C10.8976 15.7741 10.8022 15.7432 10.7229 15.6903C10.6684 15.6541 10.6209 15.6071 10.5836 15.5512C9.94201 14.5888 8.75436 13.8595 6.21366 13.8595C3.67296 13.8595 2.48531 14.5888 1.84376 15.5512C1.72154 15.7345 1.49372 15.8162 1.28284 15.7524C1.07196 15.6885 0.927734 15.4942 0.927734 15.2738V2.63898C0.927734 2.54027 0.956953 2.44376 1.01171 2.36163C1.90165 1.02671 3.4707 0.224609 6.21366 0.224609C8.5718 0.224609 10.0623 0.817442 10.9996 1.832C11.9369 0.817442 13.4274 0.224609 15.7855 0.224609C18.5285 0.224609 20.0975 1.02671 20.9875 2.36163C21.0422 2.44376 21.0714 2.54027 21.0714 2.63898V15.2738C21.0714 15.4942 20.9272 15.6885 20.7163 15.7524C20.5055 15.8162 20.2776 15.7345 20.1554 15.5512C19.5139 14.5888 18.3262 13.8595 15.7855 13.8595ZM11.5001 2.79535V14.0076C12.4427 13.2757 13.8095 12.8595 15.7855 12.8595C17.7619 12.8595 19.1289 13.2759 20.0714 14.008V2.79609C19.4115 1.89389 18.2193 1.22461 15.7855 1.22461C13.3524 1.22461 12.1602 1.89353 11.5001 2.79535ZM15.1481 5.61118V11.1484H16.5042V5.61118H15.1481ZM15.1368 4.85405H16.5155V3.30588H15.1368V4.85405Z" fill=""/>
</svg>
