<svg width="16" height="16" viewBox="0 0 16 16" fill="none" xmlns="http://www.w3.org/2000/svg">
<path fill-rule="evenodd" clip-rule="evenodd" d="M5.53255 5.3335C5.53255 3.95278 6.65184 2.8335 8.03255 2.8335C9.41326 2.8335 10.5326 3.95278 10.5326 5.3335C10.5326 6.71421 9.41326 7.8335 8.03255 7.8335C6.65184 7.8335 5.53255 6.71421 5.53255 5.3335ZM8.03255 1.8335C6.09955 1.8335 4.53255 3.4005 4.53255 5.3335C4.53255 6.41776 5.02558 7.38686 5.79968 8.02885C4.27579 8.34193 3.38991 9.0167 2.92549 9.94692C2.61482 10.5692 2.52508 11.2503 2.5049 11.8839C2.49475 12.2026 2.50209 12.5193 2.51141 12.8179L2.51697 12.9899C2.52479 13.228 2.53212 13.4515 2.53212 13.6668C2.53212 13.943 2.75598 14.1668 3.03212 14.1668C3.30826 14.1668 3.53212 13.943 3.53212 13.6668C3.53212 13.4334 3.52409 13.1894 3.51621 12.9501L3.51093 12.7867C3.5017 12.4911 3.49531 12.2009 3.50439 11.9158C3.52267 11.3419 3.60329 10.828 3.82018 10.3936C4.22128 9.59023 5.21536 8.8335 8.00009 8.8335C10.7848 8.8335 11.7788 9.59023 12.1799 10.3936C12.3968 10.828 12.4774 11.3419 12.4956 11.9158C12.5047 12.2009 12.4983 12.491 12.4891 12.7867L12.4838 12.9499C12.4759 13.1893 12.4678 13.4334 12.4678 13.6668C12.4678 13.943 12.6917 14.1668 12.9678 14.1668C13.244 14.1668 13.4678 13.943 13.4678 13.6668C13.4678 13.4515 13.4752 13.228 13.483 12.9898L13.483 12.9897L13.4886 12.8179C13.4979 12.5193 13.5052 12.2026 13.4951 11.884C13.4749 11.2504 13.3852 10.5692 13.0746 9.94694C12.6155 9.0273 11.7445 8.35733 10.2523 8.03969C11.0339 7.39779 11.5326 6.42387 11.5326 5.3335C11.5326 3.4005 9.96555 1.8335 8.03255 1.8335Z" fill="#888B8D"/>
</svg>
