<svg width="24" height="24" viewBox="0 0 24 24" fill="none" xmlns="http://www.w3.org/2000/svg">
<path fill-rule="evenodd" clip-rule="evenodd" d="M12.0488 4C9.83969 4 8.04883 5.79086 8.04883 8C8.04883 9.82047 9.26538 11.3581 10.9309 11.8418C11.1896 11.917 11.3411 12.1828 11.2768 12.4419C11.2809 12.4629 11.2836 12.4843 11.2849 12.5062C11.3018 12.7818 11.092 13.019 10.8164 13.0358C9.04926 13.144 7.8344 13.4893 6.99745 13.9612C6.17189 14.4268 5.6928 15.0271 5.40812 15.6994C5.11781 16.3851 5.02082 17.167 5.00317 18.0008C4.99437 18.4161 5.00525 18.8352 5.01881 19.2562L5.02473 19.4367C5.03658 19.7945 5.0485 20.1544 5.0485 20.5C5.0485 20.7761 4.82464 21 4.5485 21C4.27235 21 4.0485 20.7761 4.0485 20.5C4.0485 20.1724 4.03722 19.8313 4.02536 19.4726L4.01932 19.2884C4.00572 18.866 3.99399 18.4238 4.00339 17.9796C4.02212 17.0946 4.12473 16.1657 4.48727 15.3095C4.85544 14.44 5.48243 13.6675 6.50625 13.0902C7.23828 12.6774 8.16131 12.3708 9.31908 12.1896C7.95237 11.2974 7.04883 9.75461 7.04883 8C7.04883 5.23858 9.2874 3 12.0488 3C14.8103 3 17.0488 5.23858 17.0488 8C17.0488 8.18001 17.0393 8.35797 17.0207 8.53338C16.9915 8.80798 16.7453 9.00695 16.4707 8.9778C16.1961 8.94864 15.9971 8.7024 16.0263 8.4278C16.0412 8.28741 16.0488 8.14468 16.0488 8C16.0488 5.79086 14.258 4 12.0488 4ZM12.7988 10.9863C12.7988 10.7102 13.0227 10.4863 13.2988 10.4863H17.7055C18.0665 10.4863 18.4131 10.6847 18.6058 10.8317C18.6246 10.8461 18.6425 10.8618 18.6591 10.8787L20.8879 13.1459C21.0113 13.2715 21.1015 13.439 21.1594 13.5832C21.2186 13.7303 21.2702 13.9174 21.2702 14.1037V20.5005C21.2702 20.7766 21.0463 21.0005 20.7702 21.0005H13.2988C13.0227 21.0005 12.7988 20.7766 12.7988 20.5005V10.9863ZM13.7988 11.4863V20.0005H20.2702V14.6183H18.3423C17.892 14.6183 17.4443 14.2566 17.4443 13.7134V11.4863H13.7988ZM18.4443 12.0867L19.95 13.6183H18.4443V12.0867ZM15.0488 16.5C15.0488 16.2239 15.2727 16 15.5488 16H18.5488C18.825 16 19.0488 16.2239 19.0488 16.5C19.0488 16.7762 18.825 17 18.5488 17H15.5488C15.2727 17 15.0488 16.7762 15.0488 16.5ZM15.5488 18C15.2727 18 15.0488 18.2239 15.0488 18.5C15.0488 18.7762 15.2727 19 15.5488 19H18.5488C18.825 19 19.0488 18.7762 19.0488 18.5C19.0488 18.2239 18.825 18 18.5488 18H15.5488Z" fill="#141414"/>
</svg>
