<svg width="18" height="18" viewBox="0 0 18 18" fill="none" xmlns="http://www.w3.org/2000/svg">
<path fill-rule="evenodd" clip-rule="evenodd" d="M5.00012 5C5.00012 2.79086 6.79098 1 9.00012 1C11.2093 1 13.0001 2.79086 13.0001 5C13.0001 7.20914 11.2093 9 9.00012 9C6.79098 9 5.00012 7.20914 5.00012 5ZM9.00012 0C6.2387 0 4.00012 2.23858 4.00012 5C4.00012 6.75445 4.90375 8.29785 6.27097 9.19017C3.68324 9.59563 2.27416 10.6241 1.5674 12.0307C1.1218 12.9175 0.988562 13.8978 0.95856 14.8335C0.943502 15.3032 0.954356 15.7717 0.968405 16.2189L0.976721 16.4747C0.988543 16.8323 0.99979 17.1725 0.99979 17.5C0.99979 17.7761 1.22365 18 1.49979 18C1.77593 18 1.99979 17.7761 1.99979 17.5C1.99979 17.1543 1.98784 16.7934 1.97596 16.4347L1.96791 16.1875C1.95396 15.7433 1.94407 15.3015 1.95805 14.8656C1.98612 13.9901 2.11007 13.1779 2.46094 12.4797C3.13024 11.1477 4.75719 10 8.99993 10C9.69643 10 10.3224 10.0309 10.8853 10.0885C11.308 9.75142 11.7867 9.48141 12.3051 9.29464C12.1199 9.25623 11.928 9.22139 11.7292 9.19022C13.0965 8.29791 14.0001 6.75448 14.0001 5C14.0001 2.23858 11.7615 0 9.00012 0ZM17.4019 12.032C17.5663 11.8101 17.5196 11.497 17.2977 11.3326C17.0758 11.1682 16.7627 11.2149 16.5983 11.4368L13.4015 15.7525L11.3403 13.8386C11.138 13.6507 10.8216 13.6624 10.6337 13.8647C10.4458 14.0671 10.4575 14.3835 10.6599 14.5714L13.1305 16.8655C13.2347 16.9623 13.3752 17.0101 13.5169 16.9969C13.6585 16.9838 13.7878 16.911 13.8725 16.7967L17.4019 12.032Z" fill="#53565A"/>
</svg>
