<svg width="17" height="18" viewBox="0 0 17 18" fill="none" xmlns="http://www.w3.org/2000/svg">
<path fill-rule="evenodd" clip-rule="evenodd" d="M5 5C5 2.79086 6.79086 1 9 1C11.2091 1 13 2.79086 13 5C13 7.20914 11.2091 9 9 9C6.79086 9 5 7.20914 5 5ZM9 0C6.23858 0 4 2.23858 4 5C4 6.75445 4.90362 8.29785 6.27085 9.19017C3.68312 9.59563 2.27404 10.6241 1.56728 12.0307C1.12168 12.9175 0.98844 13.8978 0.958438 14.8335C0.94338 15.3032 0.954234 15.7717 0.968283 16.2189L0.976599 16.4747C0.988421 16.8323 0.999668 17.1725 0.999668 17.5C0.999668 17.7761 1.22353 18 1.49967 18C1.77581 18 1.99967 17.7761 1.99967 17.5C1.99967 17.1543 1.98772 16.7934 1.97584 16.4347L1.96779 16.1875C1.95384 15.7433 1.94395 15.3015 1.95792 14.8656C1.98599 13.9901 2.10995 13.1779 2.46081 12.4797C3.13012 11.1477 4.75707 10 8.99981 10C9.69631 10 10.3223 10.0309 10.8852 10.0885C11.3079 9.75142 11.7866 9.48141 12.305 9.29464C12.1198 9.25623 11.9279 9.22139 11.7291 9.19022C13.0963 8.29791 14 6.75448 14 5C14 2.23858 11.7614 0 9 0ZM13.9857 10.5001V10.5L13.9769 10.5002C13.2488 10.5129 12.7072 10.7002 12.3712 11.1178C12.0553 11.5104 12.0147 12.0027 12.0004 12.36L12 12.37L12 12.38L12 13.0219C11.8284 13.0576 11.6633 13.1408 11.5379 13.2994C11.3912 13.4849 11.3604 13.7068 11.3458 13.8234L11.3421 13.853V13.8597L11.3403 13.8702L11.3403 13.8702C11.3386 13.8807 11.3358 13.8974 11.3314 13.9225C11.3205 13.9855 11.3053 14.075 11.2911 14.1899C11.2626 14.4203 11.2395 14.7426 11.2549 15.1754C11.2703 15.695 11.3241 16.0922 11.3806 16.3739C11.4288 16.6147 11.4831 16.7918 11.5255 16.8885L11.5277 16.8942C11.5507 16.9541 11.6133 17.1173 11.7413 17.2486C11.9125 17.4241 12.1415 17.5 12.3937 17.5H15.5405C15.7893 17.5 16.0139 17.4272 16.1912 17.2766C16.349 17.1425 16.4318 16.9784 16.4782 16.8479C16.5198 16.749 16.5718 16.5764 16.6182 16.3448C16.6746 16.0631 16.7284 15.6659 16.7438 15.1463C16.7711 14.3802 16.7014 13.9484 16.6476 13.7536C16.6303 13.63 16.5897 13.4295 16.4436 13.2642C16.3157 13.1196 16.1559 13.0502 15.9999 13.0201V12.357V12.347L15.9995 12.337C15.9853 11.9809 15.9451 11.4839 15.6208 11.0923C15.2766 10.6767 14.7243 10.5001 13.9857 10.5001ZM15 13.0001V12.3673C14.9852 12.0168 14.9397 11.8377 14.8506 11.7301C14.7807 11.6456 14.5908 11.5008 13.9901 11.5001C13.4073 11.511 13.2211 11.6566 13.1502 11.7447C13.0598 11.8572 13.0147 12.0409 13 12.3902L13 13.0001H15ZM13.2982 15.2683C13.1069 15.0954 12.9834 14.8464 12.9834 14.5631C12.9834 14.0195 13.4336 13.6055 13.9556 13.6055C14.4776 13.6055 14.9279 14.0195 14.9279 14.5631C14.9279 14.8464 14.8044 15.0954 14.613 15.2683V16.1072C14.613 16.4823 14.3038 16.7597 13.9556 16.7597C13.6075 16.7597 13.2982 16.4823 13.2982 16.1072V15.2683Z" fill="#53565A"/>
</svg>
