<svg width="32" height="33" viewBox="0 0 32 33" fill="none" xmlns="http://www.w3.org/2000/svg">
<path fill-rule="evenodd" clip-rule="evenodd" d="M3.88969 14.3938C4.10043 14.2854 4.3549 14.171 4.64173 14.0527L6.81577 7.60551C6.87607 7.4267 7.0319 7.29707 7.2187 7.27032C8.43854 7.09569 12.2465 7.0127 15.9974 7.0127C19.7484 7.0127 23.5563 7.09569 24.7762 7.27032C24.9629 7.29706 25.1187 7.42664 25.1791 7.60541L27.3594 14.0665C27.6344 14.1803 27.8788 14.2905 28.0824 14.395C28.2581 14.4852 28.4195 14.5793 28.5477 14.6766C28.612 14.7254 28.6789 14.7832 28.7372 14.8506C28.7927 14.9148 28.8632 15.0138 28.8968 15.1457L28.8968 15.1457C29.0836 15.8792 28.9409 16.8552 28.6586 17.8585C28.3701 18.8844 27.91 20.0245 27.3768 21.1298C27.2569 21.3786 26.958 21.4829 26.7092 21.3629C26.4605 21.243 26.3562 20.9441 26.4761 20.6954C26.9929 19.6241 27.428 18.5405 27.696 17.5877C27.9545 16.6688 28.0362 15.9432 27.9462 15.4755L27.9432 15.4732C27.8818 15.4266 27.7787 15.3632 27.6257 15.2846C27.3226 15.1291 26.887 14.9459 26.3513 14.7446C25.284 14.3434 23.8743 13.8901 22.4623 13.4624C21.0523 13.0353 19.6487 12.6364 18.5969 12.3442C18.0712 12.1981 17.6338 12.0787 17.3279 11.9959C17.175 11.9545 17.055 11.9223 16.9733 11.9004L16.8801 11.8755L16.859 11.8699C16.7377 11.8435 16.6154 11.8227 16.4927 11.8075V20.9214C16.4927 21.1975 16.2688 21.4214 15.9927 21.4214C15.7165 21.4214 15.4927 21.1975 15.4927 20.9214V11.8059C15.3655 11.8213 15.2389 11.8426 15.1133 11.8699L15.0921 11.8756L14.999 11.9004C14.9173 11.9223 14.7973 11.9545 14.6443 11.9958C14.3385 12.0785 13.9011 12.1976 13.3754 12.3435C12.3236 12.6354 10.92 13.0338 9.5101 13.4605C8.09807 13.8879 6.6885 14.3411 5.62122 14.7425C5.08563 14.9439 4.65007 15.1272 4.34713 15.283C4.19425 15.3617 4.0912 15.4252 4.02985 15.4719L4.02706 15.4741C3.94026 15.9377 4.02401 16.6614 4.28294 17.5811C4.55147 18.535 4.98514 19.6219 5.49742 20.6976C5.61614 20.947 5.51027 21.2453 5.26095 21.364C5.01163 21.4828 4.71328 21.3769 4.59456 21.1276C4.06679 20.0193 3.60899 18.8774 3.32036 17.8521C3.03822 16.8499 2.89275 15.8759 3.0752 15.1476L3.07553 15.1463C3.10892 15.0146 3.17901 14.9155 3.23455 14.851C3.29282 14.7833 3.3598 14.7252 3.42414 14.6763C3.55247 14.5786 3.71397 14.4842 3.88969 14.3938ZM9.22041 12.5034C8.04166 12.8602 6.85115 13.2388 5.8518 13.5938L7.66233 8.22461C9.0592 8.0856 12.504 8.0127 15.9974 8.0127C19.491 8.0127 22.9358 8.08561 24.3326 8.22461L26.1486 13.6059C25.1436 13.2482 23.9419 12.8657 22.7522 12.5053C21.3323 12.0752 19.9207 11.6741 18.8647 11.3807C18.3365 11.2339 17.8969 11.114 17.5892 11.0307C17.4354 10.989 17.3145 10.9565 17.232 10.9345L17.1376 10.9093L17.1133 10.9028L17.1071 10.9011L17.1055 10.9007L17.1051 10.9006C17.105 10.9006 17.1049 10.9006 16.9768 11.3838L17.1049 10.9006C17.0981 10.8987 17.0912 10.8971 17.0842 10.8955C16.3609 10.7363 15.6116 10.7363 14.8882 10.8955C14.8814 10.897 14.8745 10.8987 14.8677 10.9005L14.9957 11.3838C14.8677 10.9005 14.8677 10.9005 14.8676 10.9005L14.8671 10.9007L14.8655 10.9011L14.8593 10.9027L14.835 10.9092L14.7407 10.9343C14.6582 10.9564 14.5373 10.9888 14.3834 11.0304C14.0757 11.1136 13.6361 11.2334 13.1079 11.3799C12.0519 11.673 10.6403 12.0737 9.22041 12.5034ZM11.4176 22.8753C11.3255 22.7283 11.1637 22.6397 10.9902 22.641C10.8167 22.6424 10.6564 22.7335 10.5665 22.8819C10.3376 23.2596 10.027 23.5642 9.66675 23.7711C9.30682 23.9778 8.90743 24.0812 8.50511 24.0748L8.48883 24.0748C8.08581 24.0816 7.68565 23.9782 7.32496 23.7715C6.96394 23.5645 6.65261 23.2597 6.42307 22.8816C6.3323 22.732 6.16995 22.6408 5.995 22.641C5.82005 22.6412 5.65794 22.7329 5.56755 22.8827C5.33877 23.2618 5.02775 23.5676 4.66673 23.7752C4.30606 23.9827 3.90567 24.0864 3.50238 24.0798C3.22628 24.0752 2.99876 24.2954 2.99421 24.5715C2.98966 24.8476 3.20979 25.0751 3.4859 25.0797C4.07323 25.0893 4.65116 24.9378 5.1653 24.6421C5.4749 24.464 5.75473 24.2376 5.9967 23.9722C6.2388 24.2364 6.51848 24.4618 6.82769 24.6391C7.33923 24.9323 7.91355 25.0831 8.49734 25.0748C9.08046 25.0826 9.654 24.9315 10.1647 24.6383C10.4757 24.4597 10.7566 24.2324 10.9994 23.9659C11.2431 24.2276 11.523 24.4513 11.8315 24.6282C12.3417 24.9207 12.9132 25.0751 13.4956 25.0751C14.078 25.0751 14.6495 24.9207 15.1597 24.6282C15.4705 24.45 15.7522 24.2243 15.9971 23.9601C16.242 24.2243 16.5237 24.45 16.8345 24.6282C17.3447 24.9207 17.9162 25.0751 18.4986 25.0751C19.081 25.0751 19.6525 24.9207 20.1628 24.6282C20.4736 24.45 20.7553 24.2242 21.0003 23.9599C21.2454 24.2242 21.5273 24.45 21.8383 24.6282C22.3487 24.9206 22.9203 25.0749 23.5028 25.0749C24.0853 25.0749 24.6569 24.9206 25.1673 24.6282C25.476 24.4513 25.7561 24.2275 25.9999 23.9657C26.2434 24.233 26.5252 24.4609 26.8372 24.6397C27.3513 24.9344 27.9289 25.085 28.5157 25.0747C28.7918 25.0698 29.0117 24.8421 29.0069 24.566C29.002 24.2899 28.7742 24.07 28.4981 24.0748C28.0952 24.0819 27.6951 23.9788 27.3344 23.7721C26.9735 23.5652 26.6623 23.2602 26.4331 22.8819C26.3432 22.7336 26.1829 22.6424 26.0094 22.641C25.836 22.6396 25.6742 22.7282 25.582 22.8751C25.3465 23.2501 25.0325 23.5529 24.6702 23.7605C24.3081 23.9679 23.9075 24.0749 23.5028 24.0749C23.0981 24.0749 22.6974 23.9679 22.3354 23.7605C21.9731 23.5529 21.659 23.2501 21.4236 22.8751C21.3321 22.7294 21.1721 22.641 21 22.641C20.828 22.641 20.668 22.7295 20.5766 22.8753C20.3414 23.2502 20.0275 23.553 19.6654 23.7606C19.3036 23.968 18.9032 24.0751 18.4986 24.0751C18.0941 24.0751 17.6936 23.968 17.3318 23.7606C16.9697 23.553 16.6559 23.2502 16.4207 22.8753C16.3292 22.7295 16.1692 22.641 15.9971 22.641C15.825 22.641 15.665 22.7295 15.5736 22.8753C15.3383 23.2502 15.0245 23.553 14.6624 23.7606C14.3006 23.968 13.9001 24.0751 13.4956 24.0751C13.0911 24.0751 12.6906 23.968 12.3288 23.7606C11.9667 23.553 11.6529 23.2502 11.4176 22.8753Z" fill="#141414"/>
</svg>
