<svg width="24" height="24" viewBox="0 0 24 24" fill="none" xmlns="http://www.w3.org/2000/svg">
<path fill-rule="evenodd" clip-rule="evenodd" d="M3.85355 3.14645C3.65829 2.95118 3.34171 2.95118 3.14645 3.14645C2.95118 3.34171 2.95118 3.65829 3.14645 3.85355L20.1464 20.8536C20.3417 21.0488 20.6583 21.0488 20.8536 20.8536C21.0488 20.6583 21.0488 20.3417 20.8536 20.1464L3.85355 3.14645ZM5.00479 8.62171L5.0485 8.58404L5.75775 9.29328C5.72453 9.32159 5.6915 9.34993 5.65868 9.37829C4.81297 10.1092 4.12162 10.8415 3.64171 11.3913C3.42737 11.6369 3.25584 11.8453 3.13221 12C3.25584 12.1547 3.42737 12.3631 3.64171 12.6087C4.12162 13.1585 4.81297 13.8908 5.65868 14.6217C7.36805 16.0991 9.62659 17.5 12 17.5C12.5854 17.5 13.1638 17.4148 13.7287 17.2642L14.531 18.0666C13.7232 18.3374 12.8743 18.5 12 18.5C9.25803 18.5 6.76657 16.9009 5.00479 15.3783C4.11492 14.6092 3.3904 13.8415 2.88834 13.2663C2.637 12.9784 2.44063 12.7378 2.30637 12.5682C2.23922 12.4833 2.18755 12.4162 2.15225 12.3697C2.1346 12.3465 2.12104 12.3284 2.11168 12.3158L2.1008 12.3011L2.09775 12.297L2.09683 12.2957L2.09652 12.2953C2.0964 12.2951 2.0963 12.295 2.5 12C2.0963 11.705 2.0964 11.7049 2.09652 11.7047L2.09683 11.7043L2.09775 11.703L2.1008 11.6989L2.11168 11.6842C2.12104 11.6716 2.1346 11.6535 2.15225 11.6303C2.18755 11.5838 2.23922 11.5167 2.30637 11.4318C2.44063 11.2622 2.637 11.0216 2.88834 10.7337C3.3904 10.1585 4.11492 9.39079 5.00479 8.62171ZM2.5 12L2.0963 12.295C1.9679 12.1193 1.9679 11.8807 2.0963 11.705L2.5 12ZM8 11.9999C8 11.8511 8.00813 11.7041 8.02397 11.5595L9.0589 12.5944C9.2961 13.7744 10.2256 14.7038 11.4055 14.941L12.4404 15.976C12.2958 15.9918 12.1489 15.9999 12 15.9999C9.79086 15.9999 8 14.2091 8 11.9999ZM11.5595 8.02392L12.5943 9.0588C13.7744 9.29596 14.704 10.2255 14.9411 11.4056L15.976 12.4405C15.9919 12.2958 16 12.1488 16 11.9999C16 9.7908 14.2091 7.99994 12 7.99994C11.8511 7.99994 11.7041 8.00807 11.5595 8.02392ZM18.3413 14.6217C18.3085 14.6501 18.2755 14.6784 18.2423 14.7067L18.9515 15.416L18.9952 15.3783C19.8851 14.6092 20.6096 13.8415 21.1117 13.2663C21.363 12.9784 21.5594 12.7378 21.6936 12.5682C21.7608 12.4833 21.8125 12.4162 21.8477 12.3697C21.8654 12.3465 21.879 12.3284 21.8883 12.3158L21.8992 12.3011L21.9022 12.297L21.9032 12.2957L21.9035 12.2953C21.9036 12.2951 21.9037 12.295 21.5 12L21.9037 12.295C22.0321 12.1193 22.0321 11.8807 21.9037 11.705L21.5 12C21.9037 11.705 21.9036 11.7049 21.9035 11.7047L21.9032 11.7043L21.9022 11.703L21.8992 11.6989L21.8883 11.6842C21.879 11.6716 21.8654 11.6535 21.8477 11.6303C21.8125 11.5838 21.7608 11.5167 21.6936 11.4318C21.5594 11.2622 21.363 11.0216 21.1117 10.7337C20.6096 10.1585 19.8851 9.39079 18.9952 8.62171C17.2334 7.09905 14.742 5.5 12 5.5C11.1257 5.5 10.2768 5.66259 9.46897 5.93344L10.2713 6.7358C10.8362 6.58522 11.4146 6.5 12 6.5C14.3734 6.5 16.632 7.90095 18.3413 9.37829C19.187 10.1092 19.8784 10.8415 20.3583 11.3913C20.5726 11.6369 20.7442 11.8453 20.8678 12C20.7442 12.1547 20.5726 12.3631 20.3583 12.6087C19.8784 13.1585 19.187 13.8908 18.3413 14.6217Z" fill="#53565A"/>
</svg>
