<svg width="24" height="24" viewBox="0 0 24 24" fill="none" xmlns="http://www.w3.org/2000/svg">
<path fill-rule="evenodd" clip-rule="evenodd" d="M12 5.5C9.25803 5.5 6.76657 7.09905 5.00479 8.62171C4.11492 9.39079 3.3904 10.1585 2.88834 10.7337C2.637 11.0216 2.44063 11.2622 2.30637 11.4318C2.23922 11.5167 2.18755 11.5838 2.15225 11.6303C2.1346 11.6535 2.12104 11.6716 2.11168 11.6842L2.1008 11.6989L2.09775 11.703L2.09683 11.7043L2.09652 11.7047C2.0964 11.7049 2.0963 11.705 2.5 12L2.0963 11.705C1.9679 11.8807 1.9679 12.1193 2.0963 12.295L2.5 12C2.0963 12.295 2.0964 12.2951 2.09652 12.2953L2.09683 12.2957L2.09775 12.297L2.1008 12.3011L2.11168 12.3158C2.12104 12.3284 2.1346 12.3465 2.15225 12.3697C2.18755 12.4162 2.23922 12.4833 2.30637 12.5682C2.44063 12.7378 2.637 12.9784 2.88834 13.2663C3.3904 13.8415 4.11492 14.6092 5.00479 15.3783C6.76657 16.9009 9.25803 18.5 12 18.5C14.742 18.5 17.2334 16.9009 18.9952 15.3783C19.8851 14.6092 20.6096 13.8415 21.1117 13.2663C21.363 12.9784 21.5594 12.7378 21.6936 12.5682C21.7608 12.4833 21.8125 12.4162 21.8477 12.3697C21.8654 12.3465 21.879 12.3284 21.8883 12.3158L21.8992 12.3011L21.9022 12.297L21.9032 12.2957L21.9035 12.2953C21.9036 12.2951 21.9037 12.295 21.5 12L21.9037 12.295C22.0321 12.1193 22.0321 11.8807 21.9037 11.705L21.5 12C21.9037 11.705 21.9036 11.7049 21.9035 11.7047L21.9032 11.7043L21.9022 11.703L21.8992 11.6989L21.8883 11.6842C21.879 11.6716 21.8654 11.6535 21.8477 11.6303C21.8125 11.5838 21.7608 11.5167 21.6936 11.4318C21.5594 11.2622 21.363 11.0216 21.1117 10.7337C20.6096 10.1585 19.8851 9.39079 18.9952 8.62171C17.2334 7.09905 14.742 5.5 12 5.5ZM3.64171 12.6087C3.42737 12.3631 3.25584 12.1547 3.13221 12C3.25584 11.8453 3.42737 11.6369 3.64171 11.3913C4.12162 10.8415 4.81297 10.1092 5.65868 9.37829C7.36805 7.90095 9.62659 6.5 12 6.5C14.3734 6.5 16.632 7.90095 18.3413 9.37829C19.187 10.1092 19.8784 10.8415 20.3583 11.3913C20.5726 11.6369 20.7442 11.8453 20.8678 12C20.7442 12.1547 20.5726 12.3631 20.3583 12.6087C19.8784 13.1585 19.187 13.8908 18.3413 14.6217C16.632 16.0991 14.3734 17.5 12 17.5C9.62659 17.5 7.36805 16.0991 5.65868 14.6217C4.81297 13.8908 4.12162 13.1585 3.64171 12.6087ZM9 11.9999C9 10.3431 10.3431 8.99994 12 8.99994C13.6569 8.99994 15 10.3431 15 11.9999C15 13.6568 13.6569 14.9999 12 14.9999C10.3431 14.9999 9 13.6568 9 11.9999ZM12 7.99994C9.79086 7.99994 8 9.7908 8 11.9999C8 14.2091 9.79086 15.9999 12 15.9999C14.2091 15.9999 16 14.2091 16 11.9999C16 9.7908 14.2091 7.99994 12 7.99994Z" fill="#53565A"/>
</svg>
