<svg width="32" height="33" viewBox="0 0 32 33" fill="none" xmlns="http://www.w3.org/2000/svg">
<path fill-rule="evenodd" clip-rule="evenodd" d="M25.6723 5.04361C25.2679 4.63923 24.5349 4.18221 23.5982 4.04839C22.6428 3.91191 21.5057 4.11631 20.3312 4.99716C18.1678 6.61975 18.2774 8.79944 18.7004 9.96911L9.86588 18.8036L8.346 20.3235C8.20219 20.3072 8.05597 20.2988 7.90779 20.2988C5.78248 20.2988 4.05957 22.0217 4.05957 24.1471C4.05957 26.2724 5.78248 27.9953 7.90779 27.9953C10.0331 27.9953 11.756 26.2724 11.756 24.1471C11.756 23.9991 11.7477 23.8531 11.7314 23.7095L13.6193 21.8215L22.0593 13.3816C23.0189 13.8229 24.757 14.0321 26.3419 12.4472C28.0889 10.7002 28.0825 8.75892 27.802 7.91762C27.7503 7.76253 27.6261 7.64251 27.4693 7.59621C27.3125 7.54991 27.143 7.58318 27.0153 7.6853L23.9695 10.122C23.7096 9.90625 23.4002 9.5985 23.1294 9.22301C22.8011 8.76778 22.5495 8.24132 22.4861 7.67985L25.576 5.82591C25.708 5.74669 25.7962 5.61106 25.815 5.45825C25.8338 5.30544 25.7812 5.15248 25.6723 5.04361ZM11.4307 22.596L12.9122 21.1144L21.617 12.4097C21.7855 12.2412 22.0496 12.215 22.2479 12.3472C22.7697 12.6951 24.2358 13.1391 25.6348 11.7401C26.6177 10.7572 26.9051 9.74131 26.9378 9.02798L24.2918 11.1447C24.1218 11.2808 23.8833 11.2911 23.7021 11.1703C23.3209 10.9162 22.7742 10.4401 22.3183 9.80793C21.8624 9.17574 21.4705 8.34937 21.4705 7.40609C21.4705 7.23046 21.5627 7.06771 21.7133 6.97735L24.4174 5.35488C24.1537 5.21293 23.8281 5.09139 23.4567 5.03834C22.7714 4.94044 21.8996 5.07086 20.9312 5.79716C19.0407 7.21505 19.364 9.11084 19.7392 9.86109C19.8354 10.0536 19.7977 10.2861 19.6455 10.4382L10.573 19.5107L9.45932 20.6244C10.3375 21.0117 11.0434 21.7178 11.4307 22.596ZM5.05957 24.1471C5.05957 22.574 6.33476 21.2988 7.90779 21.2988C9.48082 21.2988 10.756 22.574 10.756 24.1471C10.756 25.7201 9.48082 26.9953 7.90779 26.9953C6.33476 26.9953 5.05957 25.7201 5.05957 24.1471Z" fill="#141414"/>
</svg>
